{
.appVersion = "983";
DisplayStrings = (
"/nikhahit-thai.narrow  /poPla-thai/foFa-thai/foFan-thai",
"/koKai-thai",
"/nikhahit-thai  /koKai-thai/saraUu-thai/oAng-thai/saraUu-thai/choChan-thai/saraUu-thai/noNu-thai/saraUu-thai/hoHip-thai/saraUu-thai"
);
copyright = "Copyright © 2018 by Cadson Demak Co.,Ltd.. All rights reserved.";
customParameters = (
{
name = vendorID;
value = CDK;
},
{
name = description;
value = "Copyright (c) 2018, Cadson Demak (info@cadsondemak.com)";
},
{
name = license;

glyphs = (
{
glyphname = A;
lastChange = "2018-02-27 11:48:33 +0000";
layers = (
{
background = {
paths = (
{
closed = 1;
nodes = (
"527 -10 OFFCURVE",
"587 28 OFFCURVE",
"619 79 CURVE SMOOTH",
"625 88 OFFCURVE",
"628 99 OFFCURVE",
"628 109 CURVE SMOOTH",
"628 116 OFFCURVE",
"626 121 OFFCURVE",
"619 121 CURVE SMOOTH",
"598 121 OFFCURVE",
"570 89 OFFCURVE",
"540 89 CURVE SMOOTH",
"530 89 OFFCURVE",
"526 97 OFFCURVE",
"524 108 CURVE SMOOTH",
"517 144 OFFCURVE",
"509 221 OFFCURVE",
"509 323 CURVE SMOOTH",
"509 532 OFFCURVE",
"538 666 OFFCURVE",
"578 703 CURVE",
"578 704 LINE",
"517 704 LINE SMOOTH",
"479 704 OFFCURVE",
"414 710 OFFCURVE",
"360 710 CURVE SMOOTH",
"168 710 OFFCURVE",
"27 579 OFFCURVE",
"27 393 CURVE SMOOTH",
"27 359 OFFCURVE",
"33 330 OFFCURVE",
"46 300 CURVE",
"145 410 LINE",
"133 434 OFFCURVE",
"130 464 OFFCURVE",
"130 490 CURVE SMOOTH",
"130 574 OFFCURVE",
"195 634 OFFCURVE",
"292 634 CURVE SMOOTH",
"320 634 OFFCURVE",
"360 632 OFFCURVE",
"387 628 CURVE",
"387 627 LINE",
"363 609 OFFCURVE",
"337 580 OFFCURVE",
"317 549 CURVE SMOOTH",
"288 502 OFFCURVE",
"256 433 OFFCURVE",
"220 321 CURVE SMOOTH",
"174 179 OFFCURVE",
"136 101 OFFCURVE",
"61 76 CURVE SMOOTH",
"50 72 OFFCURVE",
"39 69 OFFCURVE",
"31 65 CURVE SMOOTH",
"14 56 OFFCURVE",
"2 23 OFFCURVE",
"2 12 CURVE SMOOTH",
"2 4 OFFCURVE",
"5 0 OFFCURVE",
"14 0 CURVE SMOOTH",
"27 0 OFFCURVE",
"45 16 OFFCURVE",
"73 16 CURVE SMOOTH",
"94 16 OFFCURVE",
"142 0 OFFCURVE",
"160 0 CURVE SMOOTH",
"186 0 OFFCURVE",
"208 10 OFFCURVE",
"238 52 CURVE SMOOTH",
"244 61 OFFCURVE",
"248 70 OFFCURVE",
"248 76 CURVE SMOOTH",
"248 83 OFFCURVE",
"245 88 OFFCURVE",
"237 88 CURVE SMOOTH",
"225 88 OFFCURVE",
"218 78 OFFCURVE",
"197 78 CURVE SMOOTH",
"188 78 OFFCURVE",
"175 80 OFFCURVE",
"168 83 CURVE",
"168 84 LINE",
"214 109 OFFCURVE",
"255 162 OFFCURVE",
"278 226 CURVE",
"387 226 LINE",
"403 232 LINE",
"404 178 OFFCURVE",
"408 114 OFFCURVE",
"415 60 CURVE SMOOTH",
"420 14 OFFCURVE",
"441 -10 OFFCURVE",
"475 -10 CURVE SMOOTH"
);
},
{
closed = 1;
nodes = (
"313 342 LINE SMOOTH",
"339 462 OFFCURVE",
"380 548 OFFCURVE",
"434 593 CURVE",
"435 593 LINE",
"417 506 OFFCURVE",
"405 401 OFFCURVE",
"403 310 CURVE",
"306 310 LINE"
);
}
);
};
layerId = "56450C88-1299-454A-B666-E6F9AF06B23F";
paths = (
{
closed = 1;
nodes = (
"527 -10 OFFCURVE",
"587 28 OFFCURVE",
"619 79 CURVE SMOOTH",
"625 88 OFFCURVE",
"628 99 OFFCURVE",
"628 109 CURVE SMOOTH",
"628 116 OFFCURVE",
"626 121 OFFCURVE",
"619 121 CURVE SMOOTH",
"606 121 OFFCURVE",
"570 89 OFFCURVE",
"540 89 CURVE SMOOTH",
"530 89 OFFCURVE",
"526 97 OFFCURVE",
"524 108 CURVE SMOOTH",
"517 144 OFFCURVE",
"509 221 OFFCURVE",
"509 323 CURVE SMOOTH",
"509 532 OFFCURVE",
"538 666 OFFCURVE",
"578 703 CURVE",
"578 704 LINE",
"517 704 LINE SMOOTH",
"479 704 OFFCURVE",
"414 710 OFFCURVE",
"360 710 CURVE SMOOTH",
"168 710 OFFCURVE",
"27 579 OFFCURVE",
"27 393 CURVE SMOOTH",
"27 359 OFFCURVE",
"33 330 OFFCURVE",
"46 300 CURVE",
"145 410 LINE",
"133 434 OFFCURVE",
"130 464 OFFCURVE",
"130 490 CURVE SMOOTH",
"130 574 OFFCURVE",
"195 634 OFFCURVE",
"292 634 CURVE SMOOTH",
"320 634 OFFCURVE",
"360 632 OFFCURVE",
"387 628 CURVE",
"387 627 LINE",
"363 609 OFFCURVE",
"337 580 OFFCURVE",
"317 549 CURVE SMOOTH",
"288 502 OFFCURVE",
"256 433 OFFCURVE",
"220 321 CURVE SMOOTH",
"174 179 OFFCURVE",
"138 103 OFFCURVE",
"61 76 CURVE SMOOTH",
"45 70 OFFCURVE",
"37 69 OFFCURVE",
"27 62 CURVE SMOOTH",
"15 54 OFFCURVE",
"2 26 OFFCURVE",
"2 10 CURVE SMOOTH",
"2 4 OFFCURVE",
"6 0 OFFCURVE",
"12 0 CURVE SMOOTH",
"27 0 OFFCURVE",
"46 16 OFFCURVE",
"70 16 CURVE SMOOTH",
"107 16 OFFCURVE",
"132 0 OFFCURVE",
"160 0 CURVE SMOOTH",
"187 0 OFFCURVE",
"212 13 OFFCURVE",
"238 52 CURVE SMOOTH",
"244 61 OFFCURVE",
"248 69 OFFCURVE",
"248 78 CURVE SMOOTH",
"248 84 OFFCURVE",
"246 87 OFFCURVE",
"240 87 CURVE SMOOTH",
"231 87 OFFCURVE",
"222 78 OFFCURVE",
"197 78 CURVE SMOOTH",
"188 78 OFFCURVE",
"175 80 OFFCURVE",
"168 83 CURVE",
"168 84 LINE",
"214 109 OFFCURVE",
"255 162 OFFCURVE",
"278 226 CURVE",
"387 226 LINE",
"403 232 LINE",
"404 178 OFFCURVE",
"408 114 OFFCURVE",
"415 60 CURVE SMOOTH",
"420 14 OFFCURVE",
"441 -10 OFFCURVE",
"475 -10 CURVE SMOOTH"
);
},
{
closed = 1;
nodes = (
"313 342 LINE SMOOTH",
"339 462 OFFCURVE",
"380 548 OFFCURVE",
"434 593 CURVE",
"435 593 LINE",
"417 506 OFFCURVE",
"405 401 OFFCURVE",
"403 310 CURVE",
"306 310 LINE"
);
}
);
width = 644;
},
{
background = {
paths = (
{
closed = 1;
nodes = (
"523 -10 OFFCURVE",
"577 21 OFFCURVE",
"612 74 CURVE SMOOTH",
"615 80 OFFCURVE",
"617 84 OFFCURVE",
"617 89 CURVE SMOOTH",
"617 94 OFFCURVE",
"615 96 OFFCURVE",
"609 96 CURVE SMOOTH",
"598 96 OFFCURVE",
"567 63 OFFCURVE",
"539 63 CURVE SMOOTH",
"514 63 OFFCURVE",
"511 100 OFFCURVE",
"509 121 CURVE SMOOTH",
"505 159 OFFCURVE",
"503 232 OFFCURVE",
"503 334 CURVE SMOOTH",
"503 450 OFFCURVE",
"514 624 OFFCURVE",
"561 702 CURVE",
"561 703 LINE",
"527 703 LINE SMOOTH",
"489 703 OFFCURVE",
"445 710 OFFCURVE",
"391 710 CURVE SMOOTH",
"180 710 OFFCURVE",
"56 605 OFFCURVE",
"56 425 CURVE SMOOTH",
"56 394 OFFCURVE",
"61 365 OFFCURVE",
"71 332 CURVE",
"145 415 LINE",
"134 443 OFFCURVE",
"130 460 OFFCURVE",
"130 490 CURVE SMOOTH",
"130 599 OFFCURVE",
"192 654 OFFCURVE",
"312 654 CURVE SMOOTH",
"354 654 OFFCURVE",
"392 650 OFFCURVE",
"431 642 CURVE",
"431 641 LINE",
"392 616 OFFCURVE",
"367 590 OFFCURVE",
"343 554 CURVE SMOOTH",
"316 514 OFFCURVE",
"287 450 OFFCURVE",
"247 328 CURVE SMOOTH",
"201 189 OFFCURVE",
"156 79 OFFCURVE",
"76 45 CURVE",
"67 43 OFFCURVE",
"59 40 OFFCURVE",
"51 38 CURVE SMOOTH",
"44 36 OFFCURVE",
"24 8 OFFCURVE",
"24 -5 CURVE SMOOTH",
"24 -9 OFFCURVE",
"24 -11 OFFCURVE",
"27 -11 CURVE SMOOTH",
"38 -11 OFFCURVE",
"61 6 OFFCURVE",
"78 6 CURVE SMOOTH",
"105 6 OFFCURVE",
"138 -11 OFFCURVE",
"150 -11 CURVE SMOOTH",
"164 -11 OFFCURVE",
"187 -8 OFFCURVE",
"222 30 CURVE SMOOTH",
"232 41 OFFCURVE",
"236 48 OFFCURVE",
"236 54 CURVE SMOOTH",
"236 61 OFFCURVE",
"228 61 OFFCURVE",
"216 56 CURVE SMOOTH",
"209 53 OFFCURVE",
"202 47 OFFCURVE",
"187 47 CURVE SMOOTH",
"175 47 OFFCURVE",
"164 49 OFFCURVE",
"147 54 CURVE",
"148 57 LINE",
"204 97 OFFCURVE",
"248 173 OFFCURVE",
"272 237 CURVE",
"403 237 LINE",
"428 257 LINE",
"428 187 OFFCURVE",
"430 114 OFFCURVE",
"440 49 CURVE SMOOTH",
"444 20 OFFCURVE",
"456 -10 OFFCURVE",
"481 -10 CURVE SMOOTH"
);
},
{
closed = 1;
nodes = (
"303 327 LINE SMOOTH",
"341 436 OFFCURVE",
"401 600 OFFCURVE",
"469 630 CURVE",
"470 630 LINE",
"449 559 OFFCURVE",
"431 418 OFFCURVE",
"429 299 CURVE",
"293 299 LINE"
);
}
);
};
layerId = "0B1DFD06-3317-40CA-B510-4969A0718C16";
paths = (
{
closed = 1;
nodes = (
"523 -10 OFFCURVE",
"577 21 OFFCURVE",
"612 74 CURVE SMOOTH",
"615 80 OFFCURVE",
"617 84 OFFCURVE",
"617 89 CURVE SMOOTH",
"617 94 OFFCURVE",
"615 96 OFFCURVE",
"609 96 CURVE SMOOTH",
"598 96 OFFCURVE",
"567 63 OFFCURVE",
"539 63 CURVE SMOOTH",
"514 63 OFFCURVE",
"511 100 OFFCURVE",
"509 121 CURVE SMOOTH",
"505 155 OFFCURVE",
"503 240 OFFCURVE",
"503 334 CURVE SMOOTH",
"503 497 OFFCURVE",
"526 644 OFFCURVE",
"561 702 CURVE",
"561 703 LINE",
"527 703 LINE SMOOTH",
"489 703 OFFCURVE",
"445 710 OFFCURVE",
"391 710 CURVE SMOOTH",
"180 710 OFFCURVE",
"56 604 OFFCURVE",
"56 425 CURVE SMOOTH",
"56 398 OFFCURVE",
"61 366 OFFCURVE",
"71 332 CURVE",
"145 415 LINE",
"134 444 OFFCURVE",
"130 465 OFFCURVE",
"130 490 CURVE SMOOTH",
"130 598 OFFCURVE",
"192 654 OFFCURVE",
"312 654 CURVE SMOOTH",
"352 654 OFFCURVE",
"393 650 OFFCURVE",
"431 642 CURVE",
"431 641 LINE",
"397 619 OFFCURVE",
"366 589 OFFCURVE",
"343 554 CURVE SMOOTH",
"316 514 OFFCURVE",
"287 450 OFFCURVE",
"247 328 CURVE SMOOTH",
"201 189 OFFCURVE",
"156 80 OFFCURVE",
"76 45 CURVE SMOOTH",
"67 41 OFFCURVE",
"58 41 OFFCURVE",
"51 38 CURVE SMOOTH",
"41 34 OFFCURVE",
"24 8 OFFCURVE",
"24 -5 CURVE SMOOTH",
"24 -9 OFFCURVE",
"26 -10 OFFCURVE",
"29 -10 CURVE SMOOTH",
"40 -10 OFFCURVE",
"56 6 OFFCURVE",
"78 6 CURVE SMOOTH",
"105 6 OFFCURVE",
"132 -10 OFFCURVE",
"150 -10 CURVE SMOOTH",
"164 -10 OFFCURVE",
"187 -8 OFFCURVE",
"222 30 CURVE SMOOTH",
"232 41 OFFCURVE",
"236 47 OFFCURVE",
"236 53 CURVE SMOOTH",
"236 57 OFFCURVE",
"234 59 OFFCURVE",
"229 59 CURVE SMOOTH",
"220 59 OFFCURVE",
"206 47 OFFCURVE",
"187 47 CURVE SMOOTH",
"175 47 OFFCURVE",
"171 49 OFFCURVE",
"157 53 CURVE",
"157 54 LINE",
"204 87 OFFCURVE",
"251 161 OFFCURVE",
"279 237 CURVE",
"403 237 LINE",
"428 257 LINE",
"428 187 OFFCURVE",
"430 114 OFFCURVE",
"440 49 CURVE SMOOTH",
"444 20 OFFCURVE",
"456 -10 OFFCURVE",
"481 -10 CURVE SMOOTH"
);
},
{
closed = 1;
nodes = (
"309 332 LINE SMOOTH",
"372 522 OFFCURVE",
"417 607 OFFCURVE",
"469 630 CURVE",
"470 630 LINE",
"447 554 OFFCURVE",
"431 421 OFFCURVE",
"429 299 CURVE",
"298 299 LINE"
);
}
);
width = 631;
},
{
associatedMasterId = "0B1DFD06-3317-40CA-B510-4969A0718C16";
layerId = "33610075-13A3-43EA-B328-24050E2460C1";
width = 600;
}
);
note = A;
unicode = 0041;
},
{
glyphname = B;
lastChange = "2018-02-27 11:48:33 +0000";
layers = (
{
background = {
paths = (
{
closed = 1;
nodes = (
"133 -10 OFFCURVE",
"169 5 OFFCURVE",
"195 5 CURVE SMOOTH",
"225 5 OFFCURVE",
"257 -10 OFFCURVE",
"303 -10 CURVE SMOOTH",
"415 -10 OFFCURVE",
"569 89 OFFCURVE",
"569 226 CURVE SMOOTH",
"569 295 OFFCURVE",
"531 348 OFFCURVE",
"473 390 CURVE",
"554 442 OFFCURVE",
"591 494 OFFCURVE",
"591 564 CURVE SMOOTH",
"591 665 OFFCURVE",
"516 710 OFFCURVE",
"390 710 CURVE SMOOTH",
"166 710 OFFCURVE",
"12 564 OFFCURVE",
"12 363 CURVE SMOOTH",
"12 336 OFFCURVE",
"15 308 OFFCURVE",
"21 271 CURVE",
"130 380 LINE",
"122 399 OFFCURVE",
"114 428 OFFCURVE",
"115 457 CURVE SMOOTH",
"119 564 OFFCURVE",
"215 634 OFFCURVE",
"359 634 CURVE SMOOTH",
"433 634 OFFCURVE",
"473 598 OFFCURVE",
"473 530 CURVE SMOOTH",
"473 471 OFFCURVE",
"432 422 OFFCURVE",
"371 407 CURVE",
"334 407 LINE",
"351 521 LINE SMOOTH",
"359 576 OFFCURVE",
"378 584 OFFCURVE",
"378 599 CURVE SMOOTH",
"378 607 OFFCURVE",
"374 613 OFFCURVE",
"359 613 CURVE SMOOTH",
"307 613 OFFCURVE",
"256 567 OFFCURVE",
"249 529 CURVE SMOOTH",
"189 130 LINE SMOOTH",
"186 110 OFFCURVE",
"185 97 OFFCURVE",
"150 69 CURVE SMOOTH",
"123 47 OFFCURVE",
"108 29 OFFCURVE",
"108 1 CURVE SMOOTH",
"108 -6 OFFCURVE",
"113 -10 OFFCURVE",
"120 -10 CURVE SMOOTH"
);
},
{
closed = 1;
nodes = (
"305 78 OFFCURVE",
"288 81 OFFCURVE",
"277 85 CURVE",
"276 86 LINE",
"286 100 OFFCURVE",
"290 111 OFFCURVE",
"293 132 CURVE SMOOTH",
"321 329 LINE",
"364 329 LINE",
"420 301 OFFCURVE",
"453 252 OFFCURVE",
"453 198 CURVE SMOOTH",
"453 119 OFFCURVE",
"408 78 OFFCURVE",
"325 78 CURVE SMOOTH"
);
}
);
};
layerId = "56450C88-1299-454A-B666-E6F9AF06B23F";
paths = (
{
closed = 1;
nodes = (
"131 -10 OFFCURVE",
"169 5 OFFCURVE",
"195 5 CURVE SMOOTH",
"225 5 OFFCURVE",
"257 -10 OFFCURVE",
"303 -10 CURVE SMOOTH",
"415 -10 OFFCURVE",
"569 89 OFFCURVE",
"569 226 CURVE SMOOTH",
"569 295 OFFCURVE",
"531 348 OFFCURVE",
"473 390 CURVE",
"554 442 OFFCURVE",
"591 494 OFFCURVE",
"591 564 CURVE SMOOTH",
"591 665 OFFCURVE",
"516 710 OFFCURVE",
"390 710 CURVE SMOOTH",
"166 710 OFFCURVE",
"12 564 OFFCURVE",
"12 363 CURVE SMOOTH",
"12 336 OFFCURVE",
"15 308 OFFCURVE",
"21 271 CURVE",
"130 380 LINE",
"122 399 OFFCURVE",
"114 428 OFFCURVE",
"115 457 CURVE SMOOTH",
"119 564 OFFCURVE",
"215 634 OFFCURVE",
"359 634 CURVE SMOOTH",
"433 634 OFFCURVE",
"473 598 OFFCURVE",
"473 530 CURVE SMOOTH",
"473 471 OFFCURVE",
"432 422 OFFCURVE",
"371 407 CURVE",
"334 407 LINE",
"351 521 LINE SMOOTH",
"359 576 OFFCURVE",
"378 584 OFFCURVE",
"378 599 CURVE SMOOTH",
"378 607 OFFCURVE",
"374 613 OFFCURVE",
"359 613 CURVE SMOOTH",
"307 613 OFFCURVE",
"256 567 OFFCURVE",
"249 529 CURVE SMOOTH",
"189 130 LINE SMOOTH",
"186 110 OFFCURVE",
"181 91 OFFCURVE",
"150 69 CURVE SMOOTH",
"121 49 OFFCURVE",
"108 26 OFFCURVE",
"108 0 CURVE SMOOTH",
"108 -6 OFFCURVE",
"112 -10 OFFCURVE",
"118 -10 CURVE SMOOTH"
);
},
{
closed = 1;
nodes = (
"305 78 OFFCURVE",
"288 81 OFFCURVE",
"277 85 CURVE",
"276 86 LINE",
"286 100 OFFCURVE",
"290 111 OFFCURVE",
"293 132 CURVE SMOOTH",
"321 329 LINE",
"364 329 LINE",
"420 301 OFFCURVE",
"453 252 OFFCURVE",
"453 198 CURVE SMOOTH",
"453 119 OFFCURVE",
"408 78 OFFCURVE",
"325 78 CURVE SMOOTH"
);
}
);
width = 638;
},
{
background = {
paths = (
{
closed = 1;
nodes = (
"135 -10 OFFCURVE",
"149 5 OFFCURVE",
"180 5 CURVE SMOOTH",
"215 5 OFFCURVE",
"247 -10 OFFCURVE",
"288 -10 CURVE SMOOTH",
"390 -10 OFFCURVE",
"527 86 OFFCURVE",
"527 219 CURVE SMOOTH",
"527 291 OFFCURVE",
"490 347 OFFCURVE",
"420 383 CURVE",
"504 429 OFFCURVE",
"554 503 OFFCURVE",
"554 573 CURVE SMOOTH",
"554 663 OFFCURVE",
"493 710 OFFCURVE",
"375 710 CURVE SMOOTH",
"169 710 OFFCURVE",
"22 575 OFFCURVE",
"22 373 CURVE SMOOTH",
"22 353 OFFCURVE",
"23 337 OFFCURVE",
"27 313 CURVE",
"105 393 LINE",
"96 418 OFFCURVE",
"92 444 OFFCURVE",
"93 477 CURVE SMOOTH",
"96 586 OFFCURVE",
"188 650 OFFCURVE",
"341 650 CURVE SMOOTH",
"444 650 OFFCURVE",
"480 624 OFFCURVE",
"480 549 CURVE SMOOTH",
"480 475 OFFCURVE",
"430 412 OFFCURVE",
"356 392 CURVE",
"309 392 LINE",
"333 558 LINE SMOOTH",
"340 606 OFFCURVE",
"358 613 OFFCURVE",
"358 621 CURVE SMOOTH",
"358 625 OFFCURVE",
"354 627 OFFCURVE",
"348 627 CURVE SMOOTH",
"316 627 OFFCURVE",
"267 585 OFFCURVE",
"262 552 CURVE SMOOTH",
"195 110 LINE SMOOTH",
"193 95 OFFCURVE",
"188 69 OFFCURVE",
"152 44 CURVE SMOOTH",
"125 25 OFFCURVE",
"115 11 OFFCURVE",
"115 -2 CURVE SMOOTH",
"115 -9 OFFCURVE",
"119 -10 OFFCURVE",
"125 -10 CURVE SMOOTH"
);
},
{
closed = 1;
nodes = (
"288 51 OFFCURVE",
"268 52 OFFCURVE",
"238 57 CURVE",
"238 58 LINE",
"249 68 OFFCURVE",
"261 85 OFFCURVE",
"266 117 CURVE SMOOTH",
"301 344 LINE",
"353 344 LINE",
"420 313 OFFCURVE",
"459 254 OFFCURVE",
"459 186 CURVE SMOOTH",
"459 101 OFFCURVE",
"406 51 OFFCURVE",
"317 51 CURVE SMOOTH"
);
}
);
};
layerId = "0B1DFD06-3317-40CA-B510-4969A0718C16";
paths = (
{
closed = 1;
nodes = (
"135 -10 OFFCURVE",
"149 5 OFFCURVE",
"180 5 CURVE SMOOTH",
"215 5 OFFCURVE",
"247 -10 OFFCURVE",
"288 -10 CURVE SMOOTH",
"390 -10 OFFCURVE",
"527 86 OFFCURVE",
"527 219 CURVE SMOOTH",
"527 291 OFFCURVE",
"490 347 OFFCURVE",
"420 383 CURVE",
"504 429 OFFCURVE",
"554 503 OFFCURVE",
"554 573 CURVE SMOOTH",
"554 663 OFFCURVE",
"493 710 OFFCURVE",
"375 710 CURVE SMOOTH",
"169 710 OFFCURVE",
"22 575 OFFCURVE",
"22 373 CURVE SMOOTH",
"22 353 OFFCURVE",
"23 337 OFFCURVE",
"27 313 CURVE",
"105 393 LINE",
"96 418 OFFCURVE",
"92 444 OFFCURVE",
"93 477 CURVE SMOOTH",
"96 586 OFFCURVE",
"188 650 OFFCURVE",
"341 650 CURVE SMOOTH",
"444 650 OFFCURVE",
"480 624 OFFCURVE",
"480 549 CURVE SMOOTH",
"480 475 OFFCURVE",
"430 412 OFFCURVE",
"356 392 CURVE",
"309 392 LINE",
"333 558 LINE SMOOTH",
"340 606 OFFCURVE",
"358 613 OFFCURVE",
"358 621 CURVE SMOOTH",
"358 625 OFFCURVE",
"354 627 OFFCURVE",
"348 627 CURVE SMOOTH",
"316 627 OFFCURVE",
"267 585 OFFCURVE",
"262 552 CURVE SMOOTH",
"195 110 LINE SMOOTH",
"193 95 OFFCURVE",
"188 69 OFFCURVE",
"152 44 CURVE SMOOTH",
"125 25 OFFCURVE",
"115 11 OFFCURVE",
"115 -2 CURVE SMOOTH",
"115 -9 OFFCURVE",
"119 -10 OFFCURVE",
"125 -10 CURVE SMOOTH"
);
},
{
closed = 1;
nodes = (
"288 51 OFFCURVE",
"268 52 OFFCURVE",
"238 57 CURVE",
"238 58 LINE",
"254 73 OFFCURVE",
"262 93 OFFCURVE",
"268 128 CURVE SMOOTH",
"301 344 LINE",
"353 344 LINE",
"420 313 OFFCURVE",
"459 254 OFFCURVE",
"459 186 CURVE SMOOTH",
"459 101 OFFCURVE",
"406 51 OFFCURVE",
"317 51 CURVE SMOOTH"
);
}
);
width = 609;
},
{
associatedMasterId = "0B1DFD06-3317-40CA-B510-4969A0718C16";
layerId = "33610075-13A3-43EA-B328-24050E2460C1";
width = 600;
}
);
note = B;
unicode = 0042;
},
{
glyphname = C;
lastChange = "2018-02-27 11:48:33 +0000";
layers = (
{
background = {
paths = (
{
closed = 1;
nodes = (
"443 131 OFFCURVE",
"383 82 OFFCURVE",
"310 82 CURVE SMOOTH",
"236 82 OFFCURVE",
"192 150 OFFCURVE",
"192 265 CURVE SMOOTH",
"192 417 OFFCURVE",
"258 634 OFFCURVE",
"419 634 CURVE SMOOTH",
"474 634 OFFCURVE",
"506 611 OFFCURVE",
"506 572 CURVE SMOOTH",
"506 562 OFFCURVE",
"503 550 OFFCURVE",
"496 540 CURVE",
"500 532 OFFCURVE",
"513 526 OFFCURVE",
"528 526 CURVE SMOOTH",
"551 526 OFFCURVE",
"565 543 OFFCURVE",
"572 557 CURVE SMOOTH",
"584 580 OFFCURVE",
"596 600 OFFCURVE",
"596 625 CURVE SMOOTH",
"596 672 OFFCURVE",
"536 710 OFFCURVE",
"443 710 CURVE SMOOTH",
"270 710 OFFCURVE",
"72 537 OFFCURVE",
"72 235 CURVE SMOOTH",
"72 75 OFFCURVE",
"149 -10 OFFCURVE",
"260 -10 CURVE SMOOTH",
"372 -10 OFFCURVE",
"497 76 OFFCURVE",
"527 181 CURVE",
"531 197 OFFCURVE",
"513 215 OFFCURVE",
"486 224 CURVE"
);
}
);
};
layerId = "56450C88-1299-454A-B666-E6F9AF06B23F";
paths = (
{
closed = 1;
nodes = (
"443 131 OFFCURVE",
"383 82 OFFCURVE",
"310 82 CURVE SMOOTH",
"236 82 OFFCURVE",
"192 150 OFFCURVE",
"192 265 CURVE SMOOTH",
"192 417 OFFCURVE",
"258 634 OFFCURVE",
"419 634 CURVE SMOOTH",
"474 634 OFFCURVE",
"506 611 OFFCURVE",
"506 572 CURVE SMOOTH",
"506 562 OFFCURVE",
"503 550 OFFCURVE",
"496 540 CURVE",
"500 532 OFFCURVE",
"513 526 OFFCURVE",
"528 526 CURVE SMOOTH",
"551 526 OFFCURVE",
"565 543 OFFCURVE",
"572 557 CURVE SMOOTH",
"584 580 OFFCURVE",
"596 600 OFFCURVE",
"596 625 CURVE SMOOTH",
"596 672 OFFCURVE",
"536 710 OFFCURVE",
"443 710 CURVE SMOOTH",
"270 710 OFFCURVE",
"72 537 OFFCURVE",
"72 235 CURVE SMOOTH",
"72 81 OFFCURVE",
"142 -10 OFFCURVE",
"260 -10 CURVE SMOOTH",
"372 -10 OFFCURVE",
"497 76 OFFCURVE",
"527 181 CURVE",
"531 197 OFFCURVE",
"513 215 OFFCURVE",
"486 224 CURVE"
);
}
);
width = 626;
},
{
background = {
paths = (
{
closed = 1;
nodes = (
"443 109 OFFCURVE",
"377 60 OFFCURVE",
"300 60 CURVE SMOOTH",
"191 60 OFFCURVE",
"166 200 OFFCURVE",
"166 265 CURVE SMOOTH",
"166 420 OFFCURVE",
"235 656 OFFCURVE",
"409 656 CURVE SMOOTH",
"462 656 OFFCURVE",
"513 633 OFFCURVE",
"513 582 CURVE SMOOTH",
"513 572 OFFCURVE",
"510 563 OFFCURVE",
"503 553 CURVE",
"509 550 OFFCURVE",
"515 548 OFFCURVE",
"518 548 CURVE SMOOTH",
"533 548 OFFCURVE",
"538 555 OFFCURVE",
"547 572 CURVE SMOOTH",
"557 592 OFFCURVE",
"570 613 OFFCURVE",
"570 635 CURVE SMOOTH",
"570 689 OFFCURVE",
"493 710 OFFCURVE",
"433 710 CURVE SMOOTH",
"289 710 OFFCURVE",
"81 553 OFFCURVE",
"81 235 CURVE SMOOTH",
"81 97 OFFCURVE",
"139 -10 OFFCURVE",
"250 -10 CURVE SMOOTH",
"362 -10 OFFCURVE",
"473 79 OFFCURVE",
"500 175 CURVE SMOOTH",
"501 181 OFFCURVE",
"495 190 OFFCURVE",
"486 196 CURVE"
);
}
);
};
layerId = "0B1DFD06-3317-40CA-B510-4969A0718C16";
paths = (
{
closed = 1;
nodes = (
"443 109 OFFCURVE",
"377 60 OFFCURVE",
"300 60 CURVE SMOOTH",
"215 60 OFFCURVE",
"165 136 OFFCURVE",
"165 265 CURVE SMOOTH",
"165 420 OFFCURVE",
"235 656 OFFCURVE",
"409 656 CURVE SMOOTH",
"471 656 OFFCURVE",
"513 626 OFFCURVE",
"513 582 CURVE SMOOTH",
"513 572 OFFCURVE",
"510 562 OFFCURVE",
"503 552 CURVE",
"508 549 OFFCURVE",
"514 548 OFFCURVE",
"518 548 CURVE SMOOTH",
"533 548 OFFCURVE",
"538 555 OFFCURVE",
"547 572 CURVE SMOOTH",
"557 592 OFFCURVE",
"570 613 OFFCURVE",
"570 635 CURVE SMOOTH",
"570 689 OFFCURVE",
"493 710 OFFCURVE",
"433 710 CURVE SMOOTH",
"289 710 OFFCURVE",
"79 553 OFFCURVE",
"79 235 CURVE SMOOTH",
"79 81 OFFCURVE",
"145 -10 OFFCURVE",
"256 -10 CURVE SMOOTH",
"368 -10 OFFCURVE",
"468 64 OFFCURVE",
"500 175 CURVE SMOOTH",
"501 181 OFFCURVE",
"495 190 OFFCURVE",
"486 196 CURVE"
);
}
);
width = 606;
},
{
associatedMasterId = "0B1DFD06-3317-40CA-B510-4969A0718C16";
layerId = "33610075-13A3-43EA-B328-24050E2460C1";
width = 600;
}
);
note = C;
unicode = 0043;
},
{
glyphname = D;
lastChange = "2018-02-27 11:48:33 +0000";
layers = (
{
background = {
paths = (
{
closed = 1;
nodes = (
"371 592 OFFCURVE",
"386 601 OFFCURVE",
"386 614 CURVE SMOOTH",
"386 625 OFFCURVE",
"374 631 OFFCURVE",
"360 631 CURVE SMOOTH",
"318 631 OFFCURVE",
"264 583 OFFCURVE",
"257 545 CURVE SMOOTH",
"185 136 LINE SMOOTH",
"179 104 OFFCURVE",
"162 73 OFFCURVE",
"139 59 CURVE",
"108 42 OFFCURVE",
"95 -10 OFFCURVE",
"127 -10 CURVE SMOOTH",
"144 -10 OFFCURVE",
"168 4 OFFCURVE",
"188 4 CURVE SMOOTH",
"234 4 OFFCURVE",
"266 -10 OFFCURVE",
"337 -10 CURVE SMOOTH",
"475 -10 OFFCURVE",
"694 115 OFFCURVE",
"694 447 CURVE SMOOTH",
"694 635 OFFCURVE",
"588 710 OFFCURVE",
"396 710 CURVE SMOOTH",
"168 710 OFFCURVE",
"15 570 OFFCURVE",
"15 363 CURVE SMOOTH",
"15 336 OFFCURVE",
"20 308 OFFCURVE",
"24 271 CURVE",
"133 380 LINE",
"121 404 OFFCURVE",
"118 426 OFFCURVE",
"119 467 CURVE SMOOTH",
"122 571 OFFCURVE",
"210 635 OFFCURVE",
"362 635 CURVE SMOOTH",
"500 635 OFFCURVE",
"571 571 OFFCURVE",
"571 428 CURVE SMOOTH",
"571 218 OFFCURVE",
"497 73 OFFCURVE",
"348 73 CURVE SMOOTH",
"320 73 OFFCURVE",
"295 73 OFFCURVE",
"271 75 CURVE",
"278 89 OFFCURVE",
"282 98 OFFCURVE",
"283 109 CURVE SMOOTH",
"362 545 LINE SMOOTH"
);
}
);
};
layerId = "56450C88-1299-454A-B666-E6F9AF06B23F";
paths = (
{
closed = 1;
nodes = (
"138 -10 OFFCURVE",
"152 4 OFFCURVE",
"188 4 CURVE SMOOTH",
"234 4 OFFCURVE",
"266 -10 OFFCURVE",
"337 -10 CURVE SMOOTH",
"475 -10 OFFCURVE",
"694 100 OFFCURVE",
"694 432 CURVE SMOOTH",
"694 607 OFFCURVE",
"583 710 OFFCURVE",
"396 710 CURVE SMOOTH",
"169 710 OFFCURVE",
"15 564 OFFCURVE",
"15 363 CURVE SMOOTH",
"15 336 OFFCURVE",
"18 308 OFFCURVE",
"24 271 CURVE",
"133 380 LINE",
"125 399 OFFCURVE",
"117 428 OFFCURVE",
"118 457 CURVE SMOOTH",
"121 564 OFFCURVE",
"218 638 OFFCURVE",
"362 638 CURVE SMOOTH",
"505 638 OFFCURVE",
"574 561 OFFCURVE",
"574 418 CURVE SMOOTH",
"574 211 OFFCURVE",
"484 73 OFFCURVE",
"348 73 CURVE SMOOTH",
"317 73 OFFCURVE",
"289 74 OFFCURVE",
"268 77 CURVE",
"268 78 LINE",
"277 90 OFFCURVE",
"282 105 OFFCURVE",
"285 120 CURVE SMOOTH",
"357 520 LINE SMOOTH",
"367 575 OFFCURVE",
"384 583 OFFCURVE",
"384 598 CURVE SMOOTH",
"384 606 OFFCURVE",
"380 612 OFFCURVE",
"365 612 CURVE SMOOTH",
"313 612 OFFCURVE",
"261 566 OFFCURVE",
"254 528 CURVE SMOOTH",
"184 136 LINE SMOOTH",
"180 116 OFFCURVE",
"176 91 OFFCURVE",
"149 70 CURVE SMOOTH",
"122 49 OFFCURVE",
"108 26 OFFCURVE",
"108 0 CURVE SMOOTH",
"108 -6 OFFCURVE",
"112 -10 OFFCURVE",
"118 -10 CURVE SMOOTH"
);
}
);
width = 728;
},
{
background = {
paths = (
{
closed = 1;
nodes = (
"131 -10 OFFCURVE",
"151 4 OFFCURVE",
"178 4 CURVE SMOOTH",
"228 4 OFFCURVE",
"260 -10 OFFCURVE",
"327 -10 CURVE SMOOTH",
"457 -10 OFFCURVE",
"665 120 OFFCURVE",
"665 447 CURVE SMOOTH",
"665 620 OFFCURVE",
"566 710 OFFCURVE",
"376 710 CURVE SMOOTH",
"152 710 OFFCURVE",
"22 574 OFFCURVE",
"22 373 CURVE SMOOTH",
"22 356 OFFCURVE",
"24 334 OFFCURVE",
"27 313 CURVE",
"105 393 LINE",
"95 419 OFFCURVE",
"91 445 OFFCURVE",
"92 477 CURVE SMOOTH",
"96 586 OFFCURVE",
"200 658 OFFCURVE",
"352 658 CURVE SMOOTH",
"501 658 OFFCURVE",
"579 581 OFFCURVE",
"579 437 CURVE SMOOTH",
"579 205 OFFCURVE",
"483 51 OFFCURVE",
"338 51 CURVE SMOOTH",
"299 51 OFFCURVE",
"260 54 OFFCURVE",
"239 59 CURVE",
"239 60 LINE",
"247 68 OFFCURVE",
"256 80 OFFCURVE",
"259 99 CURVE SMOOTH",
"335 558 LINE SMOOTH",
"343 606 OFFCURVE",
"360 613 OFFCURVE",
"360 621 CURVE SMOOTH",
"360 625 OFFCURVE",
"356 627 OFFCURVE",
"350 627 CURVE SMOOTH",
"318 627 OFFCURVE",
"269 585 OFFCURVE",
"264 552 CURVE SMOOTH",
"193 126 LINE SMOOTH",
"187 87 OFFCURVE",
"166 55 OFFCURVE",
"139 39 CURVE SMOOTH",
"129 33 OFFCURVE",
"115 7 OFFCURVE",
"115 -4 CURVE SMOOTH",
"115 -8 OFFCURVE",
"116 -10 OFFCURVE",
"120 -10 CURVE SMOOTH"
);
}
);
};
layerId = "0B1DFD06-3317-40CA-B510-4969A0718C16";
paths = (
{
closed = 1;
nodes = (
"131 -10 OFFCURVE",
"151 4 OFFCURVE",
"178 4 CURVE SMOOTH",
"228 4 OFFCURVE",
"260 -10 OFFCURVE",
"327 -10 CURVE SMOOTH",
"457 -10 OFFCURVE",
"665 120 OFFCURVE",
"665 447 CURVE SMOOTH",
"665 620 OFFCURVE",
"566 710 OFFCURVE",
"376 710 CURVE SMOOTH",
"152 710 OFFCURVE",
"22 574 OFFCURVE",
"22 373 CURVE SMOOTH",
"22 356 OFFCURVE",
"24 334 OFFCURVE",
"27 313 CURVE",
"105 393 LINE",
"95 419 OFFCURVE",
"91 445 OFFCURVE",
"92 477 CURVE SMOOTH",
"96 586 OFFCURVE",
"200 658 OFFCURVE",
"352 658 CURVE SMOOTH",
"501 658 OFFCURVE",
"579 581 OFFCURVE",
"579 437 CURVE SMOOTH",
"579 205 OFFCURVE",
"483 51 OFFCURVE",
"338 51 CURVE SMOOTH",
"299 51 OFFCURVE",
"260 54 OFFCURVE",
"239 59 CURVE",
"239 60 LINE",
"249 70 OFFCURVE",
"257 89 OFFCURVE",
"261 112 CURVE SMOOTH",
"335 558 LINE SMOOTH",
"343 606 OFFCURVE",
"360 613 OFFCURVE",
"360 621 CURVE SMOOTH",
"360 625 OFFCURVE",
"356 627 OFFCURVE",
"350 627 CURVE SMOOTH",
"318 627 OFFCURVE",
"269 585 OFFCURVE",
"264 552 CURVE SMOOTH",
"193 126 LINE SMOOTH",
"187 88 OFFCURVE",
"167 56 OFFCURVE",
"139 39 CURVE SMOOTH",
"129 33 OFFCURVE",
"115 7 OFFCURVE",
"115 -4 CURVE SMOOTH",
"115 -8 OFFCURVE",
"116 -10 OFFCURVE",
"120 -10 CURVE SMOOTH"
);
}
);
width = 708;
},
{
associatedMasterId = "0B1DFD06-3317-40CA-B510-4969A0718C16";
layerId = "33610075-13A3-43EA-B328-24050E2460C1";
width = 600;
}
);
note = D;
unicode = 0044;
},
{
glyphname = E;
lastChange = "2018-02-27 11:48:33 +0000";
layers = (
{
background = {
paths = (
{
closed = 1;
nodes = (
"143 0 OFFCURVE",
"158 17 OFFCURVE",
"186 17 CURVE SMOOTH",
"205 17 OFFCURVE",
"310 0 OFFCURVE",
"372 0 CURVE SMOOTH",
"426 0 OFFCURVE",
"494 28 OFFCURVE",
"528 65 CURVE SMOOTH",
"539 77 OFFCURVE",
"545 89 OFFCURVE",
"545 103 CURVE SMOOTH",
"545 108 OFFCURVE",
"542 112 OFFCURVE",
"535 112 CURVE SMOOTH",
"518 112 OFFCURVE",
"478 88 OFFCURVE",
"371 88 CURVE SMOOTH",
"326 88 OFFCURVE",
"296 90 OFFCURVE",
"277 94 CURVE",
"285 111 OFFCURVE",
"286 123 OFFCURVE",
"288 133 CURVE SMOOTH",
"322 332 LINE",
"366 330 LINE SMOOTH",
"381 329 OFFCURVE",
"400 325 OFFCURVE",
"415 325 CURVE SMOOTH",
"459 325 OFFCURVE",
"511 366 OFFCURVE",
"553 430 CURVE",
"553 431 LINE",
"495 422 OFFCURVE",
"439 414 OFFCURVE",
"392 414 CURVE SMOOTH",
"337 414 LINE",
"369 615 LINE",
"434 615 OFFCURVE",
"488 609 OFFCURVE",
"533 609 CURVE SMOOTH",
"583 609 OFFCURVE",
"645 675 OFFCURVE",
"645 697 CURVE SMOOTH",
"645 705 OFFCURVE",
"640 710 OFFCURVE",
"632 710 CURVE SMOOTH",
"620 710 OFFCURVE",
"588 700 OFFCURVE",
"528 700 CURVE SMOOTH",
"376 700 LINE SMOOTH",
"152 700 OFFCURVE",
"15 576 OFFCURVE",
"15 363 CURVE SMOOTH",
"15 341 OFFCURVE",
"19 304 OFFCURVE",
"24 271 CURVE",
"133 380 LINE",
"122 404 OFFCURVE",
"115 433 OFFCURVE",
"116 467 CURVE SMOOTH",
"119 560 OFFCURVE",
"179 613 OFFCURVE",
"257 613 CURVE SMOOTH",
"261 613 LINE",
"190 189 LINE SMOOTH",
"178 114 OFFCURVE",
"169 89 OFFCURVE",
"140 66 CURVE SMOOTH",
"123 52 OFFCURVE",
"114 25 OFFCURVE",
"114 11 CURVE SMOOTH",
"114 4 OFFCURVE",
"119 0 OFFCURVE",
"126 0 CURVE SMOOTH"
);
}
);
};
layerId = "56450C88-1299-454A-B666-E6F9AF06B23F";
paths = (
{
closed = 1;
nodes = (
"138 0 OFFCURVE",
"156 17 OFFCURVE",
"186 17 CURVE SMOOTH",
"225 17 OFFCURVE",
"311 0 OFFCURVE",
"373 0 CURVE SMOOTH",
"434 0 OFFCURVE",
"506 35 OFFCURVE",
"536 77 CURVE SMOOTH",
"544 89 OFFCURVE",
"545 95 OFFCURVE",
"545 102 CURVE SMOOTH",
"545 108 OFFCURVE",
"541 112 OFFCURVE",
"535 112 CURVE SMOOTH",
"518 112 OFFCURVE",
"478 88 OFFCURVE",
"371 88 CURVE SMOOTH",
"326 88 OFFCURVE",
"296 90 OFFCURVE",
"277 94 CURVE",
"277 95 LINE",
"284 111 OFFCURVE",
"286 123 OFFCURVE",
"288 133 CURVE SMOOTH",
"322 332 LINE",
"366 330 LINE SMOOTH",
"381 329 OFFCURVE",
"400 325 OFFCURVE",
"415 325 CURVE SMOOTH",
"459 325 OFFCURVE",
"511 366 OFFCURVE",
"553 430 CURVE",
"553 431 LINE",
"495 422 OFFCURVE",
"439 414 OFFCURVE",
"392 414 CURVE SMOOTH",
"336 414 LINE",
"369 615 LINE",
"434 615 OFFCURVE",
"488 609 OFFCURVE",
"533 609 CURVE SMOOTH",
"583 609 OFFCURVE",
"645 675 OFFCURVE",
"645 697 CURVE SMOOTH",
"645 705 OFFCURVE",
"640 710 OFFCURVE",
"632 710 CURVE SMOOTH",
"620 710 OFFCURVE",
"588 700 OFFCURVE",
"528 700 CURVE SMOOTH",
"376 700 LINE SMOOTH",
"152 700 OFFCURVE",
"15 576 OFFCURVE",
"15 363 CURVE SMOOTH",
"15 341 OFFCURVE",
"19 304 OFFCURVE",
"24 271 CURVE",
"133 380 LINE",
"122 404 OFFCURVE",
"115 433 OFFCURVE",
"116 467 CURVE SMOOTH",
"119 560 OFFCURVE",
"179 613 OFFCURVE",
"257 613 CURVE SMOOTH",
"261 613 LINE",
"190 189 LINE SMOOTH",
"178 114 OFFCURVE",
"169 89 OFFCURVE",
"140 66 CURVE SMOOTH",
"123 52 OFFCURVE",
"114 25 OFFCURVE",
"114 10 CURVE SMOOTH",
"114 4 OFFCURVE",
"118 0 OFFCURVE",
"124 0 CURVE SMOOTH"
);
}
);
width = 619;
},
{
background = {
paths = (
{
closed = 1;
nodes = (
"134 0 OFFCURVE",
"163 17 OFFCURVE",
"176 17 CURVE SMOOTH",
"195 17 OFFCURVE",
"300 0 OFFCURVE",
"362 0 CURVE SMOOTH",
"404 0 OFFCURVE",
"457 6 OFFCURVE",
"507 61 CURVE SMOOTH",
"515 71 OFFCURVE",
"517 76 OFFCURVE",
"517 81 CURVE SMOOTH",
"517 86 OFFCURVE",
"514 90 OFFCURVE",
"506 90 CURVE SMOOTH",
"493 90 OFFCURVE",
"478 66 OFFCURVE",
"361 66 CURVE SMOOTH",
"291 66 OFFCURVE",
"258 72 OFFCURVE",
"242 76 CURVE",
"249 82 OFFCURVE",
"256 97 OFFCURVE",
"259 111 CURVE SMOOTH",
"298 342 LINE",
"357 340 LINE SMOOTH",
"374 339 OFFCURVE",
"392 335 OFFCURVE",
"405 335 CURVE SMOOTH",
"437 335 OFFCURVE",
"474 361 OFFCURVE",
"511 414 CURVE",
"512 416 LINE",
"467 409 OFFCURVE",
"421 404 OFFCURVE",
"382 404 CURVE SMOOTH",
"309 404 LINE",
"346 636 LINE",
"406 634 OFFCURVE",
"464 631 OFFCURVE",
"527 630 CURVE SMOOTH",
"558 629 OFFCURVE",
"619 677 OFFCURVE",
"619 702 CURVE SMOOTH",
"619 707 OFFCURVE",
"617 710 OFFCURVE",
"611 710 CURVE SMOOTH",
"605 710 OFFCURVE",
"582 700 OFFCURVE",
"518 700 CURVE SMOOTH",
"366 700 LINE SMOOTH",
"142 700 OFFCURVE",
"22 573 OFFCURVE",
"22 373 CURVE SMOOTH",
"22 353 OFFCURVE",
"24 333 OFFCURVE",
"27 313 CURVE",
"105 393 LINE",
"94 421 OFFCURVE",
"92 451 OFFCURVE",
"93 477 CURVE SMOOTH",
"96 580 OFFCURVE",
"167 635 OFFCURVE",
"266 635 CURVE SMOOTH",
"271 635 LINE",
"196 176 LINE SMOOTH",
"182 97 OFFCURVE",
"172 75 OFFCURVE",
"141 49 CURVE SMOOTH",
"133 43 OFFCURVE",
"118 19 OFFCURVE",
"118 7 CURVE SMOOTH",
"118 3 OFFCURVE",
"119 0 OFFCURVE",
"121 0 CURVE SMOOTH"
);
}
);
};
layerId = "0B1DFD06-3317-40CA-B510-4969A0718C16";
paths = (
{
closed = 1;
nodes = (
"137 0 OFFCURVE",
"155 17 OFFCURVE",
"176 17 CURVE SMOOTH",
"195 17 OFFCURVE",
"300 0 OFFCURVE",
"362 0 CURVE SMOOTH",
"404 0 OFFCURVE",
"457 6 OFFCURVE",
"507 61 CURVE SMOOTH",
"515 71 OFFCURVE",
"517 76 OFFCURVE",
"517 81 CURVE SMOOTH",
"517 87 OFFCURVE",
"513 90 OFFCURVE",
"507 90 CURVE SMOOTH",
"493 90 OFFCURVE",
"478 66 OFFCURVE",
"361 66 CURVE SMOOTH",
"291 66 OFFCURVE",
"258 72 OFFCURVE",
"242 76 CURVE",
"242 77 LINE",
"252 88 OFFCURVE",
"259 103 OFFCURVE",
"263 123 CURVE SMOOTH",
"300 342 LINE",
"354 340 LINE SMOOTH",
"381 339 OFFCURVE",
"392 335 OFFCURVE",
"405 335 CURVE SMOOTH",
"437 335 OFFCURVE",
"474 361 OFFCURVE",
"511 414 CURVE",
"512 416 LINE",
"467 409 OFFCURVE",
"421 404 OFFCURVE",
"382 404 CURVE SMOOTH",
"309 404 LINE",
"346 636 LINE",
"420 636 OFFCURVE",
"464 628 OFFCURVE",
"527 630 CURVE SMOOTH",
"558 631 OFFCURVE",
"619 677 OFFCURVE",
"619 702 CURVE SMOOTH",
"619 707 OFFCURVE",
"617 710 OFFCURVE",
"611 710 CURVE SMOOTH",
"605 710 OFFCURVE",
"582 700 OFFCURVE",
"518 700 CURVE SMOOTH",
"366 700 LINE SMOOTH",
"150 700 OFFCURVE",
"22 579 OFFCURVE",
"22 373 CURVE SMOOTH",
"22 355 OFFCURVE",
"24 335 OFFCURVE",
"27 313 CURVE",
"105 393 LINE",
"96 415 OFFCURVE",
"92 444 OFFCURVE",
"93 477 CURVE SMOOTH",
"96 576 OFFCURVE",
"160 635 OFFCURVE",
"266 635 CURVE SMOOTH",
"271 635 LINE",
"196 176 LINE SMOOTH",
"182 97 OFFCURVE",
"172 75 OFFCURVE",
"141 49 CURVE SMOOTH",
"127 39 OFFCURVE",
"118 22 OFFCURVE",
"118 7 CURVE SMOOTH",
"118 3 OFFCURVE",
"120 0 OFFCURVE",
"124 0 CURVE SMOOTH"
);
}
);
width = 599;
},
{
associatedMasterId = "0B1DFD06-3317-40CA-B510-4969A0718C16";
layerId = "33610075-13A3-43EA-B328-24050E2460C1";
width = 600;
}
);
note = E;
unicode = 0045;
},
{
glyphname = F;
lastChange = "2018-02-27 11:48:33 +0000";
layers = (
{
background = {
paths = (
{
closed = 1;
nodes = (
"144 0 OFFCURVE",
"162 16 OFFCURVE",
"184 16 CURVE SMOOTH",
"205 16 OFFCURVE",
"241 0 OFFCURVE",
"259 0 CURVE SMOOTH",
"285 0 OFFCURVE",
"310 10 OFFCURVE",
"343 52 CURVE SMOOTH",
"350 61 OFFCURVE",
"353 68 OFFCURVE",
"353 78 CURVE SMOOTH",
"353 85 OFFCURVE",
"348 90 OFFCURVE",
"340 90 CURVE SMOOTH",
"328 90 OFFCURVE",
"307 78 OFFCURVE",
"291 78 CURVE SMOOTH",
"281 78 OFFCURVE",
"275 79 OFFCURVE",
"266 83 CURVE",
"266 84 LINE",
"276 93 OFFCURVE",
"286 114 OFFCURVE",
"289 133 CURVE SMOOTH",
"322 332 LINE",
"366 330 LINE SMOOTH",
"381 329 OFFCURVE",
"400 325 OFFCURVE",
"415 325 CURVE SMOOTH",
"459 325 OFFCURVE",
"511 366 OFFCURVE",
"553 430 CURVE",
"553 431 LINE",
"495 422 OFFCURVE",
"439 414 OFFCURVE",
"392 414 CURVE SMOOTH",
"336 414 LINE",
"369 615 LINE",
"434 615 OFFCURVE",
"488 609 OFFCURVE",
"533 609 CURVE SMOOTH",
"583 609 OFFCURVE",
"645 675 OFFCURVE",
"645 697 CURVE SMOOTH",
"645 705 OFFCURVE",
"640 710 OFFCURVE",
"632 710 CURVE SMOOTH",
"620 710 OFFCURVE",
"588 700 OFFCURVE",
"528 700 CURVE SMOOTH",
"376 700 LINE SMOOTH",
"152 700 OFFCURVE",
"15 576 OFFCURVE",
"15 363 CURVE SMOOTH",
"15 341 OFFCURVE",
"19 304 OFFCURVE",
"24 271 CURVE",
"133 380 LINE",
"122 404 OFFCURVE",
"115 433 OFFCURVE",
"116 467 CURVE SMOOTH",
"119 560 OFFCURVE",
"179 613 OFFCURVE",
"257 613 CURVE SMOOTH",
"261 613 LINE",
"189 177 LINE SMOOTH",
"178 110 OFFCURVE",
"170 90 OFFCURVE",
"145 65 CURVE SMOOTH",
"125 45 OFFCURVE",
"113 26 OFFCURVE",
"113 13 CURVE SMOOTH",
"113 5 OFFCURVE",
"116 0 OFFCURVE",
"125 0 CURVE SMOOTH"
);
}
);
};
layerId = "56450C88-1299-454A-B666-E6F9AF06B23F";
paths = (
{
closed = 1;
nodes = (
"138 0 OFFCURVE",
"152 16 OFFCURVE",
"184 16 CURVE SMOOTH",
"216 16 OFFCURVE",
"243 0 OFFCURVE",
"271 0 CURVE SMOOTH",
"298 0 OFFCURVE",
"316 13 OFFCURVE",
"343 52 CURVE SMOOTH",
"350 62 OFFCURVE",
"353 71 OFFCURVE",
"353 80 CURVE SMOOTH",
"353 86 OFFCURVE",
"349 89 OFFCURVE",
"343 89 CURVE SMOOTH",
"330 89 OFFCURVE",
"320 78 OFFCURVE",
"295 78 CURVE SMOOTH",
"285 78 OFFCURVE",
"275 79 OFFCURVE",
"266 83 CURVE",
"266 84 LINE",
"276 93 OFFCURVE",
"286 114 OFFCURVE",
"289 133 CURVE SMOOTH",
"318 305 LINE",
"362 303 LINE SMOOTH",
"377 302 OFFCURVE",
"396 298 OFFCURVE",
"411 298 CURVE SMOOTH",
"455 298 OFFCURVE",
"507 339 OFFCURVE",
"549 403 CURVE",
"549 404 LINE",
"491 395 OFFCURVE",
"435 387 OFFCURVE",
"388 387 CURVE SMOOTH",
"332 387 LINE",
"369 615 LINE",
"434 615 OFFCURVE",
"488 609 OFFCURVE",
"533 609 CURVE SMOOTH",
"583 609 OFFCURVE",
"645 675 OFFCURVE",
"645 697 CURVE SMOOTH",
"645 705 OFFCURVE",
"640 710 OFFCURVE",
"632 710 CURVE SMOOTH",
"620 710 OFFCURVE",
"588 700 OFFCURVE",
"528 700 CURVE SMOOTH",
"376 700 LINE SMOOTH",
"152 700 OFFCURVE",
"15 576 OFFCURVE",
"15 363 CURVE SMOOTH",
"15 341 OFFCURVE",
"19 304 OFFCURVE",
"24 271 CURVE",
"133 380 LINE",
"122 404 OFFCURVE",
"115 433 OFFCURVE",
"116 467 CURVE SMOOTH",
"119 560 OFFCURVE",
"179 613 OFFCURVE",
"257 613 CURVE SMOOTH",
"261 613 LINE",
"189 177 LINE SMOOTH",
"178 107 OFFCURVE",
"167 81 OFFCURVE",
"145 65 CURVE SMOOTH",
"123 49 OFFCURVE",
"113 30 OFFCURVE",
"113 10 CURVE SMOOTH",
"113 4 OFFCURVE",
"117 0 OFFCURVE",
"123 0 CURVE SMOOTH"
);
}
);
width = 599;
},
{
background = {
paths = (
{
closed = 1;
nodes = (
"127 0 OFFCURVE",
"152 17 OFFCURVE",
"174 17 CURVE SMOOTH",
"200 17 OFFCURVE",
"227 0 OFFCURVE",
"250 0 CURVE SMOOTH",
"262 0 OFFCURVE",
"280 6 OFFCURVE",
"314 42 CURVE SMOOTH",
"325 53 OFFCURVE",
"328 58 OFFCURVE",
"328 63 CURVE SMOOTH",
"328 68 OFFCURVE",
"325 70 OFFCURVE",
"320 70 CURVE SMOOTH",
"311 70 OFFCURVE",
"299 59 OFFCURVE",
"281 59 CURVE SMOOTH",
"268 59 OFFCURVE",
"255 62 OFFCURVE",
"240 68 CURVE",
"241 69 LINE",
"249 79 OFFCURVE",
"256 94 OFFCURVE",
"259 111 CURVE SMOOTH",
"294 313 LINE",
"353 311 LINE SMOOTH",
"371 310 OFFCURVE",
"389 306 OFFCURVE",
"402 306 CURVE SMOOTH",
"433 306 OFFCURVE",
"473 336 OFFCURVE",
"509 386 CURVE",
"509 387 LINE",
"465 380 OFFCURVE",
"418 377 OFFCURVE",
"379 377 CURVE SMOOTH",
"307 377 LINE",
"347 636 LINE",
"407 634 OFFCURVE",
"464 631 OFFCURVE",
"527 630 CURVE SMOOTH",
"559 629 OFFCURVE",
"620 677 OFFCURVE",
"620 702 CURVE SMOOTH",
"620 707 OFFCURVE",
"618 710 OFFCURVE",
"612 710 CURVE SMOOTH",
"606 710 OFFCURVE",
"583 700 OFFCURVE",
"519 700 CURVE SMOOTH",
"367 700 LINE SMOOTH",
"143 700 OFFCURVE",
"23 573 OFFCURVE",
"23 373 CURVE SMOOTH",
"23 353 OFFCURVE",
"25 333 OFFCURVE",
"28 313 CURVE",
"106 393 LINE",
"95 421 OFFCURVE",
"93 450 OFFCURVE",
"94 477 CURVE SMOOTH",
"98 580 OFFCURVE",
"168 635 OFFCURVE",
"267 635 CURVE SMOOTH",
"272 635 LINE",
"197 177 LINE SMOOTH",
"185 100 OFFCURVE",
"181 82 OFFCURVE",
"140 51 CURVE SMOOTH",
"130 43 OFFCURVE",
"118 21 OFFCURVE",
"118 8 CURVE SMOOTH",
"118 3 OFFCURVE",
"119 0 OFFCURVE",
"121 0 CURVE SMOOTH"
);
}
);
};
layerId = "0B1DFD06-3317-40CA-B510-4969A0718C16";
paths = (
{
closed = 1;
nodes = (
"131 0 OFFCURVE",
"149 17 OFFCURVE",
"174 17 CURVE SMOOTH",
"200 17 OFFCURVE",
"227 0 OFFCURVE",
"250 0 CURVE SMOOTH",
"262 0 OFFCURVE",
"281 5 OFFCURVE",
"315 41 CURVE SMOOTH",
"326 52 OFFCURVE",
"328 58 OFFCURVE",
"328 63 CURVE SMOOTH",
"328 67 OFFCURVE",
"325 70 OFFCURVE",
"321 70 CURVE SMOOTH",
"312 70 OFFCURVE",
"301 59 OFFCURVE",
"281 59 CURVE SMOOTH",
"268 59 OFFCURVE",
"255 62 OFFCURVE",
"240 68 CURVE",
"240 69 LINE",
"250 79 OFFCURVE",
"258 94 OFFCURVE",
"261 111 CURVE SMOOTH",
"296 313 LINE",
"353 311 LINE SMOOTH",
"371 310 OFFCURVE",
"389 306 OFFCURVE",
"402 306 CURVE SMOOTH",
"433 306 OFFCURVE",
"473 336 OFFCURVE",
"509 386 CURVE",
"509 387 LINE",
"465 380 OFFCURVE",
"418 377 OFFCURVE",
"379 377 CURVE SMOOTH",
"306 377 LINE",
"347 636 LINE",
"421 636 OFFCURVE",
"465 628 OFFCURVE",
"528 630 CURVE SMOOTH",
"559 631 OFFCURVE",
"620 677 OFFCURVE",
"620 702 CURVE SMOOTH",
"620 707 OFFCURVE",
"618 710 OFFCURVE",
"612 710 CURVE SMOOTH",
"606 710 OFFCURVE",
"583 700 OFFCURVE",
"519 700 CURVE SMOOTH",
"367 700 LINE SMOOTH",
"151 700 OFFCURVE",
"23 579 OFFCURVE",
"23 373 CURVE SMOOTH",
"23 355 OFFCURVE",
"25 335 OFFCURVE",
"28 313 CURVE",
"106 393 LINE",
"97 415 OFFCURVE",
"93 444 OFFCURVE",
"94 477 CURVE SMOOTH",
"97 576 OFFCURVE",
"161 635 OFFCURVE",
"267 635 CURVE SMOOTH",
"272 635 LINE",
"197 177 LINE SMOOTH",
"185 100 OFFCURVE",
"181 83 OFFCURVE",
"140 51 CURVE SMOOTH",
"126 40 OFFCURVE",
"118 22 OFFCURVE",
"118 9 CURVE SMOOTH",
"118 4 OFFCURVE",
"119 0 OFFCURVE",
"123 0 CURVE SMOOTH"
);
}
);
width = 579;
},
{
associatedMasterId = "0B1DFD06-3317-40CA-B510-4969A0718C16";
layerId = "33610075-13A3-43EA-B328-24050E2460C1";
width = 600;
}
);
note = F;
unicode = 0046;
},
{
glyphname = G;
lastChange = "2018-02-27 11:48:33 +0000";
layers = (
{
background = {
paths = (
{
closed = 1;
nodes = (
"312 0 OFFCURVE",
"361 17 OFFCURVE",
"413 51 CURVE",
"407 12 LINE SMOOTH",
"388 -110 OFFCURVE",
"375 -184 OFFCURVE",
"296 -184 CURVE SMOOTH",
"250 -184 OFFCURVE",
"220 -149 OFFCURVE",
"201 -73 CURVE",
"104 -168 LINE",
"134 -226 OFFCURVE",
"187 -258 OFFCURVE",
"254 -258 CURVE SMOOTH",
"388 -258 OFFCURVE",
"483 -152 OFFCURVE",
"520 71 CURVE",
"557 388 LINE",
"408 388 LINE SMOOTH",
"371 388 OFFCURVE",
"343 385 OFFCURVE",
"330 372 CURVE",
"305 355 OFFCURVE",
"278 312 OFFCURVE",
"263 262 CURVE",
"310 288 OFFCURVE",
"351 302 OFFCURVE",
"409 302 CURVE SMOOTH",
"456 302 LINE",
"430 153 LINE",
"384 110 OFFCURVE",
"347 95 OFFCURVE",
"315 95 CURVE SMOOTH",
"219 95 OFFCURVE",
"193 194 OFFCURVE",
"193 265 CURVE SMOOTH",
"193 417 OFFCURVE",
"248 634 OFFCURVE",
"419 634 CURVE SMOOTH",
"474 634 OFFCURVE",
"506 609 OFFCURVE",
"506 572 CURVE SMOOTH",
"506 562 OFFCURVE",
"503 550 OFFCURVE",
"496 540 CURVE",
"502 533 OFFCURVE",
"517 526 OFFCURVE",
"528 526 CURVE SMOOTH",
"553 526 OFFCURVE",
"563 541 OFFCURVE",
"570 555 CURVE SMOOTH",
"581 578 OFFCURVE",
"597 600 OFFCURVE",
"597 625 CURVE SMOOTH",
"597 672 OFFCURVE",
"536 710 OFFCURVE",
"443 710 CURVE SMOOTH",
"280 710 OFFCURVE",
"68 555 OFFCURVE",
"74 235 CURVE SMOOTH",
"76 101 OFFCURVE",
"151 0 OFFCURVE",
"262 0 CURVE SMOOTH"
);
}
);
};
layerId = "56450C88-1299-454A-B666-E6F9AF06B23F";
paths = (
{
closed = 1;
nodes = (
"393 -258 OFFCURVE",
"485 -145 OFFCURVE",
"520 71 CURVE",
"557 388 LINE",
"417 388 LINE SMOOTH",
"378 388 OFFCURVE",
"353 385 OFFCURVE",
"337 373 CURVE SMOOTH",
"309 352 OFFCURVE",
"285 310 OFFCURVE",
"272 267 CURVE",
"273 267 LINE",
"330 294 OFFCURVE",
"363 302 OFFCURVE",
"418 302 CURVE SMOOTH",
"456 302 LINE",
"430 153 LINE",
"398 112 OFFCURVE",
"358 95 OFFCURVE",
"315 95 CURVE SMOOTH",
"241 95 OFFCURVE",
"193 150 OFFCURVE",
"193 265 CURVE SMOOTH",
"193 417 OFFCURVE",
"259 634 OFFCURVE",
"420 634 CURVE SMOOTH",
"475 634 OFFCURVE",
"507 611 OFFCURVE",
"507 572 CURVE SMOOTH",
"507 562 OFFCURVE",
"504 550 OFFCURVE",
"497 540 CURVE",
"501 532 OFFCURVE",
"514 526 OFFCURVE",
"529 526 CURVE SMOOTH",
"552 526 OFFCURVE",
"566 543 OFFCURVE",
"573 557 CURVE SMOOTH",
"585 580 OFFCURVE",
"597 600 OFFCURVE",
"597 625 CURVE SMOOTH",
"597 672 OFFCURVE",
"537 710 OFFCURVE",
"444 710 CURVE SMOOTH",
"271 710 OFFCURVE",
"73 537 OFFCURVE",
"73 235 CURVE SMOOTH",
"73 94 OFFCURVE",
"149 0 OFFCURVE",
"262 0 CURVE SMOOTH",
"312 0 OFFCURVE",
"361 17 OFFCURVE",
"413 51 CURVE",
"407 12 LINE SMOOTH",
"384 -139 OFFCURVE",
"358 -184 OFFCURVE",
"296 -184 CURVE SMOOTH",
"246 -184 OFFCURVE",
"207 -146 OFFCURVE",
"191 -83 CURVE",
"104 -168 LINE",
"134 -226 OFFCURVE",
"187 -258 OFFCURVE",
"254 -258 CURVE SMOOTH"
);
}
);
width = 629;
},
{
background = {
paths = (
{
closed = 1;
nodes = (
"307 0 OFFCURVE",
"364 24 OFFCURVE",
"423 70 CURVE",
"412 0 LINE SMOOTH",
"393 -122 OFFCURVE",
"378 -206 OFFCURVE",
"285 -206 CURVE SMOOTH",
"239 -206 OFFCURVE",
"204 -175 OFFCURVE",
"183 -111 CURVE",
"111 -180 LINE",
"141 -233 OFFCURVE",
"185 -258 OFFCURVE",
"243 -258 CURVE SMOOTH",
"389 -258 OFFCURVE",
"465 -119 OFFCURVE",
"495 62 CURVE",
"532 379 LINE",
"399 379 LINE SMOOTH",
"366 379 OFFCURVE",
"344 375 OFFCURVE",
"331 365 CURVE SMOOTH",
"318 355 OFFCURVE",
"298 328 OFFCURVE",
"280 288 CURVE",
"317 304 OFFCURVE",
"356 311 OFFCURVE",
"400 311 CURVE SMOOTH",
"463 311 LINE",
"435 139 LINE",
"391 98 OFFCURVE",
"348 73 OFFCURVE",
"304 73 CURVE SMOOTH",
"197 73 OFFCURVE",
"168 194 OFFCURVE",
"168 265 CURVE SMOOTH",
"168 420 OFFCURVE",
"227 656 OFFCURVE",
"410 656 CURVE SMOOTH",
"463 656 OFFCURVE",
"513 632 OFFCURVE",
"513 581 CURVE SMOOTH",
"513 571 OFFCURVE",
"510 562 OFFCURVE",
"503 552 CURVE",
"509 549 OFFCURVE",
"515 548 OFFCURVE",
"519 548 CURVE SMOOTH",
"535 548 OFFCURVE",
"540 555 OFFCURVE",
"549 571 CURVE SMOOTH",
"560 591 OFFCURVE",
"572 612 OFFCURVE",
"572 634 CURVE SMOOTH",
"572 688 OFFCURVE",
"496 710 OFFCURVE",
"434 710 CURVE SMOOTH",
"278 710 OFFCURVE",
"81 552 OFFCURVE",
"81 235 CURVE SMOOTH",
"81 97 OFFCURVE",
"152 0 OFFCURVE",
"251 0 CURVE SMOOTH"
);
}
);
};
layerId = "0B1DFD06-3317-40CA-B510-4969A0718C16";
paths = (
{
closed = 1;
nodes = (
"368 -258 OFFCURVE",
"461 -140 OFFCURVE",
"493 61 CURVE",
"530 378 LINE",
"398 378 LINE SMOOTH",
"366 378 OFFCURVE",
"345 374 OFFCURVE",
"331 364 CURVE SMOOTH",
"319 355 OFFCURVE",
"299 329 OFFCURVE",
"281 290 CURVE",
"281 289 LINE",
"316 303 OFFCURVE",
"347 312 OFFCURVE",
"399 312 CURVE SMOOTH",
"463 312 LINE",
"435 138 LINE",
"391 97 OFFCURVE",
"347 70 OFFCURVE",
"302 70 CURVE SMOOTH",
"217 70 OFFCURVE",
"167 136 OFFCURVE",
"167 265 CURVE SMOOTH",
"167 420 OFFCURVE",
"237 656 OFFCURVE",
"411 656 CURVE SMOOTH",
"473 656 OFFCURVE",
"515 626 OFFCURVE",
"515 582 CURVE SMOOTH",
"515 572 OFFCURVE",
"512 562 OFFCURVE",
"505 552 CURVE",
"510 549 OFFCURVE",
"516 548 OFFCURVE",
"520 548 CURVE SMOOTH",
"535 548 OFFCURVE",
"540 555 OFFCURVE",
"549 572 CURVE SMOOTH",
"559 592 OFFCURVE",
"572 613 OFFCURVE",
"572 635 CURVE SMOOTH",
"572 689 OFFCURVE",
"495 710 OFFCURVE",
"435 710 CURVE SMOOTH",
"291 710 OFFCURVE",
"81 553 OFFCURVE",
"81 235 CURVE SMOOTH",
"81 94 OFFCURVE",
"149 0 OFFCURVE",
"250 0 CURVE SMOOTH",
"307 0 OFFCURVE",
"364 24 OFFCURVE",
"423 71 CURVE",
"412 -1 LINE SMOOTH",
"388 -153 OFFCURVE",
"355 -206 OFFCURVE",
"284 -206 CURVE SMOOTH",
"237 -206 OFFCURVE",
"202 -174 OFFCURVE",
"182 -114 CURVE",
"111 -181 LINE",
"140 -232 OFFCURVE",
"185 -258 OFFCURVE",
"242 -258 CURVE SMOOTH"
);
}
);
width = 609;
},
{
associatedMasterId = "0B1DFD06-3317-40CA-B510-4969A0718C16";
layerId = "33610075-13A3-43EA-B328-24050E2460C1";
width = 600;
}
);
note = G;
unicode = 0047;
},
{
glyphname = H;
lastChange = "2018-02-27 11:48:33 +0000";
layers = (
{
background = {
paths = (
{
closed = 1;
nodes = (
"574 -10 OFFCURVE",
"666 70 OFFCURVE",
"666 100 CURVE SMOOTH",
"666 117 OFFCURVE",
"663 135 OFFCURVE",
"659 148 CURVE",
"633 113 OFFCURVE",
"605 90 OFFCURVE",
"589 90 CURVE SMOOTH",
"580 90 OFFCURVE",
"582 103 OFFCURVE",
"586 131 CURVE SMOOTH",
"612 299 OFFCURVE",
"634 451 OFFCURVE",
"662 620 CURVE SMOOTH",
"693 808 OFFCURVE",
"751 871 OFFCURVE",
"846 871 CURVE SMOOTH",
"867 871 OFFCURVE",
"887 875 OFFCURVE",
"902 889 CURVE SMOOTH",
"916 902 OFFCURVE",
"924 917 OFFCURVE",
"924 930 CURVE SMOOTH",
"924 938 OFFCURVE",
"921 945 OFFCURVE",
"912 945 CURVE SMOOTH",
"895 945 OFFCURVE",
"884 935 OFFCURVE",
"862 936 CURVE SMOOTH",
"701 936 OFFCURVE",
"592 832 OFFCURVE",
"550 593 CURVE SMOOTH",
"519 415 LINE",
"338 415 LINE",
"362 565 LINE SMOOTH",
"369 612 OFFCURVE",
"384 666 OFFCURVE",
"400 710 CURVE",
"342 710 LINE SMOOTH",
"150 710 OFFCURVE",
"20 579 OFFCURVE",
"20 393 CURVE SMOOTH",
"20 361 OFFCURVE",
"24 329 OFFCURVE",
"29 290 CURVE",
"140 410 LINE",
"129 434 OFFCURVE",
"123 464 OFFCURVE",
"123 490 CURVE SMOOTH",
"123 572 OFFCURVE",
"174 620 OFFCURVE",
"261 620 CURVE SMOOTH",
"265 620 LINE",
"192 177 LINE SMOOTH",
"181 110 OFFCURVE",
"172 90 OFFCURVE",
"147 65 CURVE SMOOTH",
"127 45 OFFCURVE",
"115 26 OFFCURVE",
"115 13 CURVE SMOOTH",
"115 5 OFFCURVE",
"118 0 OFFCURVE",
"127 0 CURVE SMOOTH",
"146 0 OFFCURVE",
"164 16 OFFCURVE",
"186 16 CURVE SMOOTH",
"207 16 OFFCURVE",
"243 0 OFFCURVE",
"261 0 CURVE SMOOTH",
"287 0 OFFCURVE",
"312 10 OFFCURVE",
"345 52 CURVE SMOOTH",
"352 61 OFFCURVE",
"355 68 OFFCURVE",
"355 78 CURVE SMOOTH",
"355 85 OFFCURVE",
"350 90 OFFCURVE",
"342 90 CURVE SMOOTH",
"330 90 OFFCURVE",
"309 78 OFFCURVE",
"293 78 CURVE SMOOTH",
"283 78 OFFCURVE",
"277 79 OFFCURVE",
"268 83 CURVE",
"268 84 LINE",
"278 93 OFFCURVE",
"288 114 OFFCURVE",
"292 137 CURVE SMOOTH",
"325 328 LINE",
"505 328 LINE",
"472 105 LINE SMOOTH",
"460 24 OFFCURVE",
"483 -10 OFFCURVE",
"521 -10 CURVE SMOOTH"
);
}
);
};
layerId = "56450C88-1299-454A-B666-E6F9AF06B23F";
paths = (
{
closed = 1;
nodes = (
"574 -10 OFFCURVE",
"666 70 OFFCURVE",
"666 100 CURVE SMOOTH",
"666 117 OFFCURVE",
"663 135 OFFCURVE",
"659 148 CURVE",
"633 113 OFFCURVE",
"605 90 OFFCURVE",
"589 90 CURVE SMOOTH",
"580 90 OFFCURVE",
"582 103 OFFCURVE",
"586 131 CURVE SMOOTH",
"612 299 OFFCURVE",
"634 451 OFFCURVE",
"662 620 CURVE SMOOTH",
"693 808 OFFCURVE",
"751 871 OFFCURVE",
"846 871 CURVE SMOOTH",
"867 871 OFFCURVE",
"887 875 OFFCURVE",
"902 889 CURVE SMOOTH",
"916 902 OFFCURVE",
"924 917 OFFCURVE",
"924 930 CURVE SMOOTH",
"924 938 OFFCURVE",
"921 945 OFFCURVE",
"912 945 CURVE SMOOTH",
"904 945 OFFCURVE",
"895 936 OFFCURVE",
"862 936 CURVE SMOOTH",
"701 936 OFFCURVE",
"592 832 OFFCURVE",
"550 593 CURVE SMOOTH",
"519 415 LINE",
"338 415 LINE",
"362 565 LINE SMOOTH",
"369 612 OFFCURVE",
"384 666 OFFCURVE",
"400 710 CURVE",
"342 710 LINE SMOOTH",
"150 710 OFFCURVE",
"20 579 OFFCURVE",
"20 393 CURVE SMOOTH",
"20 361 OFFCURVE",
"24 329 OFFCURVE",
"29 290 CURVE",
"140 410 LINE",
"129 434 OFFCURVE",
"123 464 OFFCURVE",
"123 490 CURVE SMOOTH",
"123 572 OFFCURVE",
"174 620 OFFCURVE",
"261 620 CURVE SMOOTH",
"265 620 LINE",
"192 177 LINE SMOOTH",
"180 107 OFFCURVE",
"169 81 OFFCURVE",
"147 65 CURVE SMOOTH",
"125 49 OFFCURVE",
"115 30 OFFCURVE",
"115 10 CURVE SMOOTH",
"115 4 OFFCURVE",
"119 0 OFFCURVE",
"125 0 CURVE SMOOTH",
"140 0 OFFCURVE",
"154 16 OFFCURVE",
"186 16 CURVE SMOOTH",
"218 16 OFFCURVE",
"245 0 OFFCURVE",
"273 0 CURVE SMOOTH",
"300 0 OFFCURVE",
"318 13 OFFCURVE",
"345 52 CURVE SMOOTH",
"352 62 OFFCURVE",
"355 70 OFFCURVE",
"355 79 CURVE SMOOTH",
"355 85 OFFCURVE",
"351 89 OFFCURVE",
"345 89 CURVE SMOOTH",
"332 89 OFFCURVE",
"322 78 OFFCURVE",
"297 78 CURVE SMOOTH",
"287 78 OFFCURVE",
"277 79 OFFCURVE",
"268 83 CURVE",
"268 84 LINE",
"278 93 OFFCURVE",
"289 118 OFFCURVE",
"292 137 CURVE SMOOTH",
"325 328 LINE",
"505 328 LINE",
"472 105 LINE SMOOTH",
"460 24 OFFCURVE",
"483 -10 OFFCURVE",
"521 -10 CURVE SMOOTH"
);
}
);
width = 729;
},
{
background = {
paths = (
{
closed = 1;
nodes = (
"550 -10 OFFCURVE",
"638 67 OFFCURVE",
"638 90 CURVE SMOOTH",
"638 96 OFFCURVE",
"638 102 OFFCURVE",
"636 113 CURVE",
"614 96 OFFCURVE",
"592 77 OFFCURVE",
"570 77 CURVE SMOOTH",
"556 77 OFFCURVE",
"555 87 OFFCURVE",
"559 121 CURVE SMOOTH",
"579 289 OFFCURVE",
"611 463 OFFCURVE",
"638 633 CURVE SMOOTH",
"660 776 OFFCURVE",
"706 893 OFFCURVE",
"836 893 CURVE SMOOTH",
"864 893 OFFCURVE",
"898 918 OFFCURVE",
"898 938 CURVE SMOOTH",
"898 943 OFFCURVE",
"895 945 OFFCURVE",
"892 945 CURVE SMOOTH",
"891 945 OFFCURVE",
"889 945 OFFCURVE",
"883 942 CURVE SMOOTH",
"874 938 OFFCURVE",
"862 936 OFFCURVE",
"852 936 CURVE SMOOTH",
"660 936 OFFCURVE",
"585 774 OFFCURVE",
"557 603 CURVE SMOOTH",
"524 405 LINE",
"312 405 LINE",
"339 578 LINE SMOOTH",
"344 607 OFFCURVE",
"350 654 OFFCURVE",
"368 710 CURVE",
"332 710 LINE SMOOTH",
"149 710 OFFCURVE",
"27 587 OFFCURVE",
"27 403 CURVE SMOOTH",
"27 384 OFFCURVE",
"29 357 OFFCURVE",
"32 335 CURVE",
"112 423 LINE",
"101 450 OFFCURVE",
"97 470 OFFCURVE",
"97 500 CURVE SMOOTH",
"97 593 OFFCURVE",
"156 642 OFFCURVE",
"270 642 CURVE SMOOTH",
"275 642 LINE",
"199 174 LINE SMOOTH",
"187 98 OFFCURVE",
"185 83 OFFCURVE",
"144 51 CURVE SMOOTH",
"130 40 OFFCURVE",
"122 22 OFFCURVE",
"122 9 CURVE SMOOTH",
"122 4 OFFCURVE",
"123 0 OFFCURVE",
"127 0 CURVE SMOOTH",
"135 0 OFFCURVE",
"153 17 OFFCURVE",
"178 17 CURVE SMOOTH",
"204 17 OFFCURVE",
"231 0 OFFCURVE",
"254 0 CURVE SMOOTH",
"266 0 OFFCURVE",
"279 6 OFFCURVE",
"314 41 CURVE SMOOTH",
"325 52 OFFCURVE",
"327 58 OFFCURVE",
"327 63 CURVE SMOOTH",
"327 67 OFFCURVE",
"324 70 OFFCURVE",
"320 70 CURVE SMOOTH",
"311 70 OFFCURVE",
"300 59 OFFCURVE",
"280 59 CURVE SMOOTH",
"267 59 OFFCURVE",
"259 62 OFFCURVE",
"244 68 CURVE",
"244 69 LINE",
"253 79 OFFCURVE",
"260 94 OFFCURVE",
"263 111 CURVE SMOOTH",
"302 338 LINE",
"513 338 LINE",
"477 92 LINE SMOOTH",
"468 28 OFFCURVE",
"481 -10 OFFCURVE",
"511 -10 CURVE SMOOTH"
);
}
);
};
layerId = "0B1DFD06-3317-40CA-B510-4969A0718C16";
paths = (
{
closed = 1;
nodes = (
"550 -10 OFFCURVE",
"638 67 OFFCURVE",
"638 90 CURVE SMOOTH",
"638 96 OFFCURVE",
"638 102 OFFCURVE",
"636 113 CURVE",
"614 96 OFFCURVE",
"592 77 OFFCURVE",
"570 77 CURVE SMOOTH",
"556 77 OFFCURVE",
"555 87 OFFCURVE",
"559 121 CURVE SMOOTH",
"579 289 OFFCURVE",
"611 463 OFFCURVE",
"638 633 CURVE SMOOTH",
"660 776 OFFCURVE",
"706 893 OFFCURVE",
"836 893 CURVE SMOOTH",
"864 893 OFFCURVE",
"898 918 OFFCURVE",
"898 938 CURVE SMOOTH",
"898 943 OFFCURVE",
"895 945 OFFCURVE",
"892 945 CURVE SMOOTH",
"891 945 OFFCURVE",
"889 945 OFFCURVE",
"883 942 CURVE SMOOTH",
"874 938 OFFCURVE",
"862 936 OFFCURVE",
"852 936 CURVE SMOOTH",
"660 936 OFFCURVE",
"585 774 OFFCURVE",
"557 603 CURVE SMOOTH",
"524 405 LINE",
"312 405 LINE",
"339 578 LINE SMOOTH",
"344 607 OFFCURVE",
"350 654 OFFCURVE",
"368 710 CURVE",
"332 710 LINE SMOOTH",
"149 710 OFFCURVE",
"27 587 OFFCURVE",
"27 403 CURVE SMOOTH",
"27 384 OFFCURVE",
"29 357 OFFCURVE",
"32 335 CURVE",
"112 423 LINE",
"101 450 OFFCURVE",
"97 470 OFFCURVE",
"97 500 CURVE SMOOTH",
"97 593 OFFCURVE",
"156 642 OFFCURVE",
"270 642 CURVE SMOOTH",
"275 642 LINE",
"199 174 LINE SMOOTH",
"187 98 OFFCURVE",
"185 83 OFFCURVE",
"144 51 CURVE SMOOTH",
"130 40 OFFCURVE",
"122 22 OFFCURVE",
"122 9 CURVE SMOOTH",
"122 4 OFFCURVE",
"123 0 OFFCURVE",
"127 0 CURVE SMOOTH",
"135 0 OFFCURVE",
"153 17 OFFCURVE",
"178 17 CURVE SMOOTH",
"204 17 OFFCURVE",
"231 0 OFFCURVE",
"254 0 CURVE SMOOTH",
"266 0 OFFCURVE",
"279 6 OFFCURVE",
"314 41 CURVE SMOOTH",
"325 52 OFFCURVE",
"327 58 OFFCURVE",
"327 63 CURVE SMOOTH",
"327 67 OFFCURVE",
"324 70 OFFCURVE",
"320 70 CURVE SMOOTH",
"311 70 OFFCURVE",
"300 59 OFFCURVE",
"280 59 CURVE SMOOTH",
"267 59 OFFCURVE",
"259 62 OFFCURVE",
"244 68 CURVE",
"244 69 LINE",
"253 79 OFFCURVE",
"260 94 OFFCURVE",
"263 111 CURVE SMOOTH",
"302 338 LINE",
"513 338 LINE",
"477 92 LINE SMOOTH",
"468 28 OFFCURVE",
"481 -10 OFFCURVE",
"511 -10 CURVE SMOOTH"
);
}
);
width = 709;
},
{
associatedMasterId = "0B1DFD06-3317-40CA-B510-4969A0718C16";
layerId = "33610075-13A3-43EA-B328-24050E2460C1";
width = 600;
}
);
note = H;
unicode = 0048;
},
{
glyphname = I;
lastChange = "2018-02-27 11:48:33 +0000";
layers = (
{
background = {
paths = (
{
closed = 1;
nodes = (
"44 0 OFFCURVE",
"62 16 OFFCURVE",
"107 16 CURVE SMOOTH",
"128 16 OFFCURVE",
"169 0 OFFCURVE",
"187 0 CURVE SMOOTH",
"213 0 OFFCURVE",
"243 10 OFFCURVE",
"276 52 CURVE SMOOTH",
"283 61 OFFCURVE",
"286 68 OFFCURVE",
"286 78 CURVE SMOOTH",
"286 85 OFFCURVE",
"282 90 OFFCURVE",
"274 90 CURVE SMOOTH",
"260 90 OFFCURVE",
"243 78 OFFCURVE",
"219 78 CURVE SMOOTH",
"209 78 OFFCURVE",
"198 80 OFFCURVE",
"190 83 CURVE",
"190 84 LINE",
"203 97 OFFCURVE",
"210 119 OFFCURVE",
"213 140 CURVE SMOOTH",
"285 627 LINE",
"293 630 OFFCURVE",
"303 632 OFFCURVE",
"313 632 CURVE SMOOTH",
"337 632 OFFCURVE",
"351 620 OFFCURVE",
"365 620 CURVE SMOOTH",
"373 620 OFFCURVE",
"377 625 OFFCURVE",
"377 632 CURVE SMOOTH",
"377 642 OFFCURVE",
"374 649 OFFCURVE",
"367 658 CURVE SMOOTH",
"334 700 OFFCURVE",
"319 710 OFFCURVE",
"293 710 CURVE SMOOTH",
"275 710 OFFCURVE",
"189 692 OFFCURVE",
"158 692 CURVE SMOOTH",
"123 692 OFFCURVE",
"105 700 OFFCURVE",
"86 700 CURVE SMOOTH",
"77 700 OFFCURVE",
"74 696 OFFCURVE",
"74 688 CURVE SMOOTH",
"74 670 OFFCURVE",
"112 613 OFFCURVE",
"145 613 CURVE SMOOTH",
"157 613 OFFCURVE",
"169 615 OFFCURVE",
"180 617 CURVE",
"117 183 LINE SMOOTH",
"113 156 OFFCURVE",
"108 114 OFFCURVE",
"97 99 CURVE SMOOTH",
"92 92 OFFCURVE",
"84 89 OFFCURVE",
"71 85 CURVE SMOOTH",
"34 74 OFFCURVE",
"13 30 OFFCURVE",
"13 12 CURVE SMOOTH",
"13 4 OFFCURVE",
"16 0 OFFCURVE",
"25 0 CURVE SMOOTH"
);
}
);
};
layerId = "56450C88-1299-454A-B666-E6F9AF06B23F";
paths = (
{
closed = 1;
nodes = (
"38 0 OFFCURVE",
"52 16 OFFCURVE",
"111 16 CURVE SMOOTH",
"143 16 OFFCURVE",
"170 0 OFFCURVE",
"198 0 CURVE SMOOTH",
"225 0 OFFCURVE",
"250 13 OFFCURVE",
"276 52 CURVE SMOOTH",
"282 61 OFFCURVE",
"286 71 OFFCURVE",
"286 80 CURVE SMOOTH",
"286 86 OFFCURVE",
"282 89 OFFCURVE",
"276 89 CURVE SMOOTH",
"263 89 OFFCURVE",
"250 78 OFFCURVE",
"225 78 CURVE SMOOTH",
"211 78 OFFCURVE",
"200 80 OFFCURVE",
"193 83 CURVE",
"193 84 LINE",
"203 93 OFFCURVE",
"213 121 OFFCURVE",
"216 140 CURVE SMOOTH",
"284 627 LINE",
"293 630 OFFCURVE",
"304 632 OFFCURVE",
"314 632 CURVE SMOOTH",
"338 632 OFFCURVE",
"352 620 OFFCURVE",
"366 620 CURVE SMOOTH",
"374 620 OFFCURVE",
"378 623 OFFCURVE",
"378 630 CURVE SMOOTH",
"378 640 OFFCURVE",
"374 649 OFFCURVE",
"367 658 CURVE SMOOTH",
"334 700 OFFCURVE",
"320 710 OFFCURVE",
"294 710 CURVE SMOOTH",
"276 710 OFFCURVE",
"190 692 OFFCURVE",
"159 692 CURVE SMOOTH",
"124 692 OFFCURVE",
"104 700 OFFCURVE",
"85 700 CURVE SMOOTH",
"76 700 OFFCURVE",
"75 696 OFFCURVE",
"75 688 CURVE SMOOTH",
"75 670 OFFCURVE",
"112 613 OFFCURVE",
"145 613 CURVE SMOOTH",
"157 613 OFFCURVE",
"166 616 OFFCURVE",
"176 617 CURVE",
"115 177 LINE SMOOTH",
"110 143 OFFCURVE",
"105 105 OFFCURVE",
"91 95 CURVE SMOOTH",
"75 84 OFFCURVE",
"63 83 OFFCURVE",
"52 75 CURVE SMOOTH",
"30 59 OFFCURVE",
"13 30 OFFCURVE",
"13 10 CURVE SMOOTH",
"13 4 OFFCURVE",
"17 0 OFFCURVE",
"23 0 CURVE SMOOTH"
);
}
);
width = 371;
},
{
background = {
paths = (
{
closed = 1;
nodes = (
"48 0 OFFCURVE",
"71 16 OFFCURVE",
"110 16 CURVE SMOOTH",
"131 16 OFFCURVE",
"174 0 OFFCURVE",
"198 0 CURVE SMOOTH",
"218 0 OFFCURVE",
"239 13 OFFCURVE",
"265 40 CURVE SMOOTH",
"275 50 OFFCURVE",
"278 59 OFFCURVE",
"278 63 CURVE SMOOTH",
"278 67 OFFCURVE",
"276 70 OFFCURVE",
"272 70 CURVE SMOOTH",
"264 70 OFFCURVE",
"257 58 OFFCURVE",
"234 58 CURVE SMOOTH",
"213 58 OFFCURVE",
"195 64 OFFCURVE",
"176 66 CURVE",
"176 67 LINE",
"185 78 OFFCURVE",
"192 95 OFFCURVE",
"194 108 CURVE SMOOTH",
"275 637 LINE",
"292 640 OFFCURVE",
"305 642 OFFCURVE",
"317 642 CURVE SMOOTH",
"335 642 OFFCURVE",
"344 629 OFFCURVE",
"354 629 CURVE SMOOTH",
"359 629 OFFCURVE",
"362 634 OFFCURVE",
"362 641 CURVE SMOOTH",
"362 654 OFFCURVE",
"352 665 OFFCURVE",
"344 674 CURVE SMOOTH",
"324 696 OFFCURVE",
"317 700 OFFCURVE",
"293 700 CURVE SMOOTH",
"278 700 OFFCURVE",
"176 680 OFFCURVE",
"128 680 CURVE SMOOTH",
"109 680 OFFCURVE",
"104 686 OFFCURVE",
"95 686 CURVE SMOOTH",
"91 686 OFFCURVE",
"89 684 OFFCURVE",
"89 680 CURVE SMOOTH",
"89 665 OFFCURVE",
"130 623 OFFCURVE",
"154 623 CURVE SMOOTH",
"166 623 OFFCURVE",
"181 625 OFFCURVE",
"200 627 CURVE",
"128 164 LINE SMOOTH",
"120 111 OFFCURVE",
"115 85 OFFCURVE",
"97 74 CURVE SMOOTH",
"86 68 OFFCURVE",
"79 65 OFFCURVE",
"68 61 CURVE SMOOTH",
"46 53 OFFCURVE",
"34 31 OFFCURVE",
"29 8 CURVE SMOOTH",
"28 3 OFFCURVE",
"31 0 OFFCURVE",
"35 0 CURVE SMOOTH"
);
}
);
};
layerId = "0B1DFD06-3317-40CA-B510-4969A0718C16";
paths = (
{
closed = 1;
nodes = (
"48 0 OFFCURVE",
"71 16 OFFCURVE",
"110 16 CURVE SMOOTH",
"131 16 OFFCURVE",
"174 0 OFFCURVE",
"198 0 CURVE SMOOTH",
"218 0 OFFCURVE",
"239 13 OFFCURVE",
"265 40 CURVE SMOOTH",
"275 50 OFFCURVE",
"278 59 OFFCURVE",
"278 63 CURVE SMOOTH",
"278 67 OFFCURVE",
"276 70 OFFCURVE",
"272 70 CURVE SMOOTH",
"264 70 OFFCURVE",
"257 58 OFFCURVE",
"234 58 CURVE SMOOTH",
"213 58 OFFCURVE",
"195 64 OFFCURVE",
"176 66 CURVE",
"176 67 LINE",
"185 78 OFFCURVE",
"192 95 OFFCURVE",
"194 108 CURVE SMOOTH",
"275 637 LINE",
"292 640 OFFCURVE",
"305 642 OFFCURVE",
"317 642 CURVE SMOOTH",
"335 642 OFFCURVE",
"344 629 OFFCURVE",
"354 629 CURVE SMOOTH",
"359 629 OFFCURVE",
"362 634 OFFCURVE",
"362 641 CURVE SMOOTH",
"362 654 OFFCURVE",
"352 665 OFFCURVE",
"344 674 CURVE SMOOTH",
"324 696 OFFCURVE",
"317 700 OFFCURVE",
"293 700 CURVE SMOOTH",
"278 700 OFFCURVE",
"176 680 OFFCURVE",
"128 680 CURVE SMOOTH",
"109 680 OFFCURVE",
"104 686 OFFCURVE",
"95 686 CURVE SMOOTH",
"91 686 OFFCURVE",
"89 684 OFFCURVE",
"89 680 CURVE SMOOTH",
"89 665 OFFCURVE",
"130 623 OFFCURVE",
"154 623 CURVE SMOOTH",
"166 623 OFFCURVE",
"181 625 OFFCURVE",
"200 627 CURVE",
"128 164 LINE SMOOTH",
"120 111 OFFCURVE",
"115 85 OFFCURVE",
"97 74 CURVE SMOOTH",
"86 68 OFFCURVE",
"79 65 OFFCURVE",
"68 61 CURVE SMOOTH",
"46 53 OFFCURVE",
"34 31 OFFCURVE",
"29 8 CURVE SMOOTH",
"28 3 OFFCURVE",
"31 0 OFFCURVE",
"35 0 CURVE SMOOTH"
);
}
);
width = 362;
},
{
associatedMasterId = "0B1DFD06-3317-40CA-B510-4969A0718C16";
layerId = "33610075-13A3-43EA-B328-24050E2460C1";
width = 600;
}
);
note = I;
unicode = 0049;
},
{
glyphname = J;
lastChange = "2018-02-27 11:48:33 +0000";
layers = (
{
background = {
paths = (
{
closed = 1;
nodes = (
"205 -212 OFFCURVE",
"313 -89 OFFCURVE",
"349 146 CURVE SMOOTH",
"413 565 LINE SMOOTH",
"419 598 OFFCURVE",
"428 652 OFFCURVE",
"449 710 CURVE",
"390 710 LINE SMOOTH",
"197 710 OFFCURVE",
"67 579 OFFCURVE",
"67 393 CURVE SMOOTH",
"67 361 OFFCURVE",
"74 329 OFFCURVE",
"78 290 CURVE",
"188 410 LINE",
"176 440 OFFCURVE",
"170 459 OFFCURVE",
"170 490 CURVE SMOOTH",
"170 578 OFFCURVE",
"223 617 OFFCURVE",
"327 617 CURVE",
"318 617 LINE",
"229 87 LINE SMOOTH",
"208 -40 OFFCURVE",
"185 -136 OFFCURVE",
"109 -136 CURVE SMOOTH",
"57 -136 OFFCURVE",
"27 -86 OFFCURVE",
"25 15 CURVE",
"-86 -83 LINE",
"-59 -169 OFFCURVE",
"-12 -212 OFFCURVE",
"61 -212 CURVE SMOOTH"
);
}
);
};
layerId = "56450C88-1299-454A-B666-E6F9AF06B23F";
paths = (
{
closed = 1;
nodes = (
"208 -212 OFFCURVE",
"315 -79 OFFCURVE",
"349 146 CURVE SMOOTH",
"413 565 LINE SMOOTH",
"419 598 OFFCURVE",
"428 652 OFFCURVE",
"449 710 CURVE",
"396 710 LINE SMOOTH",
"189 710 OFFCURVE",
"67 589 OFFCURVE",
"67 385 CURVE SMOOTH",
"67 363 OFFCURVE",
"71 326 OFFCURVE",
"76 293 CURVE",
"185 402 LINE",
"174 426 OFFCURVE",
"167 455 OFFCURVE",
"168 489 CURVE SMOOTH",
"171 582 OFFCURVE",
"237 623 OFFCURVE",
"315 623 CURVE SMOOTH",
"319 623 LINE",
"229 87 LINE SMOOTH",
"201 -79 OFFCURVE",
"170 -136 OFFCURVE",
"109 -136 CURVE SMOOTH",
"56 -136 OFFCURVE",
"27 -84 OFFCURVE",
"25 15 CURVE",
"-86 -83 LINE",
"-61 -164 OFFCURVE",
"-7 -212 OFFCURVE",
"61 -212 CURVE SMOOTH"
);
}
);
width = 482;
},
{
background = {
paths = (
{
closed = 1;
nodes = (
"209 -212 OFFCURVE",
"291 -56 OFFCURVE",
"321 135 CURVE SMOOTH",
"389 577 LINE SMOOTH",
"394 608 OFFCURVE",
"402 655 OFFCURVE",
"421 710 CURVE",
"382 710 LINE SMOOTH",
"208 710 OFFCURVE",
"77 591 OFFCURVE",
"77 403 CURVE SMOOTH",
"77 385 OFFCURVE",
"78 363 OFFCURVE",
"82 335 CURVE",
"162 423 LINE",
"150 454 OFFCURVE",
"148 472 OFFCURVE",
"148 500 CURVE SMOOTH",
"148 588 OFFCURVE",
"199 640 OFFCURVE",
"320 640 CURVE SMOOTH",
"326 640 LINE",
"234 74 LINE SMOOTH",
"213 -50 OFFCURVE",
"190 -158 OFFCURVE",
"99 -158 CURVE SMOOTH",
"41 -158 OFFCURVE",
"6 -116 OFFCURVE",
"-1 -27 CURVE",
"-79 -96 LINE",
"-55 -174 OFFCURVE",
"-13 -212 OFFCURVE",
"51 -212 CURVE SMOOTH"
);
}
);
};
layerId = "0B1DFD06-3317-40CA-B510-4969A0718C16";
paths = (
{
closed = 1;
nodes = (
"196 -212 OFFCURVE",
"286 -93 OFFCURVE",
"321 135 CURVE SMOOTH",
"389 577 LINE SMOOTH",
"394 608 OFFCURVE",
"402 655 OFFCURVE",
"421 710 CURVE",
"382 710 LINE SMOOTH",
"199 710 OFFCURVE",
"77 587 OFFCURVE",
"77 403 CURVE SMOOTH",
"77 384 OFFCURVE",
"79 357 OFFCURVE",
"82 335 CURVE",
"162 423 LINE",
"153 447 OFFCURVE",
"148 473 OFFCURVE",
"148 500 CURVE SMOOTH",
"148 592 OFFCURVE",
"207 640 OFFCURVE",
"320 640 CURVE SMOOTH",
"326 640 LINE",
"236 74 LINE SMOOTH",
"209 -98 OFFCURVE",
"174 -158 OFFCURVE",
"100 -158 CURVE SMOOTH",
"41 -158 OFFCURVE",
"6 -113 OFFCURVE",
"0 -27 CURVE",
"-78 -96 LINE",
"-55 -172 OFFCURVE",
"-9 -212 OFFCURVE",
"56 -212 CURVE SMOOTH"
);
}
);
width = 462;
},
{
associatedMasterId = "0B1DFD06-3317-40CA-B510-4969A0718C16";
layerId = "33610075-13A3-43EA-B328-24050E2460C1";
width = 600;
}
);
note = J;
unicode = 004A;
},
{
glyphname = K;
lastChange = "2018-02-27 11:48:33 +0000";
layers = (
{
background = {
paths = (
{
closed = 1;
nodes = (
"138 -10 OFFCURVE",
"162 6 OFFCURVE",
"174 6 CURVE SMOOTH",
"195 6 OFFCURVE",
"231 -10 OFFCURVE",
"249 -10 CURVE SMOOTH",
"273 -10 OFFCURVE",
"297 2 OFFCURVE",
"310 18 CURVE SMOOTH",
"328 40 LINE",
"340 50 OFFCURVE",
"343 55 OFFCURVE",
"343 62 CURVE SMOOTH",
"343 73 OFFCURVE",
"334 82 OFFCURVE",
"319 82 CURVE SMOOTH",
"299 82 OFFCURVE",
"295 71 OFFCURVE",
"279 71 CURVE SMOOTH",
"267 71 OFFCURVE",
"261 73 OFFCURVE",
"246 76 CURVE",
"254 62 LINE",
"265 72 OFFCURVE",
"270 85 OFFCURVE",
"273 103 CURVE SMOOTH",
"308 311 LINE",
"378 142 LINE SMOOTH",
"423 35 OFFCURVE",
"464 -10 OFFCURVE",
"509 -10 CURVE SMOOTH",
"557 -10 OFFCURVE",
"634 73 OFFCURVE",
"634 118 CURVE SMOOTH",
"634 136 OFFCURVE",
"624 143 OFFCURVE",
"596 171 CURVE",
"577 120 OFFCURVE",
"554 97 OFFCURVE",
"535 97 CURVE SMOOTH",
"529 97 OFFCURVE",
"513 117 OFFCURVE",
"496 156 CURVE SMOOTH",
"389 406 LINE",
"437 527 OFFCURVE",
"526 615 OFFCURVE",
"578 615 CURVE SMOOTH",
"600 615 OFFCURVE",
"612 609 OFFCURVE",
"630 591 CURVE",
"711 690 LINE",
"681 703 OFFCURVE",
"660 710 OFFCURVE",
"628 710 CURVE SMOOTH",
"547 710 OFFCURVE",
"448 629 OFFCURVE",
"334 476 CURVE",
"348 565 LINE SMOOTH",
"353 598 OFFCURVE",
"365 652 OFFCURVE",
"386 710 CURVE",
"329 710 LINE SMOOTH",
"137 710 OFFCURVE",
"7 579 OFFCURVE",
"7 393 CURVE SMOOTH",
"7 361 OFFCURVE",
"11 329 OFFCURVE",
"16 290 CURVE",
"127 410 LINE",
"115 440 OFFCURVE",
"110 459 OFFCURVE",
"110 490 CURVE SMOOTH",
"110 578 OFFCURVE",
"162 618 OFFCURVE",
"265 618 CURVE",
"253 618 LINE",
"180 167 LINE SMOOTH",
"170 100 OFFCURVE",
"160 81 OFFCURVE",
"133 56 CURVE SMOOTH",
"100 25 OFFCURVE",
"92 -10 OFFCURVE",
"119 -10 CURVE SMOOTH"
);
}
);
};
layerId = "56450C88-1299-454A-B666-E6F9AF06B23F";
paths = (
{
closed = 1;
nodes = (
"547 -10 OFFCURVE",
"634 73 OFFCURVE",
"634 118 CURVE SMOOTH",
"634 136 OFFCURVE",
"624 143 OFFCURVE",
"596 171 CURVE",
"577 120 OFFCURVE",
"554 97 OFFCURVE",
"535 97 CURVE SMOOTH",
"519 97 OFFCURVE",
"507 116 OFFCURVE",
"490 156 CURVE SMOOTH",
"385 402 LINE",
"433 523 OFFCURVE",
"526 615 OFFCURVE",
"578 615 CURVE SMOOTH",
"600 615 OFFCURVE",
"612 609 OFFCURVE",
"630 591 CURVE",
"711 690 LINE",
"681 703 OFFCURVE",
"660 710 OFFCURVE",
"628 710 CURVE SMOOTH",
"527 710 OFFCURVE",
"446 619 OFFCURVE",
"332 466 CURVE",
"348 565 LINE SMOOTH",
"353 598 OFFCURVE",
"365 652 OFFCURVE",
"386 710 CURVE",
"329 710 LINE SMOOTH",
"137 710 OFFCURVE",
"7 579 OFFCURVE",
"7 393 CURVE SMOOTH",
"7 361 OFFCURVE",
"11 329 OFFCURVE",
"16 290 CURVE",
"127 410 LINE",
"116 434 OFFCURVE",
"110 464 OFFCURVE",
"110 490 CURVE SMOOTH",
"110 572 OFFCURVE",
"161 620 OFFCURVE",
"248 620 CURVE SMOOTH",
"254 620 LINE",
"182 177 LINE SMOOTH",
"171 110 OFFCURVE",
"161 90 OFFCURVE",
"136 65 CURVE SMOOTH",
"116 45 OFFCURVE",
"104 26 OFFCURVE",
"104 13 CURVE SMOOTH",
"104 5 OFFCURVE",
"107 0 OFFCURVE",
"116 0 CURVE SMOOTH",
"135 0 OFFCURVE",
"153 16 OFFCURVE",
"175 16 CURVE SMOOTH",
"196 16 OFFCURVE",
"232 0 OFFCURVE",
"250 0 CURVE SMOOTH",
"276 0 OFFCURVE",
"301 10 OFFCURVE",
"334 52 CURVE SMOOTH",
"341 61 OFFCURVE",
"344 68 OFFCURVE",
"344 78 CURVE SMOOTH",
"344 85 OFFCURVE",
"339 90 OFFCURVE",
"331 90 CURVE SMOOTH",
"319 90 OFFCURVE",
"301 78 OFFCURVE",
"285 78 CURVE SMOOTH",
"275 78 OFFCURVE",
"269 79 OFFCURVE",
"260 83 CURVE",
"260 84 LINE",
"270 93 OFFCURVE",
"275 114 OFFCURVE",
"279 137 CURVE SMOOTH",
"308 315 LINE",
"380 142 LINE SMOOTH",
"425 35 OFFCURVE",
"454 -10 OFFCURVE",
"499 -10 CURVE SMOOTH"
);
}
);
width = 685;
},
{
background = {
paths = (
{
closed = 1;
nodes = (
"535 -10 OFFCURVE",
"606 70 OFFCURVE",
"606 108 CURVE SMOOTH",
"606 119 OFFCURVE",
"601 126 OFFCURVE",
"590 136 CURVE",
"571 95 OFFCURVE",
"548 75 OFFCURVE",
"525 75 CURVE SMOOTH",
"504 75 OFFCURVE",
"491 90 OFFCURVE",
"470 141 CURVE SMOOTH",
"363 399 LINE",
"423 547 OFFCURVE",
"499 637 OFFCURVE",
"568 637 CURVE SMOOTH",
"587 637 OFFCURVE",
"604 634 OFFCURVE",
"620 621 CURVE",
"681 697 LINE",
"660 706 OFFCURVE",
"645 710 OFFCURVE",
"618 710 CURVE SMOOTH",
"511 710 OFFCURVE",
"447 651 OFFCURVE",
"299 413 CURVE",
"325 578 LINE SMOOTH",
"329 608 OFFCURVE",
"337 655 OFFCURVE",
"356 710 CURVE",
"319 710 LINE SMOOTH",
"136 710 OFFCURVE",
"14 587 OFFCURVE",
"14 403 CURVE SMOOTH",
"14 384 OFFCURVE",
"16 357 OFFCURVE",
"19 335 CURVE",
"99 423 LINE",
"88 450 OFFCURVE",
"84 470 OFFCURVE",
"84 500 CURVE SMOOTH",
"84 593 OFFCURVE",
"143 642 OFFCURVE",
"257 642 CURVE SMOOTH",
"262 642 LINE",
"186 174 LINE SMOOTH",
"174 98 OFFCURVE",
"172 83 OFFCURVE",
"131 51 CURVE SMOOTH",
"117 40 OFFCURVE",
"109 22 OFFCURVE",
"109 9 CURVE SMOOTH",
"109 4 OFFCURVE",
"110 0 OFFCURVE",
"114 0 CURVE SMOOTH",
"122 0 OFFCURVE",
"140 17 OFFCURVE",
"165 17 CURVE SMOOTH",
"191 17 OFFCURVE",
"218 0 OFFCURVE",
"241 0 CURVE SMOOTH",
"253 0 OFFCURVE",
"266 6 OFFCURVE",
"301 41 CURVE SMOOTH",
"312 52 OFFCURVE",
"314 58 OFFCURVE",
"314 63 CURVE SMOOTH",
"314 67 OFFCURVE",
"311 70 OFFCURVE",
"307 70 CURVE SMOOTH",
"298 70 OFFCURVE",
"287 59 OFFCURVE",
"267 59 CURVE SMOOTH",
"254 59 OFFCURVE",
"246 62 OFFCURVE",
"231 68 CURVE",
"231 69 LINE",
"240 79 OFFCURVE",
"247 94 OFFCURVE",
"250 111 CURVE SMOOTH",
"292 369 LINE",
"386 135 LINE SMOOTH",
"425 36 OFFCURVE",
"461 -10 OFFCURVE",
"500 -10 CURVE SMOOTH"
);
}
);
};
layerId = "0B1DFD06-3317-40CA-B510-4969A0718C16";
paths = (
{
closed = 1;
nodes = (
"535 -10 OFFCURVE",
"606 70 OFFCURVE",
"606 108 CURVE SMOOTH",
"606 119 OFFCURVE",
"601 126 OFFCURVE",
"590 136 CURVE",
"571 95 OFFCURVE",
"548 75 OFFCURVE",
"525 75 CURVE SMOOTH",
"504 75 OFFCURVE",
"491 90 OFFCURVE",
"470 141 CURVE SMOOTH",
"363 399 LINE",
"423 547 OFFCURVE",
"499 637 OFFCURVE",
"568 637 CURVE SMOOTH",
"587 637 OFFCURVE",
"604 634 OFFCURVE",
"620 621 CURVE",
"681 697 LINE",
"660 706 OFFCURVE",
"645 710 OFFCURVE",
"618 710 CURVE SMOOTH",
"511 710 OFFCURVE",
"447 651 OFFCURVE",
"299 413 CURVE",
"325 578 LINE SMOOTH",
"329 608 OFFCURVE",
"337 655 OFFCURVE",
"356 710 CURVE",
"319 710 LINE SMOOTH",
"136 710 OFFCURVE",
"14 587 OFFCURVE",
"14 403 CURVE SMOOTH",
"14 384 OFFCURVE",
"16 357 OFFCURVE",
"19 335 CURVE",
"99 423 LINE",
"88 450 OFFCURVE",
"84 470 OFFCURVE",
"84 500 CURVE SMOOTH",
"84 593 OFFCURVE",
"143 642 OFFCURVE",
"257 642 CURVE SMOOTH",
"262 642 LINE",
"186 174 LINE SMOOTH",
"174 98 OFFCURVE",
"172 83 OFFCURVE",
"131 51 CURVE SMOOTH",
"117 40 OFFCURVE",
"109 22 OFFCURVE",
"109 9 CURVE SMOOTH",
"109 4 OFFCURVE",
"110 0 OFFCURVE",
"114 0 CURVE SMOOTH",
"122 0 OFFCURVE",
"140 17 OFFCURVE",
"165 17 CURVE SMOOTH",
"191 17 OFFCURVE",
"218 0 OFFCURVE",
"241 0 CURVE SMOOTH",
"253 0 OFFCURVE",
"266 6 OFFCURVE",
"301 41 CURVE SMOOTH",
"312 52 OFFCURVE",
"314 58 OFFCURVE",
"314 63 CURVE SMOOTH",
"314 67 OFFCURVE",
"311 70 OFFCURVE",
"307 70 CURVE SMOOTH",
"298 70 OFFCURVE",
"287 59 OFFCURVE",
"267 59 CURVE SMOOTH",
"254 59 OFFCURVE",
"246 62 OFFCURVE",
"231 68 CURVE",
"231 69 LINE",
"240 79 OFFCURVE",
"247 94 OFFCURVE",
"250 111 CURVE SMOOTH",
"292 369 LINE",
"386 135 LINE SMOOTH",
"425 36 OFFCURVE",
"461 -10 OFFCURVE",
"500 -10 CURVE SMOOTH"
);
}
);
width = 663;
},
{
associatedMasterId = "0B1DFD06-3317-40CA-B510-4969A0718C16";
layerId = "33610075-13A3-43EA-B328-24050E2460C1";
width = 600;
}
);
note = K;
unicode = 004B;
},
{
glyphname = L;
lastChange = "2018-02-27 11:48:33 +0000";
layers = (
{
background = {
paths = (
{
closed = 1;
nodes = (
"394 0 OFFCURVE",
"512 95 OFFCURVE",
"512 137 CURVE SMOOTH",
"512 151 OFFCURVE",
"506 164 OFFCURVE",
"495 194 CURVE",
"449 128 OFFCURVE",
"406 98 OFFCURVE",
"328 98 CURVE SMOOTH",
"303 98 OFFCURVE",
"250 102 OFFCURVE",
"189 107 CURVE",
"218 146 OFFCURVE",
"233 187 OFFCURVE",
"242 243 CURVE SMOOTH",
"283 499 LINE SMOOTH",
"299 592 OFFCURVE",
"334 640 OFFCURVE",
"385 640 CURVE SMOOTH",
"411 640 OFFCURVE",
"419 626 OFFCURVE",
"439 626 CURVE SMOOTH",
"470 626 OFFCURVE",
"500 645 OFFCURVE",
"533 668 CURVE",
"509 693 OFFCURVE",
"464 710 OFFCURVE",
"426 710 CURVE SMOOTH",
"367 710 OFFCURVE",
"310 685 OFFCURVE",
"265 640 CURVE SMOOTH",
"211 586 OFFCURVE",
"186 541 OFFCURVE",
"175 481 CURVE SMOOTH",
"125 186 LINE SMOOTH",
"119 152 OFFCURVE",
"109 129 OFFCURVE",
"98 113 CURVE",
"91 114 OFFCURVE",
"83 115 OFFCURVE",
"76 115 CURVE SMOOTH",
"37 115 OFFCURVE",
"-6 60 OFFCURVE",
"-6 10 CURVE SMOOTH",
"-6 4 OFFCURVE",
"-2 0 OFFCURVE",
"3 0 CURVE SMOOTH",
"14 0 OFFCURVE",
"29 17 OFFCURVE",
"56 17 CURVE SMOOTH",
"128 17 OFFCURVE",
"225 0 OFFCURVE",
"307 0 CURVE SMOOTH"
);
}
);
};
layerId = "56450C88-1299-454A-B666-E6F9AF06B23F";
paths = (
{
closed = 1;
nodes = (
"12 0 OFFCURVE",
"24 17 OFFCURVE",
"61 17 CURVE SMOOTH",
"143 17 OFFCURVE",
"225 0 OFFCURVE",
"307 0 CURVE SMOOTH",
"404 0 OFFCURVE",
"512 95 OFFCURVE",
"512 137 CURVE SMOOTH",
"512 151 OFFCURVE",
"506 164 OFFCURVE",
"495 194 CURVE",
"447 120 OFFCURVE",
"409 98 OFFCURVE",
"328 98 CURVE SMOOTH",
"303 98 OFFCURVE",
"250 102 OFFCURVE",
"189 107 CURVE",
"218 146 OFFCURVE",
"233 187 OFFCURVE",
"242 243 CURVE SMOOTH",
"283 499 LINE SMOOTH",
"300 596 OFFCURVE",
"332 640 OFFCURVE",
"385 640 CURVE SMOOTH",
"411 640 OFFCURVE",
"419 626 OFFCURVE",
"439 626 CURVE SMOOTH",
"470 626 OFFCURVE",
"500 645 OFFCURVE",
"533 668 CURVE",
"509 693 OFFCURVE",
"464 710 OFFCURVE",
"426 710 CURVE SMOOTH",
"367 710 OFFCURVE",
"310 685 OFFCURVE",
"265 640 CURVE SMOOTH",
"211 586 OFFCURVE",
"183 541 OFFCURVE",
"173 481 CURVE SMOOTH",
"126 186 LINE SMOOTH",
"121 152 OFFCURVE",
"109 129 OFFCURVE",
"98 113 CURVE",
"93 113 OFFCURVE",
"83 114 OFFCURVE",
"76 114 CURVE SMOOTH",
"37 114 OFFCURVE",
"-6 60 OFFCURVE",
"-6 10 CURVE SMOOTH",
"-6 4 OFFCURVE",
"-4 0 OFFCURVE",
"1 0 CURVE SMOOTH"
);
}
);
width = 540;
},
{
background = {
paths = (
{
closed = 1;
nodes = (
"19 0 OFFCURVE",
"25 17 OFFCURVE",
"55 17 CURVE SMOOTH",
"86 17 OFFCURVE",
"272 0 OFFCURVE",
"296 0 CURVE SMOOTH",
"378 0 OFFCURVE",
"484 83 OFFCURVE",
"484 123 CURVE SMOOTH",
"484 130 OFFCURVE",
"481 138 OFFCURVE",
"478 148 CURVE",
"433 96 OFFCURVE",
"382 72 OFFCURVE",
"316 72 CURVE SMOOTH",
"286 72 OFFCURVE",
"244 75 OFFCURVE",
"159 83 CURVE",
"179 107 OFFCURVE",
"200 143 OFFCURVE",
"216 236 CURVE SMOOTH",
"262 511 LINE SMOOTH",
"279 610 OFFCURVE",
"316 662 OFFCURVE",
"378 662 CURVE SMOOTH",
"410 662 OFFCURVE",
"418 652 OFFCURVE",
"435 652 CURVE SMOOTH",
"450 652 OFFCURVE",
"479 664 OFFCURVE",
"504 681 CURVE",
"478 700 OFFCURVE",
"449 710 OFFCURVE",
"419 710 CURVE SMOOTH",
"363 710 OFFCURVE",
"310 687 OFFCURVE",
"267 642 CURVE SMOOTH",
"211 583 OFFCURVE",
"196 552 OFFCURVE",
"185 491 CURVE SMOOTH",
"130 178 LINE SMOOTH",
"123 137 OFFCURVE",
"111 104 OFFCURVE",
"93 87 CURVE",
"88 87 OFFCURVE",
"77 88 OFFCURVE",
"70 88 CURVE SMOOTH",
"38 88 OFFCURVE",
"0 37 OFFCURVE",
"0 8 CURVE SMOOTH",
"0 4 OFFCURVE",
"2 0 OFFCURVE",
"6 0 CURVE SMOOTH"
);
}
);
};
layerId = "0B1DFD06-3317-40CA-B510-4969A0718C16";
paths = (
{
closed = 1;
nodes = (
"19 0 OFFCURVE",
"25 17 OFFCURVE",
"55 17 CURVE SMOOTH",
"86 17 OFFCURVE",
"272 0 OFFCURVE",
"296 0 CURVE SMOOTH",
"378 0 OFFCURVE",
"484 83 OFFCURVE",
"484 123 CURVE SMOOTH",
"484 130 OFFCURVE",
"481 138 OFFCURVE",
"478 148 CURVE",
"433 96 OFFCURVE",
"382 72 OFFCURVE",
"316 72 CURVE SMOOTH",
"286 72 OFFCURVE",
"244 75 OFFCURVE",
"159 83 CURVE",
"179 107 OFFCURVE",
"200 143 OFFCURVE",
"216 236 CURVE SMOOTH",
"262 511 LINE SMOOTH",
"279 610 OFFCURVE",
"316 662 OFFCURVE",
"378 662 CURVE SMOOTH",
"410 662 OFFCURVE",
"418 652 OFFCURVE",
"435 652 CURVE SMOOTH",
"450 652 OFFCURVE",
"479 664 OFFCURVE",
"504 681 CURVE",
"478 700 OFFCURVE",
"449 710 OFFCURVE",
"419 710 CURVE SMOOTH",
"363 710 OFFCURVE",
"310 687 OFFCURVE",
"267 642 CURVE SMOOTH",
"213 585 OFFCURVE",
"197 555 OFFCURVE",
"185 491 CURVE SMOOTH",
"130 178 LINE SMOOTH",
"123 137 OFFCURVE",
"111 104 OFFCURVE",
"93 87 CURVE",
"88 87 OFFCURVE",
"77 88 OFFCURVE",
"70 88 CURVE SMOOTH",
"38 88 OFFCURVE",
"0 37 OFFCURVE",
"0 8 CURVE SMOOTH",
"0 4 OFFCURVE",
"2 0 OFFCURVE",
"6 0 CURVE SMOOTH"
);
}
);
width = 519;
},
{
associatedMasterId = "0B1DFD06-3317-40CA-B510-4969A0718C16";
layerId = "33610075-13A3-43EA-B328-24050E2460C1";
width = 600;
}
);
note = L;
unicode = 004C;
},
{
glyphname = M;
lastChange = "2018-02-27 11:48:33 +0000";
layers = (
{
background = {
paths = (
{
closed = 1;
nodes = (
"124 0 OFFCURVE",
"142 16 OFFCURVE",
"164 16 CURVE SMOOTH",
"185 16 OFFCURVE",
"217 0 OFFCURVE",
"235 0 CURVE SMOOTH",
"258 0 OFFCURVE",
"281 7 OFFCURVE",
"312 51 CURVE SMOOTH",
"319 61 OFFCURVE",
"323 71 OFFCURVE",
"323 80 CURVE SMOOTH",
"323 86 OFFCURVE",
"319 90 OFFCURVE",
"313 90 CURVE SMOOTH",
"301 90 OFFCURVE",
"281 78 OFFCURVE",
"265 78 CURVE SMOOTH",
"255 78 OFFCURVE",
"249 79 OFFCURVE",
"240 83 CURVE",
"240 84 LINE",
"251 96 OFFCURVE",
"256 121 OFFCURVE",
"262 149 CURVE SMOOTH",
"320 436 LINE",
"321 435 LINE",
"330 392 LINE SMOOTH",
"350 298 OFFCURVE",
"401 169 OFFCURVE",
"395 30 CURVE",
"396 30 LINE",
"493 145 LINE",
"532 244 OFFCURVE",
"597 371 OFFCURVE",
"652 459 CURVE",
"653 459 LINE",
"640 357 OFFCURVE",
"625 211 OFFCURVE",
"615 107 CURVE SMOOTH",
"613 90 OFFCURVE",
"603 84 OFFCURVE",
"578 63 CURVE SMOOTH",
"556 45 OFFCURVE",
"546 26 OFFCURVE",
"546 13 CURVE SMOOTH",
"546 5 OFFCURVE",
"549 0 OFFCURVE",
"558 0 CURVE SMOOTH",
"577 0 OFFCURVE",
"595 16 OFFCURVE",
"617 16 CURVE SMOOTH",
"638 16 OFFCURVE",
"686 0 OFFCURVE",
"704 0 CURVE SMOOTH",
"730 0 OFFCURVE",
"755 10 OFFCURVE",
"788 52 CURVE SMOOTH",
"795 61 OFFCURVE",
"798 68 OFFCURVE",
"798 78 CURVE SMOOTH",
"798 85 OFFCURVE",
"793 90 OFFCURVE",
"785 90 CURVE SMOOTH",
"773 90 OFFCURVE",
"755 78 OFFCURVE",
"739 78 CURVE SMOOTH",
"729 78 OFFCURVE",
"711 79 OFFCURVE",
"702 83 CURVE",
"702 84 LINE",
"712 93 OFFCURVE",
"723 124 OFFCURVE",
"726 147 CURVE SMOOTH",
"756 374 OFFCURVE",
"765 634 OFFCURVE",
"802 740 CURVE",
"801 740 LINE",
"677 661 LINE",
"614 524 OFFCURVE",
"536 386 OFFCURVE",
"468 263 CURVE",
"467 269 OFFCURVE",
"463 286 OFFCURVE",
"460 297 CURVE SMOOTH",
"428 431 LINE SMOOTH",
"401 543 OFFCURVE",
"392 613 OFFCURVE",
"392 664 CURVE SMOOTH",
"392 678 OFFCURVE",
"393 696 OFFCURVE",
"394 710 CURVE",
"339 710 LINE SMOOTH",
"147 710 OFFCURVE",
"17 579 OFFCURVE",
"17 393 CURVE SMOOTH",
"17 361 OFFCURVE",
"21 329 OFFCURVE",
"26 290 CURVE",
"137 410 LINE",
"126 434 OFFCURVE",
"120 464 OFFCURVE",
"120 490 CURVE SMOOTH",
"120 572 OFFCURVE",
"171 620 OFFCURVE",
"258 620 CURVE SMOOTH",
"269 620 LINE",
"174 169 LINE SMOOTH",
"160 102 OFFCURVE",
"150 90 OFFCURVE",
"125 65 CURVE SMOOTH",
"105 45 OFFCURVE",
"93 26 OFFCURVE",
"93 13 CURVE SMOOTH",
"93 5 OFFCURVE",
"96 0 OFFCURVE",
"105 0 CURVE SMOOTH"
);
}
);
};
layerId = "56450C88-1299-454A-B666-E6F9AF06B23F";
paths = (
{
closed = 1;
nodes = (
"118 0 OFFCURVE",
"132 16 OFFCURVE",
"164 16 CURVE SMOOTH",
"196 16 OFFCURVE",
"213 0 OFFCURVE",
"241 0 CURVE SMOOTH",
"268 0 OFFCURVE",
"286 13 OFFCURVE",
"313 52 CURVE SMOOTH",
"320 62 OFFCURVE",
"323 71 OFFCURVE",
"323 80 CURVE SMOOTH",
"323 86 OFFCURVE",
"319 89 OFFCURVE",
"313 89 CURVE SMOOTH",
"300 89 OFFCURVE",
"290 78 OFFCURVE",
"265 78 CURVE SMOOTH",
"255 78 OFFCURVE",
"245 79 OFFCURVE",
"236 83 CURVE",
"236 84 LINE",
"246 93 OFFCURVE",
"255 115 OFFCURVE",
"259 134 CURVE SMOOTH",
"320 436 LINE",
"321 435 LINE",
"330 392 LINE SMOOTH",
"350 298 OFFCURVE",
"401 169 OFFCURVE",
"395 30 CURVE",
"396 30 LINE",
"493 145 LINE",
"532 244 OFFCURVE",
"597 371 OFFCURVE",
"652 459 CURVE",
"653 459 LINE",
"640 357 OFFCURVE",
"625 211 OFFCURVE",
"615 107 CURVE SMOOTH",
"613 85 OFFCURVE",
"590 76 OFFCURVE",
"575 64 CURVE SMOOTH",
"555 48 OFFCURVE",
"546 30 OFFCURVE",
"546 10 CURVE SMOOTH",
"546 4 OFFCURVE",
"550 0 OFFCURVE",
"556 0 CURVE SMOOTH",
"571 0 OFFCURVE",
"586 16 OFFCURVE",
"623 16 CURVE SMOOTH",
"655 16 OFFCURVE",
"682 0 OFFCURVE",
"710 0 CURVE SMOOTH",
"737 0 OFFCURVE",
"762 13 OFFCURVE",
"788 52 CURVE SMOOTH",
"794 61 OFFCURVE",
"798 71 OFFCURVE",
"798 80 CURVE SMOOTH",
"798 86 OFFCURVE",
"794 89 OFFCURVE",
"788 89 CURVE SMOOTH",
"775 89 OFFCURVE",
"762 78 OFFCURVE",
"737 78 CURVE SMOOTH",
"723 78 OFFCURVE",
"712 80 OFFCURVE",
"705 83 CURVE",
"705 84 LINE",
"715 93 OFFCURVE",
"724 126 OFFCURVE",
"726 147 CURVE SMOOTH",
"753 375 OFFCURVE",
"766 634 OFFCURVE",
"802 740 CURVE",
"801 740 LINE",
"677 661 LINE",
"614 524 OFFCURVE",
"536 386 OFFCURVE",
"468 263 CURVE",
"467 269 OFFCURVE",
"463 286 OFFCURVE",
"460 297 CURVE SMOOTH",
"428 431 LINE SMOOTH",
"401 543 OFFCURVE",
"392 613 OFFCURVE",
"392 664 CURVE SMOOTH",
"392 678 OFFCURVE",
"393 696 OFFCURVE",
"394 710 CURVE",
"339 710 LINE SMOOTH",
"147 710 OFFCURVE",
"17 579 OFFCURVE",
"17 393 CURVE SMOOTH",
"17 361 OFFCURVE",
"21 329 OFFCURVE",
"26 290 CURVE",
"137 410 LINE",
"126 434 OFFCURVE",
"120 464 OFFCURVE",
"120 490 CURVE SMOOTH",
"120 572 OFFCURVE",
"171 620 OFFCURVE",
"258 620 CURVE SMOOTH",
"269 620 LINE",
"174 169 LINE SMOOTH",
"159 99 OFFCURVE",
"147 81 OFFCURVE",
"125 65 CURVE SMOOTH",
"103 49 OFFCURVE",
"93 30 OFFCURVE",
"93 10 CURVE SMOOTH",
"93 4 OFFCURVE",
"97 0 OFFCURVE",
"103 0 CURVE SMOOTH"
);
}
);
width = 847;
},
{
background = {
paths = (
{
closed = 1;
nodes = (
"165 89 OFFCURVE",
"160 83 OFFCURVE",
"119 51 CURVE SMOOTH",
"105 40 OFFCURVE",
"97 22 OFFCURVE",
"97 9 CURVE SMOOTH",
"97 4 OFFCURVE",
"98 0 OFFCURVE",
"102 0 CURVE SMOOTH",
"110 0 OFFCURVE",
"128 17 OFFCURVE",
"153 17 CURVE SMOOTH",
"179 17 OFFCURVE",
"197 0 OFFCURVE",
"220 0 CURVE SMOOTH",
"232 0 OFFCURVE",
"245 6 OFFCURVE",
"280 41 CURVE SMOOTH",
"291 52 OFFCURVE",
"293 58 OFFCURVE",
"293 63 CURVE SMOOTH",
"293 67 OFFCURVE",
"290 70 OFFCURVE",
"286 70 CURVE SMOOTH",
"277 70 OFFCURVE",
"271 59 OFFCURVE",
"251 59 CURVE SMOOTH",
"238 59 OFFCURVE",
"225 62 OFFCURVE",
"210 68 CURVE",
"210 69 LINE",
"219 79 OFFCURVE",
"226 94 OFFCURVE",
"229 111 CURVE SMOOTH",
"311 522 LINE",
"312 522 LINE",
"333 416 LINE SMOOTH",
"358 292 OFFCURVE",
"396 158 OFFCURVE",
"394 52 CURVE",
"397 52 LINE",
"466 138 LINE",
"508 247 OFFCURVE",
"593 414 OFFCURVE",
"665 533 CURVE",
"666 533 LINE",
"651 407 OFFCURVE",
"637 291 OFFCURVE",
"619 114 CURVE SMOOTH",
"616 87 OFFCURVE",
"603 73 OFFCURVE",
"572 51 CURVE SMOOTH",
"558 41 OFFCURVE",
"548 22 OFFCURVE",
"548 9 CURVE SMOOTH",
"548 4 OFFCURVE",
"549 0 OFFCURVE",
"553 0 CURVE SMOOTH",
"561 0 OFFCURVE",
"589 17 OFFCURVE",
"614 17 CURVE SMOOTH",
"640 17 OFFCURVE",
"677 0 OFFCURVE",
"700 0 CURVE SMOOTH",
"712 0 OFFCURVE",
"725 6 OFFCURVE",
"760 41 CURVE SMOOTH",
"771 52 OFFCURVE",
"773 58 OFFCURVE",
"773 63 CURVE SMOOTH",
"773 67 OFFCURVE",
"770 70 OFFCURVE",
"766 70 CURVE SMOOTH",
"757 70 OFFCURVE",
"743 59 OFFCURVE",
"721 59 CURVE SMOOTH",
"708 59 OFFCURVE",
"693 62 OFFCURVE",
"678 68 CURVE",
"678 69 LINE",
"687 79 OFFCURVE",
"694 94 OFFCURVE",
"697 111 CURVE SMOOTH",
"731 327 OFFCURVE",
"743 600 OFFCURVE",
"773 734 CURVE",
"772 734 LINE",
"681 665 LINE",
"608 517 OFFCURVE",
"527 367 OFFCURVE",
"451 217 CURVE",
"448 243 OFFCURVE",
"444 263 OFFCURVE",
"438 291 CURVE SMOOTH",
"406 438 LINE SMOOTH",
"381 553 OFFCURVE",
"367 623 OFFCURVE",
"367 674 CURVE SMOOTH",
"367 682 OFFCURVE",
"368 700 OFFCURVE",
"371 710 CURVE",
"332 710 LINE SMOOTH",
"149 710 OFFCURVE",
"27 587 OFFCURVE",
"27 403 CURVE SMOOTH",
"27 384 OFFCURVE",
"29 357 OFFCURVE",
"32 335 CURVE",
"112 423 LINE",
"101 450 OFFCURVE",
"97 470 OFFCURVE",
"97 500 CURVE SMOOTH",
"97 593 OFFCURVE",
"156 642 OFFCURVE",
"270 642 CURVE SMOOTH",
"282 642 LINE",
"178 150 LINE SMOOTH"
);
}
);
};
layerId = "0B1DFD06-3317-40CA-B510-4969A0718C16";
paths = (
{
closed = 1;
nodes = (
"110 0 OFFCURVE",
"128 17 OFFCURVE",
"153 17 CURVE SMOOTH",
"179 17 OFFCURVE",
"197 0 OFFCURVE",
"220 0 CURVE SMOOTH",
"232 0 OFFCURVE",
"245 6 OFFCURVE",
"280 41 CURVE SMOOTH",
"291 52 OFFCURVE",
"293 58 OFFCURVE",
"293 63 CURVE SMOOTH",
"293 67 OFFCURVE",
"290 70 OFFCURVE",
"286 70 CURVE SMOOTH",
"277 70 OFFCURVE",
"271 59 OFFCURVE",
"251 59 CURVE SMOOTH",
"238 59 OFFCURVE",
"225 62 OFFCURVE",
"210 68 CURVE",
"210 69 LINE",
"219 79 OFFCURVE",
"226 94 OFFCURVE",
"229 111 CURVE SMOOTH",
"312 518 LINE",
"313 518 LINE",
"333 416 LINE SMOOTH",
"357 292 OFFCURVE",
"396 158 OFFCURVE",
"394 52 CURVE",
"397 52 LINE",
"466 138 LINE",
"508 247 OFFCURVE",
"595 412 OFFCURVE",
"667 533 CURVE",
"668 533 LINE",
"653 407 OFFCURVE",
"641 291 OFFCURVE",
"621 114 CURVE SMOOTH",
"618 87 OFFCURVE",
"603 73 OFFCURVE",
"572 51 CURVE SMOOTH",
"558 41 OFFCURVE",
"548 22 OFFCURVE",
"548 9 CURVE SMOOTH",
"548 4 OFFCURVE",
"549 0 OFFCURVE",
"553 0 CURVE SMOOTH",
"561 0 OFFCURVE",
"589 17 OFFCURVE",
"614 17 CURVE SMOOTH",
"640 17 OFFCURVE",
"677 0 OFFCURVE",
"700 0 CURVE SMOOTH",
"712 0 OFFCURVE",
"725 6 OFFCURVE",
"760 41 CURVE SMOOTH",
"771 52 OFFCURVE",
"773 58 OFFCURVE",
"773 63 CURVE SMOOTH",
"773 67 OFFCURVE",
"770 70 OFFCURVE",
"766 70 CURVE SMOOTH",
"757 70 OFFCURVE",
"743 59 OFFCURVE",
"721 59 CURVE SMOOTH",
"708 59 OFFCURVE",
"693 62 OFFCURVE",
"678 68 CURVE",
"678 69 LINE",
"687 79 OFFCURVE",
"694 94 OFFCURVE",
"697 111 CURVE SMOOTH",
"731 327 OFFCURVE",
"743 600 OFFCURVE",
"773 734 CURVE",
"772 734 LINE",
"681 665 LINE",
"608 517 OFFCURVE",
"527 367 OFFCURVE",
"451 217 CURVE",
"448 243 OFFCURVE",
"444 263 OFFCURVE",
"438 291 CURVE SMOOTH",
"406 438 LINE SMOOTH",
"381 553 OFFCURVE",
"367 623 OFFCURVE",
"367 674 CURVE SMOOTH",
"367 682 OFFCURVE",
"368 700 OFFCURVE",
"371 710 CURVE",
"332 710 LINE SMOOTH",
"149 710 OFFCURVE",
"27 587 OFFCURVE",
"27 403 CURVE SMOOTH",
"27 384 OFFCURVE",
"29 357 OFFCURVE",
"32 335 CURVE",
"112 423 LINE",
"101 450 OFFCURVE",
"97 470 OFFCURVE",
"97 500 CURVE SMOOTH",
"97 593 OFFCURVE",
"156 642 OFFCURVE",
"270 642 CURVE SMOOTH",
"282 642 LINE",
"178 150 LINE SMOOTH",
"165 89 OFFCURVE",
"160 83 OFFCURVE",
"119 51 CURVE SMOOTH",
"105 40 OFFCURVE",
"97 22 OFFCURVE",
"97 9 CURVE SMOOTH",
"97 4 OFFCURVE",
"98 0 OFFCURVE",
"102 0 CURVE SMOOTH"
);
}
);
width = 825;
},
{
associatedMasterId = "0B1DFD06-3317-40CA-B510-4969A0718C16";
layerId = "33610075-13A3-43EA-B328-24050E2460C1";
width = 600;
}
);
note = M;
unicode = 004D;
},
{
glyphname = N;
lastChange = "2018-02-27 11:48:33 +0000";
layers = (
{
background = {
paths = (
{
closed = 1;
nodes = (
"554 -10 OFFCURVE",
"608 62 OFFCURVE",
"618 120 CURVE SMOOTH",
"694 558 LINE SMOOTH",
"717 693 OFFCURVE",
"737 761 OFFCURVE",
"757 798 CURVE SMOOTH",
"780 841 OFFCURVE",
"804 860 OFFCURVE",
"834 860 CURVE SMOOTH",
"860 860 OFFCURVE",
"878 846 OFFCURVE",
"901 824 CURVE",
"995 930 LINE",
"961 944 OFFCURVE",
"932 954 OFFCURVE",
"898 954 CURVE SMOOTH",
"828 954 OFFCURVE",
"767 917 OFFCURVE",
"706 835 CURVE SMOOTH",
"652 763 OFFCURVE",
"610 639 OFFCURVE",
"585 482 CURVE SMOOTH",
"549 259 LINE",
"548 259 LINE",
"539 280 OFFCURVE",
"529 299 OFFCURVE",
"519 319 CURVE SMOOTH",
"467 424 LINE SMOOTH",
"417 525 OFFCURVE",
"385 587 OFFCURVE",
"385 662 CURVE SMOOTH",
"385 680 OFFCURVE",
"387 693 OFFCURVE",
"393 710 CURVE",
"338 710 LINE SMOOTH",
"146 710 OFFCURVE",
"16 579 OFFCURVE",
"16 393 CURVE SMOOTH",
"16 361 OFFCURVE",
"20 329 OFFCURVE",
"25 290 CURVE",
"136 410 LINE",
"125 434 OFFCURVE",
"119 464 OFFCURVE",
"119 490 CURVE SMOOTH",
"119 572 OFFCURVE",
"170 620 OFFCURVE",
"257 620 CURVE SMOOTH",
"267 620 LINE",
"192 177 LINE SMOOTH",
"181 110 OFFCURVE",
"172 90 OFFCURVE",
"147 65 CURVE SMOOTH",
"127 45 OFFCURVE",
"115 26 OFFCURVE",
"115 13 CURVE SMOOTH",
"115 5 OFFCURVE",
"118 0 OFFCURVE",
"127 0 CURVE SMOOTH",
"146 0 OFFCURVE",
"164 16 OFFCURVE",
"186 16 CURVE SMOOTH",
"207 16 OFFCURVE",
"239 0 OFFCURVE",
"257 0 CURVE SMOOTH",
"283 0 OFFCURVE",
"307 10 OFFCURVE",
"340 52 CURVE SMOOTH",
"347 61 OFFCURVE",
"349 68 OFFCURVE",
"349 78 CURVE SMOOTH",
"349 85 OFFCURVE",
"344 90 OFFCURVE",
"336 90 CURVE SMOOTH",
"324 90 OFFCURVE",
"303 78 OFFCURVE",
"287 78 CURVE SMOOTH",
"277 78 OFFCURVE",
"271 79 OFFCURVE",
"262 83 CURVE",
"262 84 LINE",
"273 96 OFFCURVE",
"283 119 OFFCURVE",
"288 147 CURVE SMOOTH",
"340 464 LINE",
"341 464 LINE",
"347 445 OFFCURVE",
"360 414 OFFCURVE",
"373 387 CURVE SMOOTH",
"437 260 LINE SMOOTH",
"479 177 OFFCURVE",
"505 139 OFFCURVE",
"505 104 CURVE SMOOTH",
"505 63 OFFCURVE",
"493 20 OFFCURVE",
"493 2 CURVE SMOOTH",
"493 -5 OFFCURVE",
"499 -10 OFFCURVE",
"507 -10 CURVE SMOOTH"
);
}
);
};
layerId = "56450C88-1299-454A-B666-E6F9AF06B23F";
paths = (
{
closed = 1;
nodes = (
"554 -10 OFFCURVE",
"608 62 OFFCURVE",
"618 120 CURVE SMOOTH",
"694 558 LINE SMOOTH",
"717 693 OFFCURVE",
"737 761 OFFCURVE",
"757 798 CURVE SMOOTH",
"780 841 OFFCURVE",
"804 860 OFFCURVE",
"834 860 CURVE SMOOTH",
"860 860 OFFCURVE",
"878 846 OFFCURVE",
"901 824 CURVE",
"995 930 LINE",
"961 944 OFFCURVE",
"932 954 OFFCURVE",
"898 954 CURVE SMOOTH",
"828 954 OFFCURVE",
"767 917 OFFCURVE",
"706 835 CURVE SMOOTH",
"652 763 OFFCURVE",
"610 639 OFFCURVE",
"585 482 CURVE SMOOTH",
"549 259 LINE",
"548 259 LINE",
"539 280 OFFCURVE",
"529 299 OFFCURVE",
"519 319 CURVE SMOOTH",
"467 424 LINE SMOOTH",
"417 525 OFFCURVE",
"385 587 OFFCURVE",
"385 662 CURVE SMOOTH",
"385 680 OFFCURVE",
"387 693 OFFCURVE",
"393 710 CURVE",
"338 710 LINE SMOOTH",
"146 710 OFFCURVE",
"16 579 OFFCURVE",
"16 393 CURVE SMOOTH",
"16 361 OFFCURVE",
"20 329 OFFCURVE",
"25 290 CURVE",
"136 410 LINE",
"125 434 OFFCURVE",
"119 464 OFFCURVE",
"119 490 CURVE SMOOTH",
"119 572 OFFCURVE",
"170 620 OFFCURVE",
"257 620 CURVE SMOOTH",
"267 620 LINE",
"192 177 LINE SMOOTH",
"181 107 OFFCURVE",
"169 81 OFFCURVE",
"147 65 CURVE SMOOTH",
"125 49 OFFCURVE",
"115 30 OFFCURVE",
"115 10 CURVE SMOOTH",
"115 4 OFFCURVE",
"119 0 OFFCURVE",
"125 0 CURVE SMOOTH",
"140 0 OFFCURVE",
"154 16 OFFCURVE",
"186 16 CURVE SMOOTH",
"218 16 OFFCURVE",
"239 0 OFFCURVE",
"267 0 CURVE SMOOTH",
"294 0 OFFCURVE",
"312 13 OFFCURVE",
"339 52 CURVE SMOOTH",
"346 62 OFFCURVE",
"349 71 OFFCURVE",
"349 80 CURVE SMOOTH",
"349 86 OFFCURVE",
"345 89 OFFCURVE",
"339 89 CURVE SMOOTH",
"326 89 OFFCURVE",
"316 78 OFFCURVE",
"291 78 CURVE SMOOTH",
"281 78 OFFCURVE",
"271 79 OFFCURVE",
"262 83 CURVE",
"262 84 LINE",
"273 94 OFFCURVE",
"283 119 OFFCURVE",
"288 147 CURVE SMOOTH",
"340 464 LINE",
"341 464 LINE",
"347 445 OFFCURVE",
"360 414 OFFCURVE",
"373 387 CURVE SMOOTH",
"437 260 LINE SMOOTH",
"479 177 OFFCURVE",
"505 139 OFFCURVE",
"505 104 CURVE SMOOTH",
"505 63 OFFCURVE",
"493 20 OFFCURVE",
"493 2 CURVE SMOOTH",
"493 -5 OFFCURVE",
"499 -10 OFFCURVE",
"507 -10 CURVE SMOOTH"
);
}
);
width = 772;
},
{
background = {
paths = (
{
closed = 1;
nodes = (
"532 -10 OFFCURVE",
"582 65 OFFCURVE",
"590 110 CURVE",
"671 570 LINE SMOOTH",
"690 682 OFFCURVE",
"709 764 OFFCURVE",
"737 815 CURVE SMOOTH",
"761 859 OFFCURVE",
"790 882 OFFCURVE",
"828 882 CURVE SMOOTH",
"847 882 OFFCURVE",
"867 874 OFFCURVE",
"891 854 CURVE",
"961 937 LINE",
"935 947 OFFCURVE",
"914 954 OFFCURVE",
"888 954 CURVE SMOOTH",
"825 954 OFFCURVE",
"767 916 OFFCURVE",
"709 838 CURVE SMOOTH",
"659 771 OFFCURVE",
"617 652 OFFCURVE",
"593 492 CURVE SMOOTH",
"549 209 LINE",
"546 209 LINE",
"537 232 OFFCURVE",
"516 270 OFFCURVE",
"495 315 CURVE SMOOTH",
"443 421 LINE SMOOTH",
"393 523 OFFCURVE",
"359 597 OFFCURVE",
"359 672 CURVE SMOOTH",
"359 683 OFFCURVE",
"362 700 OFFCURVE",
"365 710 CURVE",
"328 710 LINE SMOOTH",
"153 710 OFFCURVE",
"23 592 OFFCURVE",
"23 403 CURVE SMOOTH",
"23 386 OFFCURVE",
"24 364 OFFCURVE",
"28 335 CURVE",
"108 423 LINE",
"96 453 OFFCURVE",
"93 471 OFFCURVE",
"93 500 CURVE SMOOTH",
"93 588 OFFCURVE",
"146 640 OFFCURVE",
"266 640 CURVE SMOOTH",
"278 640 LINE",
"200 151 LINE SMOOTH",
"188 77 OFFCURVE",
"180 63 OFFCURVE",
"148 38 CURVE SMOOTH",
"140 32 OFFCURVE",
"123 7 OFFCURVE",
"123 -5 CURVE SMOOTH",
"123 -9 OFFCURVE",
"124 -11 OFFCURVE",
"127 -11 CURVE SMOOTH",
"138 -11 OFFCURVE",
"162 5 OFFCURVE",
"181 5 CURVE SMOOTH",
"204 5 OFFCURVE",
"230 -11 OFFCURVE",
"246 -11 CURVE SMOOTH",
"270 -11 OFFCURVE",
"281 1 OFFCURVE",
"314 35 CURVE SMOOTH",
"321 42 OFFCURVE",
"322 47 OFFCURVE",
"322 51 CURVE SMOOTH",
"322 55 OFFCURVE",
"320 58 OFFCURVE",
"315 58 CURVE SMOOTH",
"304 58 OFFCURVE",
"296 47 OFFCURVE",
"276 47 CURVE SMOOTH",
"264 47 OFFCURVE",
"249 49 OFFCURVE",
"234 55 CURVE",
"236 57 LINE SMOOTH",
"241 63 OFFCURVE",
"248 78 OFFCURVE",
"252 98 CURVE SMOOTH",
"318 513 LINE",
"319 513 LINE",
"342 461 OFFCURVE",
"364 417 OFFCURVE",
"403 339 CURVE SMOOTH",
"439 266 LINE SMOOTH",
"468 206 OFFCURVE",
"488 172 OFFCURVE",
"500 138 CURVE SMOOTH",
"519 83 OFFCURVE",
"496 16 OFFCURVE",
"496 5 CURVE SMOOTH",
"496 -4 OFFCURVE",
"500 -10 OFFCURVE",
"509 -10 CURVE SMOOTH"
);
}
);
};
layerId = "0B1DFD06-3317-40CA-B510-4969A0718C16";
paths = (
{
closed = 1;
nodes = (
"533 -10 OFFCURVE",
"585 65 OFFCURVE",
"593 110 CURVE SMOOTH",
"671 570 LINE SMOOTH",
"690 682 OFFCURVE",
"709 764 OFFCURVE",
"737 815 CURVE SMOOTH",
"760 857 OFFCURVE",
"794 882 OFFCURVE",
"828 882 CURVE SMOOTH",
"853 882 OFFCURVE",
"869 875 OFFCURVE",
"891 854 CURVE",
"961 937 LINE",
"938 949 OFFCURVE",
"915 954 OFFCURVE",
"888 954 CURVE SMOOTH",
"825 954 OFFCURVE",
"762 916 OFFCURVE",
"704 838 CURVE SMOOTH",
"654 771 OFFCURVE",
"617 652 OFFCURVE",
"593 492 CURVE SMOOTH",
"550 209 LINE",
"547 209 LINE",
"538 232 OFFCURVE",
"518 271 OFFCURVE",
"496 315 CURVE SMOOTH",
"442 421 LINE SMOOTH",
"390 523 OFFCURVE",
"359 597 OFFCURVE",
"359 672 CURVE SMOOTH",
"359 683 OFFCURVE",
"362 700 OFFCURVE",
"365 710 CURVE",
"328 710 LINE SMOOTH",
"145 710 OFFCURVE",
"23 587 OFFCURVE",
"23 403 CURVE SMOOTH",
"23 384 OFFCURVE",
"25 357 OFFCURVE",
"28 335 CURVE",
"108 423 LINE",
"97 450 OFFCURVE",
"93 470 OFFCURVE",
"93 500 CURVE SMOOTH",
"93 593 OFFCURVE",
"152 642 OFFCURVE",
"266 642 CURVE SMOOTH",
"278 642 LINE",
"200 151 LINE SMOOTH",
"190 90 OFFCURVE",
"187 83 OFFCURVE",
"146 51 CURVE SMOOTH",
"132 40 OFFCURVE",
"124 22 OFFCURVE",
"124 9 CURVE SMOOTH",
"124 4 OFFCURVE",
"125 0 OFFCURVE",
"129 0 CURVE SMOOTH",
"137 0 OFFCURVE",
"155 17 OFFCURVE",
"180 17 CURVE SMOOTH",
"206 17 OFFCURVE",
"224 0 OFFCURVE",
"247 0 CURVE SMOOTH",
"259 0 OFFCURVE",
"274 6 OFFCURVE",
"309 41 CURVE SMOOTH",
"320 52 OFFCURVE",
"322 58 OFFCURVE",
"322 63 CURVE SMOOTH",
"322 67 OFFCURVE",
"319 70 OFFCURVE",
"315 70 CURVE SMOOTH",
"306 70 OFFCURVE",
"301 59 OFFCURVE",
"279 59 CURVE SMOOTH",
"266 59 OFFCURVE",
"252 62 OFFCURVE",
"237 68 CURVE",
"237 69 LINE",
"245 78 OFFCURVE",
"251 93 OFFCURVE",
"254 111 CURVE SMOOTH",
"318 513 LINE",
"319 513 LINE",
"342 461 OFFCURVE",
"364 417 OFFCURVE",
"403 339 CURVE SMOOTH",
"440 266 LINE SMOOTH",
"470 207 OFFCURVE",
"489 172 OFFCURVE",
"501 138 CURVE SMOOTH",
"520 83 OFFCURVE",
"497 16 OFFCURVE",
"497 5 CURVE SMOOTH",
"497 -4 OFFCURVE",
"501 -10 OFFCURVE",
"510 -10 CURVE SMOOTH"
);
}
);
width = 747;
},
{
associatedMasterId = "0B1DFD06-3317-40CA-B510-4969A0718C16";
layerId = "33610075-13A3-43EA-B328-24050E2460C1";
width = 600;
}
);
note = N;
unicode = 004E;
},
{
glyphname = O;
lastChange = "2018-02-27 11:48:33 +0000";
layers = (
{
background = {
paths = (
{
closed = 1;
nodes = (
"415 -10 OFFCURVE",
"586 205 OFFCURVE",
"586 454 CURVE SMOOTH",
"586 608 OFFCURVE",
"512 710 OFFCURVE",
"407 710 CURVE SMOOTH",
"177 710 OFFCURVE",
"40 435 OFFCURVE",
"40 232 CURVE SMOOTH",
"40 158 OFFCURVE",
"69 -10 OFFCURVE",
"220 -10 CURVE SMOOTH"
);
},
{
closed = 1;
nodes = (
"205 66 OFFCURVE",
"160 133 OFFCURVE",
"160 268 CURVE SMOOTH",
"160 462 OFFCURVE",
"253 631 OFFCURVE",
"361 631 CURVE SMOOTH",
"422 631 OFFCURVE",
"466 560 OFFCURVE",
"466 407 CURVE SMOOTH",
"466 273 OFFCURVE",
"388 66 OFFCURVE",
"272 66 CURVE SMOOTH"
);
}
);
};
layerId = "56450C88-1299-454A-B666-E6F9AF06B23F";
paths = (
{
closed = 1;
nodes = (
"415 -10 OFFCURVE",
"586 205 OFFCURVE",
"586 454 CURVE SMOOTH",
"586 608 OFFCURVE",
"514 710 OFFCURVE",
"407 710 CURVE SMOOTH",
"177 710 OFFCURVE",
"40 435 OFFCURVE",
"40 232 CURVE SMOOTH",
"40 87 OFFCURVE",
"112 -10 OFFCURVE",
"220 -10 CURVE SMOOTH"
);
},
{
closed = 1;
nodes = (
"198 68 OFFCURVE",
"160 135 OFFCURVE",
"160 268 CURVE SMOOTH",
"160 462 OFFCURVE",
"243 632 OFFCURVE",
"361 632 CURVE SMOOTH",
"430 632 OFFCURVE",
"466 556 OFFCURVE",
"466 407 CURVE SMOOTH",
"466 273 OFFCURVE",
"404 68 OFFCURVE",
"272 68 CURVE SMOOTH"
);
}
);
width = 623;
},
{
background = {
paths = (
{
closed = 1;
nodes = (
"181 46 OFFCURVE",
"136 136 OFFCURVE",
"136 268 CURVE SMOOTH",
"136 497 OFFCURVE",
"248 654 OFFCURVE",
"352 654 CURVE SMOOTH",
"438 654 OFFCURVE",
"473 541 OFFCURVE",
"473 407 CURVE SMOOTH",
"473 270 OFFCURVE",
"392 46 OFFCURVE",
"263 46 CURVE SMOOTH"
);
},
{
closed = 1;
nodes = (
"394 -10 OFFCURVE",
"562 209 OFFCURVE",
"562 454 CURVE SMOOTH",
"562 585 OFFCURVE",
"510 710 OFFCURVE",
"398 710 CURVE SMOOTH",
"181 710 OFFCURVE",
"47 432 OFFCURVE",
"47 232 CURVE SMOOTH",
"47 158 OFFCURVE",
"73 -10 OFFCURVE",
"211 -10 CURVE SMOOTH"
);
}
);
};
layerId = "0B1DFD06-3317-40CA-B510-4969A0718C16";
paths = (
{
closed = 1;
nodes = (
"181 46 OFFCURVE",
"133 128 OFFCURVE",
"133 268 CURVE SMOOTH",
"133 497 OFFCURVE",
"246 654 OFFCURVE",
"352 654 CURVE SMOOTH",
"438 654 OFFCURVE",
"475 562 OFFCURVE",
"475 407 CURVE SMOOTH",
"475 270 OFFCURVE",
"402 46 OFFCURVE",
"263 46 CURVE SMOOTH"
);
},
{
closed = 1;
nodes = (
"402 -10 OFFCURVE",
"561 209 OFFCURVE",
"561 454 CURVE SMOOTH",
"561 585 OFFCURVE",
"516 710 OFFCURVE",
"398 710 CURVE SMOOTH",
"181 710 OFFCURVE",
"47 432 OFFCURVE",
"47 232 CURVE SMOOTH",
"47 158 OFFCURVE",
"73 -10 OFFCURVE",
"211 -10 CURVE SMOOTH"
);
}
);
width = 657;
},
{
associatedMasterId = "0B1DFD06-3317-40CA-B510-4969A0718C16";
layerId = "33610075-13A3-43EA-B328-24050E2460C1";
width = 600;
}
);
note = O;
unicode = 004F;
},
{
glyphname = P;
lastChange = "2018-02-27 11:48:33 +0000";
layers = (
{
background = {
paths = (
{
closed = 1;
nodes = (
"148 0 OFFCURVE",
"166 16 OFFCURVE",
"188 16 CURVE SMOOTH",
"209 16 OFFCURVE",
"245 0 OFFCURVE",
"263 0 CURVE SMOOTH",
"289 0 OFFCURVE",
"314 10 OFFCURVE",
"347 52 CURVE SMOOTH",
"354 61 OFFCURVE",
"357 68 OFFCURVE",
"357 78 CURVE SMOOTH",
"357 85 OFFCURVE",
"352 90 OFFCURVE",
"344 90 CURVE SMOOTH",
"332 90 OFFCURVE",
"314 78 OFFCURVE",
"298 78 CURVE SMOOTH",
"288 78 OFFCURVE",
"282 79 OFFCURVE",
"273 83 CURVE",
"273 84 LINE",
"283 93 OFFCURVE",
"290 114 OFFCURVE",
"294 137 CURVE SMOOTH",
"315 266 LINE",
"474 281 OFFCURVE",
"595 406 OFFCURVE",
"595 543 CURVE SMOOTH",
"595 653 OFFCURVE",
"524 710 OFFCURVE",
"387 710 CURVE SMOOTH",
"170 710 OFFCURVE",
"16 564 OFFCURVE",
"16 363 CURVE SMOOTH",
"16 336 OFFCURVE",
"19 308 OFFCURVE",
"25 271 CURVE",
"134 380 LINE",
"126 399 OFFCURVE",
"119 428 OFFCURVE",
"119 457 CURVE SMOOTH",
"119 538 OFFCURVE",
"169 607 OFFCURVE",
"265 624 CURVE",
"194 177 LINE SMOOTH",
"183 110 OFFCURVE",
"174 90 OFFCURVE",
"149 65 CURVE SMOOTH",
"129 45 OFFCURVE",
"117 26 OFFCURVE",
"117 13 CURVE SMOOTH",
"117 5 OFFCURVE",
"120 0 OFFCURVE",
"129 0 CURVE SMOOTH"
);
},
{
closed = 1;
nodes = (
"341 342 OFFCURVE",
"329 343 OFFCURVE",
"325 343 CURVE",
"371 633 LINE",
"445 630 OFFCURVE",
"489 584 OFFCURVE",
"489 510 CURVE SMOOTH",
"489 400 OFFCURVE",
"440 342 OFFCURVE",
"346 342 CURVE SMOOTH"
);
}
);
};
layerId = "56450C88-1299-454A-B666-E6F9AF06B23F";
paths = (
{
closed = 1;
nodes = (
"142 0 OFFCURVE",
"156 16 OFFCURVE",
"188 16 CURVE SMOOTH",
"220 16 OFFCURVE",
"247 0 OFFCURVE",
"275 0 CURVE SMOOTH",
"302 0 OFFCURVE",
"320 13 OFFCURVE",
"347 52 CURVE SMOOTH",
"354 62 OFFCURVE",
"357 71 OFFCURVE",
"357 80 CURVE SMOOTH",
"357 86 OFFCURVE",
"353 89 OFFCURVE",
"347 89 CURVE SMOOTH",
"334 89 OFFCURVE",
"324 78 OFFCURVE",
"299 78 CURVE SMOOTH",
"289 78 OFFCURVE",
"279 79 OFFCURVE",
"270 83 CURVE",
"270 84 LINE",
"282 96 OFFCURVE",
"291 116 OFFCURVE",
"294 137 CURVE SMOOTH",
"315 266 LINE",
"474 281 OFFCURVE",
"595 406 OFFCURVE",
"595 543 CURVE SMOOTH",
"595 653 OFFCURVE",
"524 710 OFFCURVE",
"387 710 CURVE SMOOTH",
"170 710 OFFCURVE",
"16 564 OFFCURVE",
"16 363 CURVE SMOOTH",
"16 336 OFFCURVE",
"19 308 OFFCURVE",
"25 271 CURVE",
"134 380 LINE",
"126 399 OFFCURVE",
"119 428 OFFCURVE",
"119 457 CURVE SMOOTH",
"119 538 OFFCURVE",
"169 607 OFFCURVE",
"265 624 CURVE",
"194 177 LINE SMOOTH",
"183 107 OFFCURVE",
"171 81 OFFCURVE",
"149 65 CURVE SMOOTH",
"127 49 OFFCURVE",
"117 30 OFFCURVE",
"117 10 CURVE SMOOTH",
"117 4 OFFCURVE",
"121 0 OFFCURVE",
"127 0 CURVE SMOOTH"
);
},
{
closed = 1;
nodes = (
"341 342 OFFCURVE",
"329 343 OFFCURVE",
"325 343 CURVE",
"371 633 LINE",
"445 630 OFFCURVE",
"489 584 OFFCURVE",
"489 510 CURVE SMOOTH",
"489 400 OFFCURVE",
"440 342 OFFCURVE",
"346 342 CURVE SMOOTH"
);
}
);
width = 595;
},
{
background = {
paths = (
{
closed = 1;
nodes = (
"135 0 OFFCURVE",
"153 17 OFFCURVE",
"178 17 CURVE SMOOTH",
"204 17 OFFCURVE",
"231 0 OFFCURVE",
"254 0 CURVE SMOOTH",
"266 0 OFFCURVE",
"279 6 OFFCURVE",
"314 41 CURVE SMOOTH",
"325 52 OFFCURVE",
"327 58 OFFCURVE",
"327 63 CURVE SMOOTH",
"327 67 OFFCURVE",
"324 70 OFFCURVE",
"320 70 CURVE SMOOTH",
"311 70 OFFCURVE",
"300 59 OFFCURVE",
"280 59 CURVE SMOOTH",
"267 59 OFFCURVE",
"259 62 OFFCURVE",
"244 68 CURVE",
"244 69 LINE",
"253 79 OFFCURVE",
"260 94 OFFCURVE",
"263 111 CURVE SMOOTH",
"295 286 LINE",
"441 297 OFFCURVE",
"575 410 OFFCURVE",
"575 550 CURVE SMOOTH",
"575 660 OFFCURVE",
"512 710 OFFCURVE",
"376 710 CURVE SMOOTH",
"170 710 OFFCURVE",
"23 575 OFFCURVE",
"23 373 CURVE SMOOTH",
"23 353 OFFCURVE",
"24 337 OFFCURVE",
"28 313 CURVE",
"106 393 LINE",
"95 421 OFFCURVE",
"93 448 OFFCURVE",
"93 477 CURVE SMOOTH",
"93 575 OFFCURVE",
"179 629 OFFCURVE",
"278 649 CURVE",
"198 174 LINE SMOOTH",
"185 98 OFFCURVE",
"183 83 OFFCURVE",
"144 51 CURVE SMOOTH",
"130 40 OFFCURVE",
"122 22 OFFCURVE",
"122 9 CURVE SMOOTH",
"122 4 OFFCURVE",
"123 0 OFFCURVE",
"127 0 CURVE SMOOTH"
);
},
{
closed = 1;
nodes = (
"327 342 OFFCURVE",
"314 344 OFFCURVE",
"305 346 CURVE",
"353 655 LINE",
"448 655 OFFCURVE",
"497 609 OFFCURVE",
"497 520 CURVE SMOOTH",
"497 408 OFFCURVE",
"438 342 OFFCURVE",
"337 342 CURVE SMOOTH"
);
}
);
};
layerId = "0B1DFD06-3317-40CA-B510-4969A0718C16";
paths = (
{
closed = 1;
nodes = (
"135 0 OFFCURVE",
"153 17 OFFCURVE",
"178 17 CURVE SMOOTH",
"204 17 OFFCURVE",
"231 0 OFFCURVE",
"254 0 CURVE SMOOTH",
"266 0 OFFCURVE",
"279 6 OFFCURVE",
"314 41 CURVE SMOOTH",
"325 52 OFFCURVE",
"327 58 OFFCURVE",
"327 63 CURVE SMOOTH",
"327 67 OFFCURVE",
"324 70 OFFCURVE",
"320 70 CURVE SMOOTH",
"311 70 OFFCURVE",
"300 59 OFFCURVE",
"280 59 CURVE SMOOTH",
"267 59 OFFCURVE",
"259 62 OFFCURVE",
"244 68 CURVE",
"244 69 LINE",
"253 79 OFFCURVE",
"260 94 OFFCURVE",
"263 111 CURVE SMOOTH",
"293 286 LINE",
"441 297 OFFCURVE",
"575 410 OFFCURVE",
"575 550 CURVE SMOOTH",
"575 660 OFFCURVE",
"512 710 OFFCURVE",
"376 710 CURVE SMOOTH",
"170 710 OFFCURVE",
"23 575 OFFCURVE",
"23 373 CURVE SMOOTH",
"23 353 OFFCURVE",
"24 337 OFFCURVE",
"28 313 CURVE",
"106 393 LINE",
"95 421 OFFCURVE",
"93 448 OFFCURVE",
"93 477 CURVE SMOOTH",
"93 575 OFFCURVE",
"179 629 OFFCURVE",
"278 649 CURVE",
"198 174 LINE SMOOTH",
"185 98 OFFCURVE",
"183 83 OFFCURVE",
"144 51 CURVE SMOOTH",
"130 40 OFFCURVE",
"122 22 OFFCURVE",
"122 9 CURVE SMOOTH",
"122 4 OFFCURVE",
"123 0 OFFCURVE",
"127 0 CURVE SMOOTH"
);
},
{
closed = 1;
nodes = (
"327 342 OFFCURVE",
"314 344 OFFCURVE",
"305 346 CURVE",
"353 655 LINE",
"448 655 OFFCURVE",
"497 609 OFFCURVE",
"497 520 CURVE SMOOTH",
"497 408 OFFCURVE",
"438 342 OFFCURVE",
"337 342 CURVE SMOOTH"
);
}
);
width = 575;
},
{
associatedMasterId = "0B1DFD06-3317-40CA-B510-4969A0718C16";
layerId = "33610075-13A3-43EA-B328-24050E2460C1";
width = 600;
}
);
note = P;
unicode = 0050;
},
{
glyphname = Q;
lastChange = "2018-02-27 11:48:33 +0000";
layers = (
{
background = {
paths = (
{
closed = 1;
nodes = (
"440 -10 OFFCURVE",
"611 205 OFFCURVE",
"611 454 CURVE SMOOTH",
"611 608 OFFCURVE",
"539 710 OFFCURVE",
"432 710 CURVE SMOOTH",
"202 710 OFFCURVE",
"65 435 OFFCURVE",
"65 232 CURVE SMOOTH",
"65 87 OFFCURVE",
"137 -10 OFFCURVE",
"245 -10 CURVE SMOOTH"
);
},
{
closed = 1;
nodes = (
"646 -209 OFFCURVE",
"731 -138 OFFCURVE",
"731 -72 CURVE SMOOTH",
"731 -45 OFFCURVE",
"712 -19 OFFCURVE",
"684 -19 CURVE SMOOTH",
"665 -19 OFFCURVE",
"636 -46 OFFCURVE",
"620 -88 CURVE",
"637 -97 OFFCURVE",
"644 -106 OFFCURVE",
"644 -120 CURVE SMOOTH",
"644 -137 OFFCURVE",
"631 -147 OFFCURVE",
"605 -147 CURVE SMOOTH",
"521 -147 OFFCURVE",
"436 8 OFFCURVE",
"409 52 CURVE SMOOTH",
"372 112 OFFCURVE",
"383 183 OFFCURVE",
"313 183 CURVE SMOOTH",
"268 183 OFFCURVE",
"206 147 OFFCURVE",
"182 126 CURVE",
"185 91 LINE",
"225 109 OFFCURVE",
"245 114 OFFCURVE",
"272 114 CURVE SMOOTH",
"299 114 OFFCURVE",
"307 86 OFFCURVE",
"322 55 CURVE",
"328 13 LINE",
"394 -94 OFFCURVE",
"476 -209 OFFCURVE",
"584 -209 CURVE SMOOTH"
);
},
{
closed = 1;
nodes = (
"263 58 OFFCURVE",
"236 72 OFFCURVE",
"218 111 CURVE",
"196 144 OFFCURVE",
"185 196 OFFCURVE",
"185 268 CURVE SMOOTH",
"185 462 OFFCURVE",
"268 632 OFFCURVE",
"386 632 CURVE SMOOTH",
"455 632 OFFCURVE",
"491 556 OFFCURVE",
"491 407 CURVE SMOOTH",
"491 296 OFFCURVE",
"448 135 OFFCURVE",
"358 84 CURVE",
"339 64 OFFCURVE",
"319 58 OFFCURVE",
"297 58 CURVE SMOOTH"
);
}
);
};
layerId = "56450C88-1299-454A-B666-E6F9AF06B23F";
paths = (
{
closed = 1;
nodes = (
"440 -10 OFFCURVE",
"611 205 OFFCURVE",
"611 454 CURVE SMOOTH",
"611 608 OFFCURVE",
"539 710 OFFCURVE",
"432 710 CURVE SMOOTH",
"202 710 OFFCURVE",
"65 435 OFFCURVE",
"65 232 CURVE SMOOTH",
"65 87 OFFCURVE",
"137 -10 OFFCURVE",
"245 -10 CURVE SMOOTH"
);
},
{
closed = 1;
nodes = (
"646 -209 OFFCURVE",
"731 -138 OFFCURVE",
"731 -72 CURVE SMOOTH",
"731 -45 OFFCURVE",
"712 -19 OFFCURVE",
"684 -19 CURVE SMOOTH",
"665 -19 OFFCURVE",
"636 -46 OFFCURVE",
"620 -88 CURVE",
"637 -97 OFFCURVE",
"644 -106 OFFCURVE",
"644 -120 CURVE SMOOTH",
"644 -137 OFFCURVE",
"631 -147 OFFCURVE",
"605 -147 CURVE SMOOTH",
"521 -147 OFFCURVE",
"436 8 OFFCURVE",
"409 52 CURVE SMOOTH",
"372 112 OFFCURVE",
"383 183 OFFCURVE",
"313 183 CURVE SMOOTH",
"268 183 OFFCURVE",
"206 147 OFFCURVE",
"182 126 CURVE",
"185 91 LINE",
"225 109 OFFCURVE",
"245 114 OFFCURVE",
"272 114 CURVE SMOOTH",
"299 114 OFFCURVE",
"307 86 OFFCURVE",
"322 55 CURVE",
"328 13 LINE",
"394 -94 OFFCURVE",
"476 -209 OFFCURVE",
"584 -209 CURVE SMOOTH"
);
},
{
closed = 1;
nodes = (
"263 58 OFFCURVE",
"236 72 OFFCURVE",
"218 111 CURVE",
"196 144 OFFCURVE",
"185 196 OFFCURVE",
"185 268 CURVE SMOOTH",
"185 462 OFFCURVE",
"268 632 OFFCURVE",
"386 632 CURVE SMOOTH",
"455 632 OFFCURVE",
"491 556 OFFCURVE",
"491 407 CURVE SMOOTH",
"491 296 OFFCURVE",
"448 135 OFFCURVE",
"358 84 CURVE",
"339 64 OFFCURVE",
"319 58 OFFCURVE",
"297 58 CURVE SMOOTH"
);
}
);
width = 669;
},
{
background = {
paths = (
{
closed = 1;
nodes = (
"417 -10 OFFCURVE",
"585 209 OFFCURVE",
"585 454 CURVE SMOOTH",
"585 583 OFFCURVE",
"534 710 OFFCURVE",
"422 710 CURVE SMOOTH",
"206 710 OFFCURVE",
"72 432 OFFCURVE",
"72 232 CURVE SMOOTH",
"72 163 OFFCURVE",
"95 -10 OFFCURVE",
"235 -10 CURVE SMOOTH"
);
},
{
closed = 1;
nodes = (
"643 -209 OFFCURVE",
"708 -141 OFFCURVE",
"708 -82 CURVE SMOOTH",
"708 -63 OFFCURVE",
"694 -46 OFFCURVE",
"682 -40 CURVE SMOOTH",
"665 -31 OFFCURVE",
"628 -93 OFFCURVE",
"629 -98 CURVE",
"644 -104 OFFCURVE",
"650 -115 OFFCURVE",
"650 -131 CURVE SMOOTH",
"650 -156 OFFCURVE",
"628 -169 OFFCURVE",
"597 -169 CURVE SMOOTH",
"500 -169 OFFCURVE",
"414 8 OFFCURVE",
"390 48 CURVE SMOOTH",
"349 115 OFFCURVE",
"360 154 OFFCURVE",
"303 154 CURVE SMOOTH",
"268 154 OFFCURVE",
"218 131 OFFCURVE",
"191 110 CURVE",
"193 76 LINE",
"213 84 OFFCURVE",
"233 92 OFFCURVE",
"262 92 CURVE SMOOTH",
"289 92 OFFCURVE",
"297 77 OFFCURVE",
"308 58 CURVE SMOOTH",
"346 -8 LINE SMOOTH",
"411 -122 OFFCURVE",
"479 -209 OFFCURVE",
"576 -209 CURVE SMOOTH"
);
},
{
closed = 1;
nodes = (
"252 43 OFFCURVE",
"223 62 OFFCURVE",
"202 90 CURVE SMOOTH",
"172 130 OFFCURVE",
"159 193 OFFCURVE",
"159 268 CURVE SMOOTH",
"159 499 OFFCURVE",
"273 654 OFFCURVE",
"376 654 CURVE SMOOTH",
"463 654 OFFCURVE",
"498 540 OFFCURVE",
"498 407 CURVE SMOOTH",
"498 291 OFFCURVE",
"439 109 OFFCURVE",
"342 57 CURVE SMOOTH",
"325 48 OFFCURVE",
"307 43 OFFCURVE",
"287 43 CURVE SMOOTH"
);
}
);
};
layerId = "0B1DFD06-3317-40CA-B510-4969A0718C16";
paths = (
{
closed = 1;
nodes = (
"427 -10 OFFCURVE",
"586 209 OFFCURVE",
"586 454 CURVE SMOOTH",
"586 585 OFFCURVE",
"541 710 OFFCURVE",
"423 710 CURVE SMOOTH",
"206 710 OFFCURVE",
"72 432 OFFCURVE",
"72 232 CURVE SMOOTH",
"72 158 OFFCURVE",
"98 -10 OFFCURVE",
"236 -10 CURVE SMOOTH"
);
},
{
closed = 1;
nodes = (
"643 -209 OFFCURVE",
"708 -141 OFFCURVE",
"708 -84 CURVE SMOOTH",
"708 -62 OFFCURVE",
"696 -39 OFFCURVE",
"680 -39 CURVE SMOOTH",
"663 -39 OFFCURVE",
"635 -83 OFFCURVE",
"629 -98 CURVE",
"643 -105 OFFCURVE",
"650 -116 OFFCURVE",
"650 -131 CURVE SMOOTH",
"650 -155 OFFCURVE",
"630 -169 OFFCURVE",
"597 -169 CURVE SMOOTH",
"500 -169 OFFCURVE",
"414 8 OFFCURVE",
"390 48 CURVE SMOOTH",
"349 115 OFFCURVE",
"354 154 OFFCURVE",
"303 154 CURVE SMOOTH",
"258 154 OFFCURVE",
"208 125 OFFCURVE",
"181 104 CURVE",
"193 74 LINE",
"213 84 OFFCURVE",
"233 92 OFFCURVE",
"262 92 CURVE SMOOTH",
"289 92 OFFCURVE",
"297 77 OFFCURVE",
"308 58 CURVE SMOOTH",
"346 -8 LINE SMOOTH",
"411 -122 OFFCURVE",
"479 -209 OFFCURVE",
"576 -209 CURVE SMOOTH"
);
},
{
closed = 1;
nodes = (
"248 44 OFFCURVE",
"215 63 OFFCURVE",
"199 95 CURVE",
"172 132 OFFCURVE",
"158 192 OFFCURVE",
"158 268 CURVE SMOOTH",
"158 497 OFFCURVE",
"271 654 OFFCURVE",
"377 654 CURVE SMOOTH",
"463 654 OFFCURVE",
"500 562 OFFCURVE",
"500 407 CURVE SMOOTH",
"500 290 OFFCURVE",
"446 109 OFFCURVE",
"344 59 CURVE",
"327 49 OFFCURVE",
"308 44 OFFCURVE",
"288 44 CURVE SMOOTH"
);
}
);
width = 651;
},
{
associatedMasterId = "0B1DFD06-3317-40CA-B510-4969A0718C16";
layerId = "33610075-13A3-43EA-B328-24050E2460C1";
width = 600;
}
);
note = Q;
unicode = 0051;
},
{
glyphname = R;
lastChange = "2018-02-27 11:48:33 +0000";
layers = (
{
background = {
paths = (
{
closed = 1;
nodes = (
"592 -10 OFFCURVE",
"667 77 OFFCURVE",
"667 128 CURVE SMOOTH",
"667 146 OFFCURVE",
"657 153 OFFCURVE",
"629 181 CURVE",
"601 116 OFFCURVE",
"591 99 OFFCURVE",
"576 99 CURVE SMOOTH",
"565 99 OFFCURVE",
"557 115 OFFCURVE",
"547 138 CURVE SMOOTH",
"534 168 OFFCURVE",
"516 208 OFFCURVE",
"488 283 CURVE SMOOTH",
"479 306 OFFCURVE",
"460 326 OFFCURVE",
"421 331 CURVE",
"421 332 LINE",
"524 364 OFFCURVE",
"593 448 OFFCURVE",
"593 543 CURVE SMOOTH",
"593 653 OFFCURVE",
"522 710 OFFCURVE",
"385 710 CURVE SMOOTH",
"168 710 OFFCURVE",
"14 564 OFFCURVE",
"14 363 CURVE SMOOTH",
"14 336 OFFCURVE",
"17 308 OFFCURVE",
"23 271 CURVE",
"132 380 LINE",
"124 399 OFFCURVE",
"117 428 OFFCURVE",
"117 457 CURVE SMOOTH",
"117 538 OFFCURVE",
"166 607 OFFCURVE",
"262 624 CURVE",
"191 177 LINE SMOOTH",
"180 110 OFFCURVE",
"171 90 OFFCURVE",
"146 65 CURVE SMOOTH",
"126 45 OFFCURVE",
"114 26 OFFCURVE",
"114 13 CURVE SMOOTH",
"114 5 OFFCURVE",
"117 0 OFFCURVE",
"126 0 CURVE SMOOTH",
"145 0 OFFCURVE",
"163 16 OFFCURVE",
"185 16 CURVE SMOOTH",
"206 16 OFFCURVE",
"242 0 OFFCURVE",
"260 0 CURVE SMOOTH",
"286 0 OFFCURVE",
"311 10 OFFCURVE",
"344 52 CURVE SMOOTH",
"351 61 OFFCURVE",
"354 68 OFFCURVE",
"354 78 CURVE SMOOTH",
"354 85 OFFCURVE",
"349 90 OFFCURVE",
"341 90 CURVE SMOOTH",
"329 90 OFFCURVE",
"311 78 OFFCURVE",
"295 78 CURVE SMOOTH",
"285 78 OFFCURVE",
"279 79 OFFCURVE",
"270 83 CURVE",
"270 84 LINE",
"280 93 OFFCURVE",
"288 116 OFFCURVE",
"292 139 CURVE SMOOTH",
"319 307 LINE",
"335 307 OFFCURVE",
"356 302 OFFCURVE",
"367 295 CURVE",
"392 218 OFFCURVE",
"418 145 OFFCURVE",
"448 87 CURVE SMOOTH",
"484 18 OFFCURVE",
"513 -10 OFFCURVE",
"549 -10 CURVE SMOOTH"
);
},
{
closed = 1;
nodes = (
"358 376 OFFCURVE",
"343 377 OFFCURVE",
"330 380 CURVE",
"370 633 LINE",
"442 630 OFFCURVE",
"485 585 OFFCURVE",
"485 510 CURVE SMOOTH",
"485 426 OFFCURVE",
"442 376 OFFCURVE",
"368 376 CURVE SMOOTH"
);
}
);
};
layerId = "56450C88-1299-454A-B666-E6F9AF06B23F";
paths = (
{
closed = 1;
nodes = (
"592 -10 OFFCURVE",
"667 77 OFFCURVE",
"667 128 CURVE SMOOTH",
"667 146 OFFCURVE",
"657 153 OFFCURVE",
"629 181 CURVE",
"601 116 OFFCURVE",
"591 99 OFFCURVE",
"576 99 CURVE SMOOTH",
"565 99 OFFCURVE",
"557 115 OFFCURVE",
"547 138 CURVE SMOOTH",
"534 168 OFFCURVE",
"516 208 OFFCURVE",
"488 283 CURVE SMOOTH",
"479 306 OFFCURVE",
"460 326 OFFCURVE",
"421 331 CURVE",
"421 332 LINE",
"524 364 OFFCURVE",
"593 448 OFFCURVE",
"593 543 CURVE SMOOTH",
"593 653 OFFCURVE",
"522 710 OFFCURVE",
"385 710 CURVE SMOOTH",
"168 710 OFFCURVE",
"14 564 OFFCURVE",
"14 363 CURVE SMOOTH",
"14 336 OFFCURVE",
"17 308 OFFCURVE",
"23 271 CURVE",
"132 380 LINE",
"124 399 OFFCURVE",
"117 428 OFFCURVE",
"117 457 CURVE SMOOTH",
"117 538 OFFCURVE",
"166 607 OFFCURVE",
"262 624 CURVE",
"191 177 LINE SMOOTH",
"180 107 OFFCURVE",
"168 81 OFFCURVE",
"146 65 CURVE SMOOTH",
"124 49 OFFCURVE",
"114 30 OFFCURVE",
"114 10 CURVE SMOOTH",
"114 4 OFFCURVE",
"118 0 OFFCURVE",
"124 0 CURVE SMOOTH",
"139 0 OFFCURVE",
"153 16 OFFCURVE",
"185 16 CURVE SMOOTH",
"217 16 OFFCURVE",
"244 0 OFFCURVE",
"272 0 CURVE SMOOTH",
"299 0 OFFCURVE",
"317 13 OFFCURVE",
"344 52 CURVE SMOOTH",
"351 62 OFFCURVE",
"354 71 OFFCURVE",
"354 80 CURVE SMOOTH",
"354 86 OFFCURVE",
"350 89 OFFCURVE",
"344 89 CURVE SMOOTH",
"331 89 OFFCURVE",
"321 78 OFFCURVE",
"296 78 CURVE SMOOTH",
"286 78 OFFCURVE",
"276 79 OFFCURVE",
"267 83 CURVE",
"267 84 LINE",
"279 94 OFFCURVE",
"288 115 OFFCURVE",
"292 139 CURVE SMOOTH",
"319 307 LINE",
"335 307 OFFCURVE",
"356 302 OFFCURVE",
"367 295 CURVE",
"392 218 OFFCURVE",
"418 145 OFFCURVE",
"448 87 CURVE SMOOTH",
"484 18 OFFCURVE",
"513 -10 OFFCURVE",
"549 -10 CURVE SMOOTH"
);
},
{
closed = 1;
nodes = (
"358 376 OFFCURVE",
"343 377 OFFCURVE",
"330 380 CURVE",
"370 633 LINE",
"442 630 OFFCURVE",
"485 585 OFFCURVE",
"485 510 CURVE SMOOTH",
"485 426 OFFCURVE",
"442 376 OFFCURVE",
"368 376 CURVE SMOOTH"
);
}
);
width = 662;
},
{
background = {
paths = (
{
closed = 1;
nodes = (
"574 -10 OFFCURVE",
"639 80 OFFCURVE",
"639 118 CURVE SMOOTH",
"639 129 OFFCURVE",
"634 136 OFFCURVE",
"623 146 CURVE",
"605 106 OFFCURVE",
"587 77 OFFCURVE",
"564 77 CURVE SMOOTH",
"548 77 OFFCURVE",
"537 88 OFFCURVE",
"520 123 CURVE SMOOTH",
"503 156 OFFCURVE",
"483 210 OFFCURVE",
"454 293 CURVE SMOOTH",
"447 313 OFFCURVE",
"432 326 OFFCURVE",
"396 331 CURVE",
"396 332 LINE",
"491 362 OFFCURVE",
"568 466 OFFCURVE",
"568 562 CURVE SMOOTH",
"568 660 OFFCURVE",
"511 710 OFFCURVE",
"375 710 CURVE SMOOTH",
"169 710 OFFCURVE",
"21 575 OFFCURVE",
"21 373 CURVE SMOOTH",
"21 353 OFFCURVE",
"22 337 OFFCURVE",
"26 313 CURVE",
"104 393 LINE",
"93 421 OFFCURVE",
"91 448 OFFCURVE",
"91 477 CURVE SMOOTH",
"91 575 OFFCURVE",
"174 629 OFFCURVE",
"273 649 CURVE",
"195 174 LINE SMOOTH",
"184 108 OFFCURVE",
"181 83 OFFCURVE",
"140 51 CURVE SMOOTH",
"126 40 OFFCURVE",
"118 22 OFFCURVE",
"118 9 CURVE SMOOTH",
"118 4 OFFCURVE",
"119 0 OFFCURVE",
"123 0 CURVE SMOOTH",
"131 0 OFFCURVE",
"149 17 OFFCURVE",
"174 17 CURVE SMOOTH",
"200 17 OFFCURVE",
"227 0 OFFCURVE",
"250 0 CURVE SMOOTH",
"262 0 OFFCURVE",
"275 6 OFFCURVE",
"310 41 CURVE SMOOTH",
"321 52 OFFCURVE",
"323 58 OFFCURVE",
"323 63 CURVE SMOOTH",
"323 67 OFFCURVE",
"320 70 OFFCURVE",
"316 70 CURVE SMOOTH",
"307 70 OFFCURVE",
"296 59 OFFCURVE",
"276 59 CURVE SMOOTH",
"263 59 OFFCURVE",
"255 62 OFFCURVE",
"240 68 CURVE",
"240 69 LINE",
"249 79 OFFCURVE",
"256 94 OFFCURVE",
"259 111 CURVE SMOOTH",
"295 317 LINE",
"319 318 OFFCURVE",
"351 314 OFFCURVE",
"371 298 CURVE",
"396 208 OFFCURVE",
"424 136 OFFCURVE",
"451 83 CURVE SMOOTH",
"486 14 OFFCURVE",
"513 -10 OFFCURVE",
"539 -10 CURVE SMOOTH"
);
},
{
closed = 1;
nodes = (
"340 366 OFFCURVE",
"319 368 OFFCURVE",
"304 373 CURVE",
"348 654 LINE",
"447 652 OFFCURVE",
"490 613 OFFCURVE",
"490 536 CURVE SMOOTH",
"490 434 OFFCURVE",
"437 366 OFFCURVE",
"358 366 CURVE SMOOTH"
);
}
);
};
layerId = "0B1DFD06-3317-40CA-B510-4969A0718C16";
paths = (
{
closed = 1;
nodes = (
"574 -10 OFFCURVE",
"639 80 OFFCURVE",
"639 118 CURVE SMOOTH",
"639 129 OFFCURVE",
"634 136 OFFCURVE",
"623 146 CURVE",
"605 106 OFFCURVE",
"587 77 OFFCURVE",
"564 77 CURVE SMOOTH",
"548 77 OFFCURVE",
"537 88 OFFCURVE",
"520 123 CURVE SMOOTH",
"503 156 OFFCURVE",
"483 210 OFFCURVE",
"454 293 CURVE SMOOTH",
"447 313 OFFCURVE",
"432 326 OFFCURVE",
"396 331 CURVE",
"396 332 LINE",
"491 362 OFFCURVE",
"568 466 OFFCURVE",
"568 562 CURVE SMOOTH",
"568 660 OFFCURVE",
"511 710 OFFCURVE",
"375 710 CURVE SMOOTH",
"169 710 OFFCURVE",
"21 575 OFFCURVE",
"21 373 CURVE SMOOTH",
"21 353 OFFCURVE",
"22 337 OFFCURVE",
"26 313 CURVE",
"104 393 LINE",
"93 421 OFFCURVE",
"91 448 OFFCURVE",
"91 477 CURVE SMOOTH",
"91 575 OFFCURVE",
"174 629 OFFCURVE",
"273 649 CURVE",
"195 174 LINE SMOOTH",
"184 108 OFFCURVE",
"181 83 OFFCURVE",
"140 51 CURVE SMOOTH",
"126 40 OFFCURVE",
"118 22 OFFCURVE",
"118 9 CURVE SMOOTH",
"118 4 OFFCURVE",
"119 0 OFFCURVE",
"123 0 CURVE SMOOTH",
"131 0 OFFCURVE",
"149 17 OFFCURVE",
"174 17 CURVE SMOOTH",
"200 17 OFFCURVE",
"227 0 OFFCURVE",
"250 0 CURVE SMOOTH",
"262 0 OFFCURVE",
"275 6 OFFCURVE",
"310 41 CURVE SMOOTH",
"321 52 OFFCURVE",
"323 58 OFFCURVE",
"323 63 CURVE SMOOTH",
"323 67 OFFCURVE",
"320 70 OFFCURVE",
"316 70 CURVE SMOOTH",
"307 70 OFFCURVE",
"296 59 OFFCURVE",
"276 59 CURVE SMOOTH",
"263 59 OFFCURVE",
"255 62 OFFCURVE",
"240 68 CURVE",
"240 69 LINE",
"249 79 OFFCURVE",
"256 94 OFFCURVE",
"259 111 CURVE SMOOTH",
"294 317 LINE",
"318 318 OFFCURVE",
"351 314 OFFCURVE",
"371 298 CURVE",
"396 208 OFFCURVE",
"424 136 OFFCURVE",
"451 83 CURVE SMOOTH",
"486 14 OFFCURVE",
"513 -10 OFFCURVE",
"539 -10 CURVE SMOOTH"
);
},
{
closed = 1;
nodes = (
"340 366 OFFCURVE",
"319 368 OFFCURVE",
"304 373 CURVE",
"348 654 LINE",
"447 652 OFFCURVE",
"490 613 OFFCURVE",
"490 536 CURVE SMOOTH",
"490 434 OFFCURVE",
"437 366 OFFCURVE",
"358 366 CURVE SMOOTH"
);
}
);
width = 641;
},
{
associatedMasterId = "0B1DFD06-3317-40CA-B510-4969A0718C16";
layerId = "33610075-13A3-43EA-B328-24050E2460C1";
width = 600;
}
);
note = R;
unicode = 0052;
},
{
glyphname = S;
lastChange = "2018-02-27 11:48:33 +0000";
layers = (
{
background = {
paths = (
{
closed = 1;
nodes = (
"309 -10 OFFCURVE",
"426 98 OFFCURVE",
"426 219 CURVE SMOOTH",
"426 277 OFFCURVE",
"403 321 OFFCURVE",
"358 373 CURVE SMOOTH",
"261 485 LINE SMOOTH",
"243 507 OFFCURVE",
"230 527 OFFCURVE",
"230 559 CURVE SMOOTH",
"230 607 OFFCURVE",
"268 641 OFFCURVE",
"315 641 CURVE SMOOTH",
"363 641 OFFCURVE",
"391 621 OFFCURVE",
"391 586 CURVE SMOOTH",
"391 571 OFFCURVE",
"387 559 OFFCURVE",
"376 539 CURVE",
"389 523 OFFCURVE",
"415 518 OFFCURVE",
"424 529 CURVE",
"452 552 OFFCURVE",
"482 596 OFFCURVE",
"482 626 CURVE SMOOTH",
"482 678 OFFCURVE",
"436 710 OFFCURVE",
"343 710 CURVE SMOOTH",
"227 710 OFFCURVE",
"132 617 OFFCURVE",
"132 499 CURVE SMOOTH",
"132 456 OFFCURVE",
"143 433 OFFCURVE",
"170 401 CURVE SMOOTH",
"265 287 LINE SMOOTH",
"312 232 OFFCURVE",
"322 215 OFFCURVE",
"322 167 CURVE SMOOTH",
"322 106 OFFCURVE",
"276 62 OFFCURVE",
"222 62 CURVE SMOOTH",
"155 62 OFFCURVE",
"111 127 OFFCURVE",
"118 241 CURVE",
"21 116 LINE",
"34 40 OFFCURVE",
"94 -10 OFFCURVE",
"178 -10 CURVE SMOOTH"
);
}
);
};
layerId = "56450C88-1299-454A-B666-E6F9AF06B23F";
paths = (
{
closed = 1;
nodes = (
"309 -10 OFFCURVE",
"426 98 OFFCURVE",
"426 219 CURVE SMOOTH",
"426 277 OFFCURVE",
"403 321 OFFCURVE",
"358 373 CURVE SMOOTH",
"261 484 LINE SMOOTH",
"238 510 OFFCURVE",
"228 531 OFFCURVE",
"228 558 CURVE SMOOTH",
"228 608 OFFCURVE",
"263 642 OFFCURVE",
"315 642 CURVE SMOOTH",
"363 642 OFFCURVE",
"391 621 OFFCURVE",
"391 586 CURVE SMOOTH",
"391 571 OFFCURVE",
"387 559 OFFCURVE",
"376 539 CURVE",
"385 529 OFFCURVE",
"397 523 OFFCURVE",
"408 523 CURVE SMOOTH",
"415 523 OFFCURVE",
"422 526 OFFCURVE",
"426 530 CURVE SMOOTH",
"454 556 OFFCURVE",
"482 596 OFFCURVE",
"482 626 CURVE SMOOTH",
"482 679 OFFCURVE",
"430 710 OFFCURVE",
"343 710 CURVE SMOOTH",
"227 710 OFFCURVE",
"130 616 OFFCURVE",
"130 498 CURVE SMOOTH",
"130 463 OFFCURVE",
"141 435 OFFCURVE",
"170 400 CURVE SMOOTH",
"265 287 LINE SMOOTH",
"310 233 OFFCURVE",
"322 209 OFFCURVE",
"322 167 CURVE SMOOTH",
"322 104 OFFCURVE",
"282 62 OFFCURVE",
"222 62 CURVE SMOOTH",
"149 62 OFFCURVE",
"111 128 OFFCURVE",
"118 241 CURVE",
"21 116 LINE",
"34 40 OFFCURVE",
"94 -10 OFFCURVE",
"178 -10 CURVE SMOOTH"
);
}
);
width = 505;
},
{
background = {
paths = (
{
closed = 1;
nodes = (
"291 -10 OFFCURVE",
"400 91 OFFCURVE",
"400 209 CURVE SMOOTH",
"400 264 OFFCURVE",
"379 316 OFFCURVE",
"337 366 CURVE SMOOTH",
"241 478 LINE SMOOTH",
"216 507 OFFCURVE",
"204 534 OFFCURVE",
"204 569 CURVE SMOOTH",
"204 620 OFFCURVE",
"245 664 OFFCURVE",
"305 664 CURVE SMOOTH",
"363 664 OFFCURVE",
"398 638 OFFCURVE",
"398 596 CURVE SMOOTH",
"398 581 OFFCURVE",
"394 569 OFFCURVE",
"386 552 CURVE",
"391 548 OFFCURVE",
"395 544 OFFCURVE",
"400 544 CURVE SMOOTH",
"403 544 OFFCURVE",
"405 545 OFFCURVE",
"407 546 CURVE SMOOTH",
"433 559 OFFCURVE",
"456 611 OFFCURVE",
"456 636 CURVE SMOOTH",
"456 693 OFFCURVE",
"400 710 OFFCURVE",
"333 710 CURVE SMOOTH",
"221 710 OFFCURVE",
"139 614 OFFCURVE",
"139 509 CURVE SMOOTH",
"139 459 OFFCURVE",
"154 431 OFFCURVE",
"173 409 CURVE SMOOTH",
"272 291 LINE SMOOTH",
"311 244 OFFCURVE",
"329 212 OFFCURVE",
"329 157 CURVE SMOOTH",
"329 97 OFFCURVE",
"283 40 OFFCURVE",
"212 40 CURVE SMOOTH",
"138 40 OFFCURVE",
"98 102 OFFCURVE",
"92 187 CURVE",
"28 103 LINE",
"44 27 OFFCURVE",
"101 -10 OFFCURVE",
"168 -10 CURVE SMOOTH"
);
}
);
};
layerId = "0B1DFD06-3317-40CA-B510-4969A0718C16";
paths = (
{
closed = 1;
nodes = (
"291 -10 OFFCURVE",
"400 91 OFFCURVE",
"400 209 CURVE SMOOTH",
"400 264 OFFCURVE",
"379 316 OFFCURVE",
"337 366 CURVE SMOOTH",
"241 478 LINE SMOOTH",
"216 507 OFFCURVE",
"204 536 OFFCURVE",
"204 569 CURVE SMOOTH",
"204 626 OFFCURVE",
"244 664 OFFCURVE",
"305 664 CURVE SMOOTH",
"363 664 OFFCURVE",
"398 639 OFFCURVE",
"398 596 CURVE SMOOTH",
"398 581 OFFCURVE",
"394 569 OFFCURVE",
"386 552 CURVE",
"391 548 OFFCURVE",
"395 544 OFFCURVE",
"400 544 CURVE SMOOTH",
"403 544 OFFCURVE",
"406 545 OFFCURVE",
"408 546 CURVE SMOOTH",
"434 560 OFFCURVE",
"456 611 OFFCURVE",
"456 636 CURVE SMOOTH",
"456 683 OFFCURVE",
"411 710 OFFCURVE",
"335 710 CURVE SMOOTH",
"217 710 OFFCURVE",
"139 610 OFFCURVE",
"139 509 CURVE SMOOTH",
"139 459 OFFCURVE",
"154 433 OFFCURVE",
"174 409 CURVE SMOOTH",
"272 291 LINE SMOOTH",
"311 244 OFFCURVE",
"329 212 OFFCURVE",
"329 157 CURVE SMOOTH",
"329 87 OFFCURVE",
"282 40 OFFCURVE",
"212 40 CURVE SMOOTH",
"143 40 OFFCURVE",
"99 95 OFFCURVE",
"92 187 CURVE",
"28 103 LINE",
"44 27 OFFCURVE",
"101 -10 OFFCURVE",
"168 -10 CURVE SMOOTH"
);
}
);
width = 485;
},
{
associatedMasterId = "0B1DFD06-3317-40CA-B510-4969A0718C16";
layerId = "33610075-13A3-43EA-B328-24050E2460C1";
width = 600;
}
);
note = S;
unicode = 0053;
},
{
glyphname = T;
lastChange = "2018-02-27 11:48:33 +0000";
layers = (
{
background = {
paths = (
{
closed = 1;
nodes = (
"189 0 OFFCURVE",
"207 16 OFFCURVE",
"229 16 CURVE SMOOTH",
"250 16 OFFCURVE",
"286 0 OFFCURVE",
"304 0 CURVE SMOOTH",
"330 0 OFFCURVE",
"355 10 OFFCURVE",
"388 52 CURVE SMOOTH",
"395 61 OFFCURVE",
"398 68 OFFCURVE",
"398 78 CURVE SMOOTH",
"398 85 OFFCURVE",
"393 90 OFFCURVE",
"385 90 CURVE SMOOTH",
"373 90 OFFCURVE",
"355 78 OFFCURVE",
"339 78 CURVE SMOOTH",
"329 78 OFFCURVE",
"324 79 OFFCURVE",
"315 83 CURVE",
"315 84 LINE",
"323 91 OFFCURVE",
"331 111 OFFCURVE",
"336 137 CURVE SMOOTH",
"419 609 LINE",
"433 609 LINE SMOOTH",
"591 609 OFFCURVE",
"711 719 OFFCURVE",
"715 861 CURVE SMOOTH",
"716 905 OFFCURVE",
"707 937 OFFCURVE",
"687 963 CURVE",
"608 874 LINE",
"622 849 OFFCURVE",
"628 826 OFFCURVE",
"627 801 CURVE SMOOTH",
"624 734 OFFCURVE",
"577 700 OFFCURVE",
"490 700 CURVE SMOOTH",
"326 700 LINE SMOOTH",
"154 700 OFFCURVE",
"29 569 OFFCURVE",
"29 383 CURVE SMOOTH",
"29 351 OFFCURVE",
"32 319 OFFCURVE",
"39 280 CURVE",
"149 400 LINE",
"138 424 OFFCURVE",
"132 454 OFFCURVE",
"132 480 CURVE SMOOTH",
"132 562 OFFCURVE",
"183 609 OFFCURVE",
"270 609 CURVE SMOOTH",
"312 609 LINE",
"234 167 LINE SMOOTH",
"222 98 OFFCURVE",
"215 90 OFFCURVE",
"190 65 CURVE SMOOTH",
"170 45 OFFCURVE",
"158 26 OFFCURVE",
"158 13 CURVE SMOOTH",
"158 5 OFFCURVE",
"161 0 OFFCURVE",
"170 0 CURVE SMOOTH"
);
}
);
};
layerId = "56450C88-1299-454A-B666-E6F9AF06B23F";
paths = (
{
closed = 1;
nodes = (
"183 0 OFFCURVE",
"197 16 OFFCURVE",
"229 16 CURVE SMOOTH",
"261 16 OFFCURVE",
"288 0 OFFCURVE",
"316 0 CURVE SMOOTH",
"343 0 OFFCURVE",
"361 13 OFFCURVE",
"388 52 CURVE SMOOTH",
"395 62 OFFCURVE",
"398 71 OFFCURVE",
"398 80 CURVE SMOOTH",
"398 86 OFFCURVE",
"394 89 OFFCURVE",
"388 89 CURVE SMOOTH",
"375 89 OFFCURVE",
"365 78 OFFCURVE",
"340 78 CURVE SMOOTH",
"330 78 OFFCURVE",
"320 79 OFFCURVE",
"311 83 CURVE",
"311 84 LINE",
"323 94 OFFCURVE",
"333 116 OFFCURVE",
"336 137 CURVE SMOOTH",
"419 609 LINE",
"433 609 LINE SMOOTH",
"591 609 OFFCURVE",
"711 719 OFFCURVE",
"715 861 CURVE SMOOTH",
"716 905 OFFCURVE",
"707 937 OFFCURVE",
"687 963 CURVE",
"608 874 LINE",
"622 849 OFFCURVE",
"628 826 OFFCURVE",
"627 801 CURVE SMOOTH",
"624 734 OFFCURVE",
"577 700 OFFCURVE",
"490 700 CURVE SMOOTH",
"326 700 LINE SMOOTH",
"154 700 OFFCURVE",
"29 569 OFFCURVE",
"29 383 CURVE SMOOTH",
"29 351 OFFCURVE",
"32 319 OFFCURVE",
"39 280 CURVE",
"149 400 LINE",
"138 424 OFFCURVE",
"132 454 OFFCURVE",
"132 480 CURVE SMOOTH",
"132 562 OFFCURVE",
"183 609 OFFCURVE",
"270 609 CURVE SMOOTH",
"312 609 LINE",
"235 174 LINE SMOOTH",
"223 104 OFFCURVE",
"212 81 OFFCURVE",
"190 65 CURVE SMOOTH",
"168 49 OFFCURVE",
"158 30 OFFCURVE",
"158 10 CURVE SMOOTH",
"158 4 OFFCURVE",
"162 0 OFFCURVE",
"168 0 CURVE SMOOTH"
);
}
);
width = 597;
},
{
background = {
paths = (
{
closed = 1;
nodes = (
"178 -1 OFFCURVE",
"203 15 OFFCURVE",
"223 15 CURVE SMOOTH",
"245 15 OFFCURVE",
"277 -1 OFFCURVE",
"293 -1 CURVE SMOOTH",
"319 -1 OFFCURVE",
"332 9 OFFCURVE",
"363 45 CURVE SMOOTH",
"369 52 OFFCURVE",
"371 57 OFFCURVE",
"371 61 CURVE SMOOTH",
"371 65 OFFCURVE",
"371 68 OFFCURVE",
"365 68 CURVE SMOOTH",
"354 68 OFFCURVE",
"343 57 OFFCURVE",
"323 57 CURVE SMOOTH",
"311 57 OFFCURVE",
"298 59 OFFCURVE",
"283 65 CURVE",
"283 66 LINE",
"290 72 OFFCURVE",
"298 80 OFFCURVE",
"302 101 CURVE SMOOTH",
"394 630 LINE",
"425 630 LINE SMOOTH",
"581 630 OFFCURVE",
"687 727 OFFCURVE",
"691 871 CURVE SMOOTH",
"692 898 OFFCURVE",
"685 929 OFFCURVE",
"673 950 CURVE",
"613 884 LINE",
"627 863 OFFCURVE",
"633 838 OFFCURVE",
"632 811 CURVE SMOOTH",
"629 738 OFFCURVE",
"577 700 OFFCURVE",
"482 700 CURVE SMOOTH",
"318 700 LINE SMOOTH",
"163 700 OFFCURVE",
"51 585 OFFCURVE",
"37 412 CURVE SMOOTH",
"35 383 OFFCURVE",
"36 348 OFFCURVE",
"41 324 CURVE",
"120 412 LINE",
"108 445 OFFCURVE",
"103 474 OFFCURVE",
"104 499 CURVE SMOOTH",
"108 586 OFFCURVE",
"160 630 OFFCURVE",
"257 630 CURVE SMOOTH",
"318 630 LINE",
"241 164 LINE SMOOTH",
"228 84 OFFCURVE",
"215 73 OFFCURVE",
"186 48 CURVE SMOOTH",
"179 42 OFFCURVE",
"162 17 OFFCURVE",
"162 5 CURVE SMOOTH",
"162 1 OFFCURVE",
"164 -1 OFFCURVE",
"167 -1 CURVE SMOOTH"
);
}
);
};
layerId = "0B1DFD06-3317-40CA-B510-4969A0718C16";
paths = (
{
closed = 1;
nodes = (
"174 -1 OFFCURVE",
"199 15 OFFCURVE",
"219 15 CURVE SMOOTH",
"241 15 OFFCURVE",
"277 -1 OFFCURVE",
"293 -1 CURVE SMOOTH",
"319 -1 OFFCURVE",
"332 9 OFFCURVE",
"363 45 CURVE SMOOTH",
"369 52 OFFCURVE",
"371 57 OFFCURVE",
"371 61 CURVE SMOOTH",
"371 65 OFFCURVE",
"371 68 OFFCURVE",
"365 68 CURVE SMOOTH",
"354 68 OFFCURVE",
"343 57 OFFCURVE",
"323 57 CURVE SMOOTH",
"311 57 OFFCURVE",
"298 59 OFFCURVE",
"283 65 CURVE",
"283 66 LINE",
"293 78 OFFCURVE",
"300 89 OFFCURVE",
"304 113 CURVE SMOOTH",
"394 630 LINE",
"425 630 LINE SMOOTH",
"581 630 OFFCURVE",
"687 727 OFFCURVE",
"691 871 CURVE SMOOTH",
"692 898 OFFCURVE",
"685 929 OFFCURVE",
"673 950 CURVE",
"613 884 LINE",
"627 863 OFFCURVE",
"633 838 OFFCURVE",
"632 811 CURVE SMOOTH",
"629 738 OFFCURVE",
"577 700 OFFCURVE",
"482 700 CURVE SMOOTH",
"318 700 LINE SMOOTH",
"163 700 OFFCURVE",
"51 585 OFFCURVE",
"37 412 CURVE SMOOTH",
"35 383 OFFCURVE",
"36 348 OFFCURVE",
"41 324 CURVE",
"120 412 LINE",
"108 445 OFFCURVE",
"103 474 OFFCURVE",
"104 499 CURVE SMOOTH",
"108 586 OFFCURVE",
"160 630 OFFCURVE",
"257 630 CURVE SMOOTH",
"320 630 LINE",
"237 164 LINE SMOOTH",
"223 84 OFFCURVE",
"211 73 OFFCURVE",
"182 48 CURVE SMOOTH",
"175 42 OFFCURVE",
"158 17 OFFCURVE",
"158 5 CURVE SMOOTH",
"158 1 OFFCURVE",
"160 -1 OFFCURVE",
"163 -1 CURVE SMOOTH"
);
}
);
width = 579;
},
{
associatedMasterId = "0B1DFD06-3317-40CA-B510-4969A0718C16";
layerId = "33610075-13A3-43EA-B328-24050E2460C1";
width = 600;
}
);
note = T;
unicode = 0054;
},
{
glyphname = U;
lastChange = "2018-02-27 11:48:33 +0000";
layers = (
{
background = {
paths = (
{
closed = 1;
nodes = (
"466 -18 LINE",
"635 78 LINE SMOOTH",
"654 89 OFFCURVE",
"665 99 OFFCURVE",
"667 111 CURVE",
"669 123 OFFCURVE",
"670 132 OFFCURVE",
"670 162 CURVE",
"633 137 OFFCURVE",
"606 127 OFFCURVE",
"594 127 CURVE SMOOTH",
"582 127 OFFCURVE",
"583 135 OFFCURVE",
"586 158 CURVE SMOOTH",
"657 618 LINE SMOOTH",
"666 673 OFFCURVE",
"684 681 OFFCURVE",
"684 696 CURVE SMOOTH",
"684 704 OFFCURVE",
"680 710 OFFCURVE",
"665 710 CURVE SMOOTH",
"613 710 OFFCURVE",
"557 664 OFFCURVE",
"551 626 CURVE SMOOTH",
"505 354 LINE SMOOTH",
"477 187 OFFCURVE",
"423 76 OFFCURVE",
"347 76 CURVE SMOOTH",
"309 76 OFFCURVE",
"290 105 OFFCURVE",
"290 172 CURVE SMOOTH",
"290 200 OFFCURVE",
"294 234 OFFCURVE",
"300 269 CURVE SMOOTH",
"349 553 LINE SMOOTH",
"365 646 OFFCURVE",
"380 692 OFFCURVE",
"390 710 CURVE",
"340 710 LINE SMOOTH",
"148 710 OFFCURVE",
"16 579 OFFCURVE",
"16 393 CURVE SMOOTH",
"16 361 OFFCURVE",
"20 329 OFFCURVE",
"25 290 CURVE",
"136 410 LINE",
"125 434 OFFCURVE",
"119 464 OFFCURVE",
"119 490 CURVE SMOOTH",
"119 572 OFFCURVE",
"161 620 OFFCURVE",
"248 620 CURVE SMOOTH",
"252 620 LINE",
"187 273 LINE SMOOTH",
"181 239 OFFCURVE",
"176 204 OFFCURVE",
"176 166 CURVE SMOOTH",
"176 45 OFFCURVE",
"233 -10 OFFCURVE",
"309 -10 CURVE SMOOTH",
"371 -10 OFFCURVE",
"442 36 OFFCURVE",
"485 104 CURVE",
"486 104 LINE",
"465 -18 LINE"
);
},
{
closed = 1;
nodes = (
"185 228 LINE",
"292 228 LINE",
"346 535 LINE",
"239 535 LINE"
);
}
);
};
layerId = "56450C88-1299-454A-B666-E6F9AF06B23F";
paths = (
{
closed = 1;
nodes = (
"467 -18 LINE",
"635 78 LINE SMOOTH",
"654 89 OFFCURVE",
"665 99 OFFCURVE",
"667 111 CURVE",
"669 123 OFFCURVE",
"670 132 OFFCURVE",
"670 162 CURVE",
"633 137 OFFCURVE",
"606 127 OFFCURVE",
"594 127 CURVE SMOOTH",
"582 127 OFFCURVE",
"583 135 OFFCURVE",
"586 158 CURVE SMOOTH",
"657 618 LINE SMOOTH",
"666 673 OFFCURVE",
"684 681 OFFCURVE",
"684 696 CURVE SMOOTH",
"684 704 OFFCURVE",
"680 710 OFFCURVE",
"665 710 CURVE SMOOTH",
"613 710 OFFCURVE",
"558 664 OFFCURVE",
"552 626 CURVE SMOOTH",
"509 354 LINE SMOOTH",
"483 187 OFFCURVE",
"418 76 OFFCURVE",
"347 76 CURVE SMOOTH",
"309 76 OFFCURVE",
"290 105 OFFCURVE",
"290 172 CURVE SMOOTH",
"290 202 OFFCURVE",
"292 224 OFFCURVE",
"300 269 CURVE SMOOTH",
"349 553 LINE SMOOTH",
"365 646 OFFCURVE",
"380 692 OFFCURVE",
"390 710 CURVE",
"340 710 LINE SMOOTH",
"148 710 OFFCURVE",
"16 579 OFFCURVE",
"16 393 CURVE SMOOTH",
"16 361 OFFCURVE",
"20 329 OFFCURVE",
"25 290 CURVE",
"136 410 LINE",
"125 434 OFFCURVE",
"119 464 OFFCURVE",
"119 490 CURVE SMOOTH",
"119 572 OFFCURVE",
"161 620 OFFCURVE",
"248 620 CURVE SMOOTH",
"254 620 LINE",
"192 273 LINE SMOOTH",
"182 216 OFFCURVE",
"180 192 OFFCURVE",
"180 166 CURVE SMOOTH",
"180 45 OFFCURVE",
"233 -10 OFFCURVE",
"309 -10 CURVE SMOOTH",
"373 -10 OFFCURVE",
"441 34 OFFCURVE",
"486 109 CURVE",
"487 109 LINE",
"466 -18 LINE"
);
}
);
width = 712;
},
{
background = {
paths = (
{
closed = 1;
nodes = (
"470 -16 LINE",
"616 75 LINE SMOOTH",
"632 85 OFFCURVE",
"638 94 OFFCURVE",
"640 103 CURVE SMOOTH",
"642 113 OFFCURVE",
"642 122 OFFCURVE",
"642 127 CURVE",
"615 112 OFFCURVE",
"594 105 OFFCURVE",
"582 105 CURVE SMOOTH",
"562 105 OFFCURVE",
"556 118 OFFCURVE",
"559 148 CURVE",
"633 639 LINE SMOOTH",
"640 687 OFFCURVE",
"658 696 OFFCURVE",
"658 704 CURVE SMOOTH",
"658 708 OFFCURVE",
"654 710 OFFCURVE",
"648 710 CURVE SMOOTH",
"616 710 OFFCURVE",
"563 669 OFFCURVE",
"558 636 CURVE SMOOTH",
"515 363 LINE SMOOTH",
"485 178 OFFCURVE",
"414 54 OFFCURVE",
"337 54 CURVE SMOOTH",
"290 54 OFFCURVE",
"261 85 OFFCURVE",
"261 164 CURVE SMOOTH",
"261 186 OFFCURVE",
"265 227 OFFCURVE",
"270 259 CURVE SMOOTH",
"318 538 LINE SMOOTH",
"331 611 OFFCURVE",
"350 683 OFFCURVE",
"366 710 CURVE",
"319 710 LINE SMOOTH",
"136 710 OFFCURVE",
"14 587 OFFCURVE",
"14 403 CURVE SMOOTH",
"14 384 OFFCURVE",
"16 357 OFFCURVE",
"19 335 CURVE",
"99 423 LINE",
"88 450 OFFCURVE",
"84 470 OFFCURVE",
"84 500 CURVE SMOOTH",
"84 593 OFFCURVE",
"143 642 OFFCURVE",
"257 642 CURVE SMOOTH",
"263 642 LINE",
"193 260 LINE SMOOTH",
"188 234 OFFCURVE",
"182 187 OFFCURVE",
"182 158 CURVE SMOOTH",
"182 62 OFFCURVE",
"220 -10 OFFCURVE",
"299 -10 CURVE SMOOTH",
"371 -10 OFFCURVE",
"449 48 OFFCURVE",
"493 134 CURVE",
"494 134 LINE",
"469 -16 LINE"
);
}
);
};
layerId = "0B1DFD06-3317-40CA-B510-4969A0718C16";
paths = (
{
closed = 1;
nodes = (
"470 -16 LINE",
"616 75 LINE SMOOTH",
"632 85 OFFCURVE",
"638 94 OFFCURVE",
"640 103 CURVE SMOOTH",
"642 113 OFFCURVE",
"642 122 OFFCURVE",
"642 127 CURVE",
"615 112 OFFCURVE",
"594 105 OFFCURVE",
"582 105 CURVE SMOOTH",
"562 105 OFFCURVE",
"556 118 OFFCURVE",
"559 148 CURVE",
"633 639 LINE SMOOTH",
"640 687 OFFCURVE",
"658 696 OFFCURVE",
"658 704 CURVE SMOOTH",
"658 708 OFFCURVE",
"654 710 OFFCURVE",
"648 710 CURVE SMOOTH",
"616 710 OFFCURVE",
"563 669 OFFCURVE",
"558 636 CURVE SMOOTH",
"515 363 LINE SMOOTH",
"485 178 OFFCURVE",
"414 54 OFFCURVE",
"337 54 CURVE SMOOTH",
"290 54 OFFCURVE",
"261 85 OFFCURVE",
"261 164 CURVE SMOOTH",
"261 186 OFFCURVE",
"265 227 OFFCURVE",
"270 259 CURVE SMOOTH",
"318 538 LINE SMOOTH",
"331 611 OFFCURVE",
"350 683 OFFCURVE",
"366 710 CURVE",
"319 710 LINE SMOOTH",
"136 710 OFFCURVE",
"14 587 OFFCURVE",
"14 403 CURVE SMOOTH",
"14 384 OFFCURVE",
"16 357 OFFCURVE",
"19 335 CURVE",
"99 423 LINE",
"88 450 OFFCURVE",
"84 470 OFFCURVE",
"84 500 CURVE SMOOTH",
"84 593 OFFCURVE",
"143 642 OFFCURVE",
"257 642 CURVE SMOOTH",
"263 642 LINE",
"193 260 LINE SMOOTH",
"188 234 OFFCURVE",
"182 187 OFFCURVE",
"182 158 CURVE SMOOTH",
"182 62 OFFCURVE",
"220 -10 OFFCURVE",
"299 -10 CURVE SMOOTH",
"371 -10 OFFCURVE",
"449 48 OFFCURVE",
"493 134 CURVE",
"494 134 LINE",
"469 -16 LINE"
);
}
);
width = 692;
},
{
associatedMasterId = "0B1DFD06-3317-40CA-B510-4969A0718C16";
layerId = "33610075-13A3-43EA-B328-24050E2460C1";
width = 600;
}
);
note = U;
unicode = 0055;
},
{
glyphname = V;
lastChange = "2018-02-27 11:48:33 +0000";
layers = (
{
background = {
paths = (
{
closed = 1;
nodes = (
"394 93 LINE",
"402 115 OFFCURVE",
"404 123 OFFCURVE",
"410 133 CURVE SMOOTH",
"537 356 LINE SMOOTH",
"604 473 OFFCURVE",
"658 560 OFFCURVE",
"659 612 CURVE SMOOTH",
"660 660 OFFCURVE",
"638 693 OFFCURVE",
"598 718 CURVE",
"513 611 LINE",
"531 599 OFFCURVE",
"543 576 OFFCURVE",
"541 546 CURVE SMOOTH",
"536 475 OFFCURVE",
"488 388 OFFCURVE",
"377 215 CURVE",
"366 359 OFFCURVE",
"329 568 OFFCURVE",
"318 608 CURVE SMOOTH",
"297 685 OFFCURVE",
"268 710 OFFCURVE",
"221 710 CURVE SMOOTH",
"138 710 OFFCURVE",
"66 592 OFFCURVE",
"66 537 CURVE SMOOTH",
"66 513 OFFCURVE",
"80 501 OFFCURVE",
"118 496 CURVE",
"134 563 OFFCURVE",
"154 600 OFFCURVE",
"179 600 CURVE SMOOTH",
"194 600 OFFCURVE",
"201 585 OFFCURVE",
"206 561 CURVE SMOOTH",
"232 436 OFFCURVE",
"279 196 OFFCURVE",
"279 -38 CURVE"
);
}
);
};
layerId = "56450C88-1299-454A-B666-E6F9AF06B23F";
paths = (
{
closed = 1;
nodes = (
"280 -10 LINE",
"394 93 LINE",
"402 115 OFFCURVE",
"404 123 OFFCURVE",
"410 133 CURVE SMOOTH",
"537 356 LINE SMOOTH",
"604 473 OFFCURVE",
"658 560 OFFCURVE",
"659 612 CURVE SMOOTH",
"660 660 OFFCURVE",
"638 693 OFFCURVE",
"598 718 CURVE",
"513 611 LINE",
"531 597 OFFCURVE",
"542 578 OFFCURVE",
"542 548 CURVE SMOOTH",
"542 477 OFFCURVE",
"488 386 OFFCURVE",
"377 213 CURVE",
"366 357 OFFCURVE",
"329 568 OFFCURVE",
"318 608 CURVE SMOOTH",
"297 685 OFFCURVE",
"268 710 OFFCURVE",
"221 710 CURVE SMOOTH",
"138 710 OFFCURVE",
"66 592 OFFCURVE",
"66 537 CURVE SMOOTH",
"66 513 OFFCURVE",
"80 501 OFFCURVE",
"118 496 CURVE",
"134 563 OFFCURVE",
"152 600 OFFCURVE",
"177 600 CURVE SMOOTH",
"192 600 OFFCURVE",
"201 585 OFFCURVE",
"206 561 CURVE SMOOTH",
"232 436 OFFCURVE",
"279 184 OFFCURVE",
"279 -10 CURVE"
);
}
);
width = 604;
},
{
background = {
paths = (
{
closed = 1;
nodes = (
"223 -10 LINE",
"305 86 LINE",
"313 108 OFFCURVE",
"317 116 OFFCURVE",
"324 128 CURVE SMOOTH",
"455 362 LINE SMOOTH",
"524 486 OFFCURVE",
"570 569 OFFCURVE",
"571 622 CURVE SMOOTH",
"572 660 OFFCURVE",
"560 690 OFFCURVE",
"532 711 CURVE",
"463 624 LINE",
"480 608 OFFCURVE",
"487 588 OFFCURVE",
"487 555 CURVE SMOOTH",
"487 493 OFFCURVE",
"416 344 OFFCURVE",
"296 154 CURVE",
"281 351 OFFCURVE",
"255 535 OFFCURVE",
"230 615 CURVE SMOOTH",
"206 688 OFFCURVE",
"187 710 OFFCURVE",
"146 710 CURVE SMOOTH",
"89 710 OFFCURVE",
"13 602 OFFCURVE",
"13 547 CURVE SMOOTH",
"13 534 OFFCURVE",
"19 526 OFFCURVE",
"35 521 CURVE",
"53 587 OFFCURVE",
"77 621 OFFCURVE",
"110 621 CURVE SMOOTH",
"129 621 OFFCURVE",
"145 604 OFFCURVE",
"152 574 CURVE SMOOTH",
"182 456 OFFCURVE",
"218 214 OFFCURVE",
"222 -10 CURVE"
);
}
);
};
layerId = "0B1DFD06-3317-40CA-B510-4969A0718C16";
paths = (
{
closed = 1;
nodes = (
"223 -10 LINE",
"305 86 LINE",
"313 108 OFFCURVE",
"317 116 OFFCURVE",
"324 128 CURVE SMOOTH",
"459 362 LINE SMOOTH",
"530 486 OFFCURVE",
"570 569 OFFCURVE",
"571 622 CURVE SMOOTH",
"572 660 OFFCURVE",
"560 690 OFFCURVE",
"532 711 CURVE",
"461 624 LINE",
"478 608 OFFCURVE",
"485 588 OFFCURVE",
"485 555 CURVE SMOOTH",
"485 493 OFFCURVE",
"415 355 OFFCURVE",
"295 165 CURVE",
"280 362 OFFCURVE",
"255 535 OFFCURVE",
"230 615 CURVE SMOOTH",
"206 688 OFFCURVE",
"187 710 OFFCURVE",
"146 710 CURVE SMOOTH",
"89 710 OFFCURVE",
"13 602 OFFCURVE",
"13 547 CURVE SMOOTH",
"13 534 OFFCURVE",
"19 526 OFFCURVE",
"35 521 CURVE",
"53 587 OFFCURVE",
"77 621 OFFCURVE",
"110 621 CURVE SMOOTH",
"131 621 OFFCURVE",
"145 604 OFFCURVE",
"152 574 CURVE SMOOTH",
"182 456 OFFCURVE",
"218 214 OFFCURVE",
"222 -10 CURVE"
);
}
);
width = 583;
},
{
associatedMasterId = "0B1DFD06-3317-40CA-B510-4969A0718C16";
layerId = "33610075-13A3-43EA-B328-24050E2460C1";
width = 600;
}
);
note = V;
unicode = 0056;
},
{
glyphname = W;
lastChange = "2018-02-27 11:48:33 +0000";
layers = (
{
background = {
paths = (
{
closed = 1;
nodes = (
"558 92 LINE",
"572 122 OFFCURVE",
"728 453 OFFCURVE",
"741 489 CURVE SMOOTH",
"763 548 OFFCURVE",
"784 588 OFFCURVE",
"784 625 CURVE SMOOTH",
"784 659 OFFCURVE",
"764 690 OFFCURVE",
"725 719 CURVE",
"640 611 LINE",
"662 596 OFFCURVE",
"672 572 OFFCURVE",
"672 543 CURVE SMOOTH",
"672 501 OFFCURVE",
"648 441 OFFCURVE",
"611 372 CURVE SMOOTH",
"530 220 OFFCURVE",
"525 193 OFFCURVE",
"521 189 CURVE",
"550 185 LINE",
"549 191 OFFCURVE",
"547 203 OFFCURVE",
"546 215 CURVE SMOOTH",
"535 347 LINE SMOOTH",
"529 423 OFFCURVE",
"526 500 OFFCURVE",
"526 593 CURVE SMOOTH",
"526 620 OFFCURVE",
"531 655 OFFCURVE",
"535 676 CURVE",
"429 595 LINE",
"405 525 OFFCURVE",
"322 411 OFFCURVE",
"250 237 CURVE",
"279 232 LINE",
"284 306 OFFCURVE",
"285 361 OFFCURVE",
"285 414 CURVE SMOOTH",
"285 639 OFFCURVE",
"255 710 OFFCURVE",
"182 710 CURVE SMOOTH",
"119 710 OFFCURVE",
"34 609 OFFCURVE",
"34 534 CURVE SMOOTH",
"34 515 OFFCURVE",
"52 501 OFFCURVE",
"89 496 CURVE",
"99 559 OFFCURVE",
"130 602 OFFCURVE",
"152 602 CURVE SMOOTH",
"166 602 OFFCURVE",
"183 547 OFFCURVE",
"183 435 CURVE SMOOTH",
"183 315 OFFCURVE",
"181 222 OFFCURVE",
"154 13 CURVE",
"183 -4 LINE",
"264 90 LINE",
"272 107 OFFCURVE",
"284 132 OFFCURVE",
"298 165 CURVE SMOOTH",
"325 229 OFFCURVE",
"367 309 OFFCURVE",
"450 479 CURVE",
"423 486 LINE",
"426 383 OFFCURVE",
"453 161 OFFCURVE",
"453 36 CURVE SMOOTH",
"453 -38 LINE"
);
}
);
};
layerId = "56450C88-1299-454A-B666-E6F9AF06B23F";
paths = (
{
closed = 1;
nodes = (
"454 -10 LINE",
"558 92 LINE",
"572 122 OFFCURVE",
"727 450 OFFCURVE",
"740 486 CURVE SMOOTH",
"762 546 OFFCURVE",
"784 589 OFFCURVE",
"784 625 CURVE SMOOTH",
"784 657 OFFCURVE",
"764 693 OFFCURVE",
"725 719 CURVE",
"640 611 LINE",
"662 596 OFFCURVE",
"672 572 OFFCURVE",
"672 543 CURVE SMOOTH",
"672 501 OFFCURVE",
"647 442 OFFCURVE",
"613 372 CURVE SMOOTH",
"580 304 OFFCURVE",
"551 246 OFFCURVE",
"545 232 CURVE",
"544 232 LINE",
"542 248 OFFCURVE",
"541 261 OFFCURVE",
"536 337 CURVE SMOOTH",
"531 414 OFFCURVE",
"526 518 OFFCURVE",
"526 573 CURVE SMOOTH",
"526 606 OFFCURVE",
"530 648 OFFCURVE",
"535 676 CURVE",
"534 676 LINE",
"429 595 LINE",
"405 525 OFFCURVE",
"352 452 OFFCURVE",
"283 300 CURVE",
"282 300 LINE",
"284 327 OFFCURVE",
"285 375 OFFCURVE",
"285 414 CURVE SMOOTH",
"285 639 OFFCURVE",
"267 710 OFFCURVE",
"184 710 CURVE SMOOTH",
"117 710 OFFCURVE",
"34 609 OFFCURVE",
"34 534 CURVE SMOOTH",
"34 515 OFFCURVE",
"52 501 OFFCURVE",
"89 496 CURVE",
"99 559 OFFCURVE",
"130 602 OFFCURVE",
"152 602 CURVE SMOOTH",
"175 602 OFFCURVE",
"183 547 OFFCURVE",
"183 435 CURVE SMOOTH",
"183 315 OFFCURVE",
"181 224 OFFCURVE",
"154 15 CURVE",
"174 0 LINE",
"264 90 LINE",
"298 165 OFFCURVE",
"355 312 OFFCURVE",
"425 434 CURVE",
"426 434 LINE",
"429 331 OFFCURVE",
"453 161 OFFCURVE",
"453 36 CURVE SMOOTH",
"453 -10 LINE"
);
}
);
width = 805;
},
{
background = {
paths = (
{
closed = 1;
nodes = (
"458 -10 LINE",
"532 85 LINE",
"542 107 OFFCURVE",
"701 465 OFFCURVE",
"718 504 CURVE SMOOTH",
"742 560 OFFCURVE",
"758 601 OFFCURVE",
"758 635 CURVE SMOOTH",
"758 662 OFFCURVE",
"746 687 OFFCURVE",
"719 712 CURVE",
"650 624 LINE",
"669 606 OFFCURVE",
"679 585 OFFCURVE",
"679 553 CURVE SMOOTH",
"679 511 OFFCURVE",
"655 454 OFFCURVE",
"616 369 CURVE SMOOTH",
"537 198 OFFCURVE",
"527 178 OFFCURVE",
"523 169 CURVE",
"522 169 LINE",
"521 175 OFFCURVE",
"519 215 OFFCURVE",
"508 348 CURVE SMOOTH",
"501 435 OFFCURVE",
"500 508 OFFCURVE",
"500 604 CURVE SMOOTH",
"500 631 OFFCURVE",
"505 668 OFFCURVE",
"509 689 CURVE",
"508 689 LINE",
"433 602 LINE",
"412 532 OFFCURVE",
"324 395 OFFCURVE",
"253 218 CURVE",
"252 218 LINE",
"256 290 OFFCURVE",
"259 357 OFFCURVE",
"259 414 CURVE SMOOTH",
"259 577 OFFCURVE",
"248 710 OFFCURVE",
"172 710 CURVE SMOOTH",
"113 710 OFFCURVE",
"41 602 OFFCURVE",
"41 544 CURVE SMOOTH",
"41 532 OFFCURVE",
"49 526 OFFCURVE",
"66 521 CURVE",
"76 569 OFFCURVE",
"104 624 OFFCURVE",
"142 624 CURVE SMOOTH",
"182 624 OFFCURVE",
"190 525 OFFCURVE",
"190 445 CURVE SMOOTH",
"190 328 OFFCURVE",
"185 212 OFFCURVE",
"158 5 CURVE",
"167 0 LINE",
"238 83 LINE",
"259 136 OFFCURVE",
"380 397 OFFCURVE",
"429 499 CURVE",
"430 499 LINE",
"433 396 OFFCURVE",
"457 151 OFFCURVE",
"457 26 CURVE SMOOTH",
"457 -10 LINE"
);
}
);
};
layerId = "0B1DFD06-3317-40CA-B510-4969A0718C16";
paths = (
{
closed = 1;
nodes = (
"458 -10 LINE",
"532 85 LINE",
"542 107 OFFCURVE",
"703 464 OFFCURVE",
"720 503 CURVE SMOOTH",
"747 565 OFFCURVE",
"758 607 OFFCURVE",
"758 635 CURVE SMOOTH",
"758 662 OFFCURVE",
"745 688 OFFCURVE",
"719 712 CURVE",
"648 624 LINE",
"667 606 OFFCURVE",
"674 585 OFFCURVE",
"674 553 CURVE SMOOTH",
"674 511 OFFCURVE",
"654 454 OFFCURVE",
"615 369 CURVE SMOOTH",
"536 198 OFFCURVE",
"527 168 OFFCURVE",
"523 159 CURVE",
"522 159 LINE",
"519 197 OFFCURVE",
"518 229 OFFCURVE",
"508 348 CURVE SMOOTH",
"503 410 OFFCURVE",
"500 532 OFFCURVE",
"500 584 CURVE SMOOTH",
"500 612 OFFCURVE",
"503 657 OFFCURVE",
"509 689 CURVE",
"508 689 LINE",
"433 602 LINE",
"412 532 OFFCURVE",
"329 395 OFFCURVE",
"253 218 CURVE",
"252 218 LINE",
"257 304 OFFCURVE",
"260 383 OFFCURVE",
"260 414 CURVE SMOOTH",
"260 577 OFFCURVE",
"248 710 OFFCURVE",
"172 710 CURVE SMOOTH",
"115 710 OFFCURVE",
"41 602 OFFCURVE",
"41 547 CURVE SMOOTH",
"41 534 OFFCURVE",
"47 526 OFFCURVE",
"63 521 CURVE",
"81 587 OFFCURVE",
"105 624 OFFCURVE",
"138 624 CURVE SMOOTH",
"171 624 OFFCURVE",
"186 568 OFFCURVE",
"186 445 CURVE SMOOTH",
"186 297 OFFCURVE",
"176 146 OFFCURVE",
"158 5 CURVE",
"167 0 LINE",
"238 83 LINE",
"259 136 OFFCURVE",
"378 397 OFFCURVE",
"429 499 CURVE",
"430 499 LINE",
"433 396 OFFCURVE",
"457 151 OFFCURVE",
"457 26 CURVE SMOOTH",
"457 -10 LINE"
);
}
);
width = 786;
},
{
associatedMasterId = "0B1DFD06-3317-40CA-B510-4969A0718C16";
layerId = "33610075-13A3-43EA-B328-24050E2460C1";
width = 600;
}
);
note = W;
unicode = 0057;
},
{
glyphname = X;
lastChange = "2018-02-27 11:48:33 +0000";
layers = (
{
background = {
paths = (
{
closed = 1;
nodes = (
"510 -10 OFFCURVE",
"578 103 OFFCURVE",
"578 142 CURVE SMOOTH",
"578 167 OFFCURVE",
"559 183 OFFCURVE",
"529 191 CURVE",
"510 121 OFFCURVE",
"491 97 OFFCURVE",
"473 97 CURVE SMOOTH",
"468 97 OFFCURVE",
"452 128 OFFCURVE",
"436 188 CURVE SMOOTH",
"388 369 LINE",
"435 452 OFFCURVE",
"472 511 OFFCURVE",
"508 559 CURVE SMOOTH",
"534 594 OFFCURVE",
"542 599 OFFCURVE",
"560 599 CURVE SMOOTH",
"572 599 OFFCURVE",
"578 595 OFFCURVE",
"598 581 CURVE",
"684 678 LINE",
"662 697 OFFCURVE",
"631 710 OFFCURVE",
"598 710 CURVE SMOOTH",
"530 710 OFFCURVE",
"461 647 OFFCURVE",
"385 501 CURVE SMOOTH",
"362 457 LINE",
"317 627 LINE SMOOTH",
"301 687 OFFCURVE",
"274 710 OFFCURVE",
"237 710 CURVE SMOOTH",
"179 710 OFFCURVE",
"101 610 OFFCURVE",
"101 540 CURVE SMOOTH",
"101 514 OFFCURVE",
"115 502 OFFCURVE",
"151 499 CURVE",
"169 562 OFFCURVE",
"189 594 OFFCURVE",
"203 594 CURVE SMOOTH",
"207 594 OFFCURVE",
"220 577 OFFCURVE",
"234 521 CURVE SMOOTH",
"280 338 LINE",
"273 323 LINE SMOOTH",
"194 152 OFFCURVE",
"129 100 OFFCURVE",
"92 100 CURVE SMOOTH",
"79 100 OFFCURVE",
"73 105 OFFCURVE",
"57 117 CURVE",
"-27 22 LINE",
"-10 3 OFFCURVE",
"22 -10 OFFCURVE",
"48 -10 CURVE SMOOTH",
"144 -10 OFFCURVE",
"235 82 OFFCURVE",
"322 259 CURVE",
"312 233 LINE",
"325 185 LINE SMOOTH",
"368 26 OFFCURVE",
"390 -10 OFFCURVE",
"442 -10 CURVE SMOOTH"
);
}
);
};
layerId = "56450C88-1299-454A-B666-E6F9AF06B23F";
paths = (
{
closed = 1;
nodes = (
"510 -10 OFFCURVE",
"578 103 OFFCURVE",
"578 142 CURVE SMOOTH",
"578 167 OFFCURVE",
"559 183 OFFCURVE",
"529 191 CURVE",
"510 121 OFFCURVE",
"494 97 OFFCURVE",
"476 97 CURVE SMOOTH",
"460 97 OFFCURVE",
"452 128 OFFCURVE",
"436 188 CURVE SMOOTH",
"388 369 LINE",
"422 437 OFFCURVE",
"470 519 OFFCURVE",
"514 572 CURVE SMOOTH",
"528 589 OFFCURVE",
"541 599 OFFCURVE",
"560 599 CURVE SMOOTH",
"576 599 OFFCURVE",
"584 592 OFFCURVE",
"598 581 CURVE",
"684 678 LINE",
"660 699 OFFCURVE",
"630 710 OFFCURVE",
"598 710 CURVE SMOOTH",
"530 710 OFFCURVE",
"461 647 OFFCURVE",
"385 501 CURVE SMOOTH",
"362 457 LINE",
"317 627 LINE SMOOTH",
"301 687 OFFCURVE",
"274 710 OFFCURVE",
"237 710 CURVE SMOOTH",
"179 710 OFFCURVE",
"101 610 OFFCURVE",
"101 540 CURVE SMOOTH",
"101 514 OFFCURVE",
"115 502 OFFCURVE",
"151 499 CURVE",
"169 562 OFFCURVE",
"185 594 OFFCURVE",
"201 594 CURVE SMOOTH",
"214 594 OFFCURVE",
"220 577 OFFCURVE",
"234 521 CURVE SMOOTH",
"280 338 LINE",
"273 323 LINE SMOOTH",
"194 152 OFFCURVE",
"130 100 OFFCURVE",
"93 100 CURVE SMOOTH",
"80 100 OFFCURVE",
"69 105 OFFCURVE",
"57 117 CURVE",
"-27 22 LINE",
"-9 2 OFFCURVE",
"19 -10 OFFCURVE",
"48 -10 CURVE SMOOTH",
"136 -10 OFFCURVE",
"232 80 OFFCURVE",
"308 231 CURVE SMOOTH",
"311 237 LINE",
"325 185 LINE SMOOTH",
"368 27 OFFCURVE",
"390 -10 OFFCURVE",
"442 -10 CURVE SMOOTH"
);
}
);
width = 641;
},
{
background = {
paths = (
{
closed = 1;
nodes = (
"489 -10 OFFCURVE",
"552 93 OFFCURVE",
"552 132 CURVE SMOOTH",
"552 142 OFFCURVE",
"548 155 OFFCURVE",
"531 163 CURVE",
"519 124 OFFCURVE",
"500 75 OFFCURVE",
"465 75 CURVE SMOOTH",
"444 75 OFFCURVE",
"427 108 OFFCURVE",
"408 175 CURVE SMOOTH",
"356 369 LINE",
"403 466 OFFCURVE",
"437 523 OFFCURVE",
"477 575 CURVE SMOOTH",
"508 614 OFFCURVE",
"521 621 OFFCURVE",
"544 621 CURVE SMOOTH",
"556 621 OFFCURVE",
"566 619 OFFCURVE",
"577 611 CURVE",
"645 688 LINE",
"623 704 OFFCURVE",
"603 710 OFFCURVE",
"582 710 CURVE SMOOTH",
"517 710 OFFCURVE",
"454 639 OFFCURVE",
"381 506 CURVE SMOOTH",
"338 427 LINE",
"282 634 LINE SMOOTH",
"270 681 OFFCURVE",
"253 710 OFFCURVE",
"221 710 CURVE SMOOTH",
"171 710 OFFCURVE",
"100 607 OFFCURVE",
"100 550 CURVE SMOOTH",
"100 534 OFFCURVE",
"107 527 OFFCURVE",
"119 524 CURVE",
"141 587 OFFCURVE",
"163 616 OFFCURVE",
"188 616 CURVE SMOOTH",
"212 616 OFFCURVE",
"226 565 OFFCURVE",
"233 534 CURVE SMOOTH",
"282 338 LINE",
"273 319 LINE SMOOTH",
"245 260 OFFCURVE",
"161 78 OFFCURVE",
"84 78 CURVE SMOOTH",
"71 78 OFFCURVE",
"59 80 OFFCURVE",
"49 87 CURVE",
"-18 12 LINE",
"-1 -1 OFFCURVE",
"22 -10 OFFCURVE",
"40 -10 CURVE SMOOTH",
"124 -10 OFFCURVE",
"213 77 OFFCURVE",
"294 264 CURVE SMOOTH",
"300 278 LINE",
"327 179 LINE SMOOTH",
"357 71 OFFCURVE",
"382 -10 OFFCURVE",
"434 -10 CURVE SMOOTH"
);
}
);
};
layerId = "0B1DFD06-3317-40CA-B510-4969A0718C16";
paths = (
{
closed = 1;
nodes = (
"489 -10 OFFCURVE",
"552 93 OFFCURVE",
"552 132 CURVE SMOOTH",
"552 142 OFFCURVE",
"548 155 OFFCURVE",
"531 163 CURVE",
"519 124 OFFCURVE",
"500 75 OFFCURVE",
"465 75 CURVE SMOOTH",
"440 75 OFFCURVE",
"427 108 OFFCURVE",
"408 175 CURVE SMOOTH",
"356 369 LINE",
"403 466 OFFCURVE",
"433 523 OFFCURVE",
"473 575 CURVE SMOOTH",
"498 607 OFFCURVE",
"520 621 OFFCURVE",
"544 621 CURVE SMOOTH",
"557 621 OFFCURVE",
"568 618 OFFCURVE",
"577 611 CURVE",
"645 688 LINE",
"623 704 OFFCURVE",
"603 710 OFFCURVE",
"582 710 CURVE SMOOTH",
"517 710 OFFCURVE",
"454 639 OFFCURVE",
"381 506 CURVE SMOOTH",
"338 427 LINE",
"284 634 LINE SMOOTH",
"272 684 OFFCURVE",
"250 710 OFFCURVE",
"221 710 CURVE SMOOTH",
"171 710 OFFCURVE",
"100 607 OFFCURVE",
"100 550 CURVE SMOOTH",
"100 534 OFFCURVE",
"107 527 OFFCURVE",
"119 524 CURVE",
"141 587 OFFCURVE",
"163 616 OFFCURVE",
"188 616 CURVE SMOOTH",
"210 616 OFFCURVE",
"220 590 OFFCURVE",
"233 534 CURVE SMOOTH",
"282 338 LINE",
"273 319 LINE SMOOTH",
"245 260 OFFCURVE",
"163 78 OFFCURVE",
"86 78 CURVE SMOOTH",
"71 78 OFFCURVE",
"60 81 OFFCURVE",
"49 88 CURVE",
"-18 12 LINE",
"-2 -3 OFFCURVE",
"22 -10 OFFCURVE",
"42 -10 CURVE SMOOTH",
"127 -10 OFFCURVE",
"220 92 OFFCURVE",
"294 265 CURVE SMOOTH",
"300 279 LINE",
"327 179 LINE SMOOTH",
"356 71 OFFCURVE",
"382 -10 OFFCURVE",
"434 -10 CURVE SMOOTH"
);
}
);
width = 612;
},
{
associatedMasterId = "0B1DFD06-3317-40CA-B510-4969A0718C16";
layerId = "33610075-13A3-43EA-B328-24050E2460C1";
width = 600;
}
);
note = X;
unicode = 0058;
},
{
glyphname = Y;
lastChange = "2018-02-27 11:48:33 +0000";
layers = (
{
background = {
paths = (
{
closed = 1;
nodes = (
"148 0 OFFCURVE",
"166 16 OFFCURVE",
"188 16 CURVE SMOOTH",
"209 16 OFFCURVE",
"245 0 OFFCURVE",
"263 0 CURVE SMOOTH",
"289 0 OFFCURVE",
"314 10 OFFCURVE",
"347 52 CURVE SMOOTH",
"354 61 OFFCURVE",
"357 68 OFFCURVE",
"357 78 CURVE SMOOTH",
"357 85 OFFCURVE",
"352 90 OFFCURVE",
"344 90 CURVE SMOOTH",
"332 90 OFFCURVE",
"314 78 OFFCURVE",
"298 78 CURVE SMOOTH",
"288 78 OFFCURVE",
"282 79 OFFCURVE",
"273 83 CURVE",
"273 84 LINE",
"283 93 OFFCURVE",
"288 112 OFFCURVE",
"292 135 CURVE SMOOTH",
"316 263 LINE SMOOTH",
"346 423 OFFCURVE",
"450 592 OFFCURVE",
"509 592 CURVE SMOOTH",
"527 592 OFFCURVE",
"538 584 OFFCURVE",
"550 566 CURVE",
"625 675 LINE",
"598 700 OFFCURVE",
"574 710 OFFCURVE",
"543 710 CURVE SMOOTH",
"471 710 OFFCURVE",
"368 597 OFFCURVE",
"311 428 CURVE",
"310 428 LINE",
"291 603 OFFCURVE",
"235 710 OFFCURVE",
"160 710 CURVE SMOOTH",
"103 710 OFFCURVE",
"41 628 OFFCURVE",
"41 587 CURVE SMOOTH",
"41 569 OFFCURVE",
"56 554 OFFCURVE",
"86 544 CURVE",
"99 578 OFFCURVE",
"115 612 OFFCURVE",
"134 612 CURVE SMOOTH",
"178 612 OFFCURVE",
"232 374 OFFCURVE",
"208 250 CURVE SMOOTH",
"192 166 LINE SMOOTH",
"179 99 OFFCURVE",
"174 90 OFFCURVE",
"149 65 CURVE SMOOTH",
"129 45 OFFCURVE",
"117 26 OFFCURVE",
"117 13 CURVE SMOOTH",
"117 5 OFFCURVE",
"120 0 OFFCURVE",
"129 0 CURVE SMOOTH"
);
}
);
};
layerId = "56450C88-1299-454A-B666-E6F9AF06B23F";
paths = (
{
closed = 1;
nodes = (
"142 0 OFFCURVE",
"156 16 OFFCURVE",
"188 16 CURVE SMOOTH",
"220 16 OFFCURVE",
"247 0 OFFCURVE",
"275 0 CURVE SMOOTH",
"302 0 OFFCURVE",
"320 13 OFFCURVE",
"347 52 CURVE SMOOTH",
"354 62 OFFCURVE",
"357 71 OFFCURVE",
"357 80 CURVE SMOOTH",
"357 86 OFFCURVE",
"353 89 OFFCURVE",
"347 89 CURVE SMOOTH",
"334 89 OFFCURVE",
"324 78 OFFCURVE",
"299 78 CURVE SMOOTH",
"289 78 OFFCURVE",
"279 79 OFFCURVE",
"270 83 CURVE",
"270 84 LINE",
"280 93 OFFCURVE",
"288 113 OFFCURVE",
"292 135 CURVE SMOOTH",
"316 263 LINE SMOOTH",
"346 423 OFFCURVE",
"450 592 OFFCURVE",
"509 592 CURVE SMOOTH",
"527 592 OFFCURVE",
"538 584 OFFCURVE",
"550 566 CURVE",
"625 675 LINE",
"598 700 OFFCURVE",
"574 710 OFFCURVE",
"543 710 CURVE SMOOTH",
"471 710 OFFCURVE",
"368 597 OFFCURVE",
"311 428 CURVE",
"310 428 LINE",
"291 603 OFFCURVE",
"235 710 OFFCURVE",
"160 710 CURVE SMOOTH",
"103 710 OFFCURVE",
"41 628 OFFCURVE",
"41 587 CURVE SMOOTH",
"41 569 OFFCURVE",
"56 554 OFFCURVE",
"86 544 CURVE",
"99 578 OFFCURVE",
"115 612 OFFCURVE",
"134 612 CURVE SMOOTH",
"178 612 OFFCURVE",
"232 374 OFFCURVE",
"208 250 CURVE SMOOTH",
"192 166 LINE SMOOTH",
"180 102 OFFCURVE",
"171 81 OFFCURVE",
"149 65 CURVE SMOOTH",
"127 49 OFFCURVE",
"117 30 OFFCURVE",
"117 10 CURVE SMOOTH",
"117 4 OFFCURVE",
"121 0 OFFCURVE",
"127 0 CURVE SMOOTH"
);
}
);
width = 600;
},
{
background = {
paths = (
{
closed = 1;
nodes = (
"128 -11 OFFCURVE",
"153 6 OFFCURVE",
"175 6 CURVE SMOOTH",
"201 6 OFFCURVE",
"227 -11 OFFCURVE",
"251 -11 CURVE SMOOTH",
"263 -11 OFFCURVE",
"283 -5 OFFCURVE",
"316 32 CURVE SMOOTH",
"326 43 OFFCURVE",
"329 48 OFFCURVE",
"329 52 CURVE SMOOTH",
"329 57 OFFCURVE",
"326 59 OFFCURVE",
"321 59 CURVE SMOOTH",
"312 59 OFFCURVE",
"300 48 OFFCURVE",
"283 48 CURVE SMOOTH",
"268 48 OFFCURVE",
"256 51 OFFCURVE",
"242 57 CURVE",
"243 59 LINE",
"249 68 OFFCURVE",
"255 76 OFFCURVE",
"259 94 CURVE SMOOTH",
"292 273 LINE SMOOTH",
"315 398 OFFCURVE",
"420 614 OFFCURVE",
"505 614 CURVE SMOOTH",
"516 614 OFFCURVE",
"527 611 OFFCURVE",
"540 599 CURVE",
"597 685 LINE",
"577 701 OFFCURVE",
"560 710 OFFCURVE",
"544 710 CURVE SMOOTH",
"441 710 OFFCURVE",
"341 521 OFFCURVE",
"291 379 CURVE",
"290 379 LINE",
"281 514 OFFCURVE",
"242 710 OFFCURVE",
"150 710 CURVE SMOOTH",
"111 710 OFFCURVE",
"48 635 OFFCURVE",
"48 597 CURVE SMOOTH",
"48 586 OFFCURVE",
"53 579 OFFCURVE",
"68 572 CURVE",
"87 615 OFFCURVE",
"106 634 OFFCURVE",
"124 634 CURVE SMOOTH",
"195 634 OFFCURVE",
"237 364 OFFCURVE",
"217 257 CURVE SMOOTH",
"197 153 LINE SMOOTH",
"186 97 OFFCURVE",
"182 71 OFFCURVE",
"142 41 CURVE SMOOTH",
"131 33 OFFCURVE",
"122 13 OFFCURVE",
"119 0 CURVE SMOOTH",
"117 -7 OFFCURVE",
"118 -11 OFFCURVE",
"122 -11 CURVE SMOOTH"
);
}
);
};
layerId = "0B1DFD06-3317-40CA-B510-4969A0718C16";
paths = (
{
closed = 1;
nodes = (
"133 0 OFFCURVE",
"151 17 OFFCURVE",
"176 17 CURVE SMOOTH",
"202 17 OFFCURVE",
"229 0 OFFCURVE",
"252 0 CURVE SMOOTH",
"264 0 OFFCURVE",
"282 6 OFFCURVE",
"317 41 CURVE SMOOTH",
"328 52 OFFCURVE",
"330 58 OFFCURVE",
"330 63 CURVE SMOOTH",
"330 67 OFFCURVE",
"327 70 OFFCURVE",
"323 70 CURVE SMOOTH",
"314 70 OFFCURVE",
"303 59 OFFCURVE",
"283 59 CURVE SMOOTH",
"270 59 OFFCURVE",
"257 62 OFFCURVE",
"242 68 CURVE",
"242 69 LINE",
"252 79 OFFCURVE",
"260 94 OFFCURVE",
"263 111 CURVE SMOOTH",
"293 273 LINE SMOOTH",
"316 398 OFFCURVE",
"420 614 OFFCURVE",
"505 614 CURVE SMOOTH",
"520 614 OFFCURVE",
"531 609 OFFCURVE",
"540 599 CURVE",
"597 685 LINE",
"581 702 OFFCURVE",
"564 710 OFFCURVE",
"544 710 CURVE SMOOTH",
"441 710 OFFCURVE",
"338 530 OFFCURVE",
"288 388 CURVE",
"287 388 LINE",
"278 513 OFFCURVE",
"242 710 OFFCURVE",
"150 710 CURVE SMOOTH",
"111 710 OFFCURVE",
"48 635 OFFCURVE",
"48 597 CURVE SMOOTH",
"48 586 OFFCURVE",
"53 579 OFFCURVE",
"68 572 CURVE",
"83 613 OFFCURVE",
"103 634 OFFCURVE",
"128 634 CURVE SMOOTH",
"199 634 OFFCURVE",
"236 364 OFFCURVE",
"216 257 CURVE SMOOTH",
"201 177 LINE SMOOTH",
"187 100 OFFCURVE",
"183 83 OFFCURVE",
"142 51 CURVE SMOOTH",
"128 40 OFFCURVE",
"120 22 OFFCURVE",
"120 9 CURVE SMOOTH",
"120 4 OFFCURVE",
"121 0 OFFCURVE",
"125 0 CURVE SMOOTH"
);
}
);
width = 579;
},
{
associatedMasterId = "0B1DFD06-3317-40CA-B510-4969A0718C16";
layerId = "33610075-13A3-43EA-B328-24050E2460C1";
width = 600;
}
);
note = Y;
unicode = 0059;
},
{
glyphname = Z;
lastChange = "2018-02-27 11:48:33 +0000";
layers = (
{
background = {
paths = (
{
closed = 1;
nodes = (
"75 20 OFFCURVE",
"125 48 OFFCURVE",
"147 48 CURVE SMOOTH",
"190 48 OFFCURVE",
"311 -10 OFFCURVE",
"359 -10 CURVE SMOOTH",
"437 -10 OFFCURVE",
"500 89 OFFCURVE",
"500 126 CURVE SMOOTH",
"500 145 OFFCURVE",
"481 159 OFFCURVE",
"451 169 CURVE",
"439 119 OFFCURVE",
"413 96 OFFCURVE",
"371 96 CURVE SMOOTH",
"336 96 OFFCURVE",
"232 150 OFFCURVE",
"185 150 CURVE SMOOTH",
"166 150 OFFCURVE",
"146 144 OFFCURVE",
"136 139 CURVE",
"161 133 LINE",
"533 619 LINE SMOOTH",
"544 633 OFFCURVE",
"563 658 OFFCURVE",
"563 677 CURVE SMOOTH",
"563 691 OFFCURVE",
"553 700 OFFCURVE",
"529 721 CURVE",
"511 693 OFFCURVE",
"488 678 OFFCURVE",
"455 678 CURVE SMOOTH",
"396 678 OFFCURVE",
"374 710 OFFCURVE",
"313 710 CURVE SMOOTH",
"190 710 OFFCURVE",
"80 566 OFFCURVE",
"95 399 CURVE",
"204 487 LINE",
"190 555 OFFCURVE",
"219 621 OFFCURVE",
"251 621 CURVE SMOOTH",
"294 621 OFFCURVE",
"339 571 OFFCURVE",
"418 571 CURVE",
"415 571 OFFCURVE",
"416 571 OFFCURVE",
"413 573 CURVE",
"84 138 OFFCURVE",
"33 84 OFFCURVE",
"16 54 CURVE SMOOTH",
"8 40 OFFCURVE",
"6 32 OFFCURVE",
"6 24 CURVE SMOOTH",
"6 9 OFFCURVE",
"18 -3 OFFCURVE",
"42 -13 CURVE"
);
}
);
};
layerId = "56450C88-1299-454A-B666-E6F9AF06B23F";
paths = (
{
closed = 1;
nodes = (
"75 23 OFFCURVE",
"105 48 OFFCURVE",
"157 48 CURVE SMOOTH",
"218 48 OFFCURVE",
"301 -10 OFFCURVE",
"359 -10 CURVE SMOOTH",
"437 -10 OFFCURVE",
"500 89 OFFCURVE",
"500 126 CURVE SMOOTH",
"500 145 OFFCURVE",
"481 159 OFFCURVE",
"451 169 CURVE",
"440 121 OFFCURVE",
"412 96 OFFCURVE",
"371 96 CURVE SMOOTH",
"326 96 OFFCURVE",
"264 143 OFFCURVE",
"217 143 CURVE SMOOTH",
"199 143 OFFCURVE",
"177 140 OFFCURVE",
"161 133 CURVE",
"160 133 LINE",
"533 619 LINE SMOOTH",
"544 633 OFFCURVE",
"563 658 OFFCURVE",
"563 677 CURVE SMOOTH",
"563 689 OFFCURVE",
"553 703 OFFCURVE",
"536 714 CURVE",
"514 686 OFFCURVE",
"488 678 OFFCURVE",
"455 678 CURVE SMOOTH",
"396 678 OFFCURVE",
"364 710 OFFCURVE",
"313 710 CURVE SMOOTH",
"190 710 OFFCURVE",
"80 566 OFFCURVE",
"95 399 CURVE",
"204 487 LINE",
"190 555 OFFCURVE",
"209 621 OFFCURVE",
"251 621 CURVE SMOOTH",
"306 621 OFFCURVE",
"338 578 OFFCURVE",
"397 578 CURVE SMOOTH",
"403 578 OFFCURVE",
"413 578 OFFCURVE",
"419 580 CURVE",
"90 145 OFFCURVE",
"33 87 OFFCURVE",
"16 57 CURVE SMOOTH",
"8 43 OFFCURVE",
"6 35 OFFCURVE",
"6 27 CURVE SMOOTH",
"6 12 OFFCURVE",
"18 0 OFFCURVE",
"42 -10 CURVE"
);
}
);
width = 569;
},
{
background = {
paths = (
{
closed = 1;
nodes = (
"45 5 OFFCURVE",
"103 48 OFFCURVE",
"136 48 CURVE SMOOTH",
"182 48 OFFCURVE",
"309 -10 OFFCURVE",
"349 -10 CURVE SMOOTH",
"416 -10 OFFCURVE",
"474 79 OFFCURVE",
"474 116 CURVE SMOOTH",
"474 125 OFFCURVE",
"468 134 OFFCURVE",
"454 141 CURVE",
"438 95 OFFCURVE",
"407 74 OFFCURVE",
"361 74 CURVE SMOOTH",
"320 74 OFFCURVE",
"213 127 OFFCURVE",
"173 127 CURVE SMOOTH",
"158 127 OFFCURVE",
"141 124 OFFCURVE",
"132 119 CURVE",
"131 120 LINE",
"510 636 LINE",
"518 647 OFFCURVE",
"537 671 OFFCURVE",
"537 687 CURVE SMOOTH",
"537 695 OFFCURVE",
"532 703 OFFCURVE",
"523 712 CURVE",
"505 690 OFFCURVE",
"478 678 OFFCURVE",
"445 678 CURVE SMOOTH",
"378 678 OFFCURVE",
"357 710 OFFCURVE",
"303 710 CURVE SMOOTH",
"182 710 OFFCURVE",
"100 563 OFFCURVE",
"99 440 CURVE",
"178 500 LINE",
"167 570 OFFCURVE",
"194 643 OFFCURVE",
"241 643 CURVE SMOOTH",
"293 643 OFFCURVE",
"339 594 OFFCURVE",
"409 594 CURVE SMOOTH",
"413 594 OFFCURVE",
"420 595 OFFCURVE",
"427 596 CURVE",
"87 134 OFFCURVE",
"41 71 OFFCURVE",
"21 37 CURVE SMOOTH",
"17 31 OFFCURVE",
"13 22 OFFCURVE",
"13 14 CURVE SMOOTH",
"13 1 OFFCURVE",
"22 -6 OFFCURVE",
"29 -10 CURVE"
);
}
);
};
layerId = "0B1DFD06-3317-40CA-B510-4969A0718C16";
paths = (
{
closed = 1;
nodes = (
"57 15 OFFCURVE",
"93 48 OFFCURVE",
"136 48 CURVE SMOOTH",
"192 48 OFFCURVE",
"289 -10 OFFCURVE",
"349 -10 CURVE SMOOTH",
"426 -10 OFFCURVE",
"474 79 OFFCURVE",
"474 116 CURVE SMOOTH",
"474 125 OFFCURVE",
"468 134 OFFCURVE",
"454 141 CURVE",
"438 95 OFFCURVE",
"409 74 OFFCURVE",
"363 74 CURVE SMOOTH",
"306 74 OFFCURVE",
"225 127 OFFCURVE",
"175 127 CURVE SMOOTH",
"158 127 OFFCURVE",
"141 124 OFFCURVE",
"132 119 CURVE",
"131 120 LINE",
"510 636 LINE",
"518 647 OFFCURVE",
"537 671 OFFCURVE",
"537 687 CURVE SMOOTH",
"537 695 OFFCURVE",
"532 703 OFFCURVE",
"523 712 CURVE",
"505 690 OFFCURVE",
"478 678 OFFCURVE",
"445 678 CURVE SMOOTH",
"378 678 OFFCURVE",
"350 710 OFFCURVE",
"302 710 CURVE SMOOTH",
"181 710 OFFCURVE",
"100 563 OFFCURVE",
"99 440 CURVE",
"178 500 LINE",
"167 570 OFFCURVE",
"194 643 OFFCURVE",
"241 643 CURVE SMOOTH",
"303 643 OFFCURVE",
"334 594 OFFCURVE",
"404 594 CURVE SMOOTH",
"409 594 OFFCURVE",
"415 594 OFFCURVE",
"426 596 CURVE",
"86 134 OFFCURVE",
"41 71 OFFCURVE",
"21 37 CURVE SMOOTH",
"17 31 OFFCURVE",
"13 22 OFFCURVE",
"13 14 CURVE SMOOTH",
"13 1 OFFCURVE",
"22 -6 OFFCURVE",
"29 -10 CURVE"
);
}
);
width = 549;
},
{
associatedMasterId = "0B1DFD06-3317-40CA-B510-4969A0718C16";
layerId = "33610075-13A3-43EA-B328-24050E2460C1";
width = 600;
}
);
note = Z;
unicode = 005A;
},
{
glyphname = a;
lastChange = "2018-02-27 11:48:33 +0000";
layers = (
{
background = {
paths = (
{
closed = 1;
nodes = (
"155 -10 OFFCURVE",
"203 26 OFFCURVE",
"268 107 CURVE",
"269 107 LINE",
"265 75 LINE SMOOTH",
"258 19 OFFCURVE",
"273 -10 OFFCURVE",
"315 -10 CURVE SMOOTH",
"393 -10 OFFCURVE",
"464 123 OFFCURVE",
"464 147 CURVE SMOOTH",
"464 159 OFFCURVE",
"455 168 OFFCURVE",
"426 193 CURVE",
"416 151 OFFCURVE",
"388 90 OFFCURVE",
"371 90 CURVE SMOOTH",
"360 90 OFFCURVE",
"364 115 OFFCURVE",
"372 158 CURVE SMOOTH",
"418 404 LINE SMOOTH",
"421 420 OFFCURVE",
"429 441 OFFCURVE",
"434 459 CURVE",
"412 471 OFFCURVE",
"377 480 OFFCURVE",
"339 480 CURVE SMOOTH",
"168 480 OFFCURVE",
"36 269 OFFCURVE",
"36 102 CURVE SMOOTH",
"36 20 OFFCURVE",
"64 -10 OFFCURVE",
"110 -10 CURVE SMOOTH"
);
},
{
closed = 1;
nodes = (
"148 89 OFFCURVE",
"144 99 OFFCURVE",
"144 121 CURVE SMOOTH",
"144 268 OFFCURVE",
"218 400 OFFCURVE",
"280 400 CURVE SMOOTH",
"297 400 OFFCURVE",
"313 395 OFFCURVE",
"329 386 CURVE",
"322 347 LINE SMOOTH",
"300 224 OFFCURVE",
"203 89 OFFCURVE",
"157 89 CURVE SMOOTH"
);
}
);
};
layerId = "56450C88-1299-454A-B666-E6F9AF06B23F";
paths = (
{
closed = 1;
nodes = (
"155 -10 OFFCURVE",
"203 26 OFFCURVE",
"268 107 CURVE",
"269 107 LINE",
"265 75 LINE SMOOTH",
"258 19 OFFCURVE",
"273 -10 OFFCURVE",
"315 -10 CURVE SMOOTH",
"393 -10 OFFCURVE",
"464 123 OFFCURVE",
"464 147 CURVE SMOOTH",
"464 159 OFFCURVE",
"455 168 OFFCURVE",
"426 193 CURVE",
"416 151 OFFCURVE",
"388 90 OFFCURVE",
"371 90 CURVE SMOOTH",
"360 90 OFFCURVE",
"364 115 OFFCURVE",
"372 158 CURVE SMOOTH",
"387 240 OFFCURVE",
"403 322 OFFCURVE",
"418 404 CURVE SMOOTH",
"421 420 OFFCURVE",
"429 441 OFFCURVE",
"434 459 CURVE",
"412 471 OFFCURVE",
"377 480 OFFCURVE",
"339 480 CURVE SMOOTH",
"168 480 OFFCURVE",
"36 269 OFFCURVE",
"36 102 CURVE SMOOTH",
"36 20 OFFCURVE",
"64 -10 OFFCURVE",
"110 -10 CURVE SMOOTH"
);
},
{
closed = 1;
nodes = (
"148 89 OFFCURVE",
"144 99 OFFCURVE",
"144 121 CURVE SMOOTH",
"144 268 OFFCURVE",
"218 400 OFFCURVE",
"280 400 CURVE SMOOTH",
"297 400 OFFCURVE",
"313 395 OFFCURVE",
"329 386 CURVE",
"322 347 LINE SMOOTH",
"300 224 OFFCURVE",
"203 89 OFFCURVE",
"157 89 CURVE SMOOTH"
);
}
);
width = 511;
},
{
background = {
paths = (
{
closed = 1;
nodes = (
"161 -10 OFFCURVE",
"252 112 OFFCURVE",
"291 180 CURVE",
"292 180 LINE",
"274 88 LINE SMOOTH",
"265 41 OFFCURVE",
"264 -10 OFFCURVE",
"297 -10 CURVE SMOOTH",
"344 -10 OFFCURVE",
"432 94 OFFCURVE",
"432 137 CURVE SMOOTH",
"432 145 OFFCURVE",
"425 151 OFFCURVE",
"415 160 CURVE",
"384 94 OFFCURVE",
"362 63 OFFCURVE",
"344 63 CURVE SMOOTH",
"338 63 OFFCURVE",
"336 69 OFFCURVE",
"340 93 CURVE SMOOTH",
"356 192 OFFCURVE",
"376 292 OFFCURVE",
"397 391 CURVE",
"408 447 OFFCURVE",
"415 467 OFFCURVE",
"415 466 CURVE",
"394 476 OFFCURVE",
"367 480 OFFCURVE",
"339 480 CURVE SMOOTH",
"180 480 OFFCURVE",
"45 279 OFFCURVE",
"42 95 CURVE SMOOTH",
"41 24 OFFCURVE",
"58 -10 OFFCURVE",
"93 -10 CURVE SMOOTH"
);
},
{
closed = 1;
nodes = (
"122 73 OFFCURVE",
"116 92 OFFCURVE",
"116 117 CURVE SMOOTH",
"116 233 OFFCURVE",
"180 422 OFFCURVE",
"267 422 CURVE SMOOTH",
"293 422 OFFCURVE",
"314 415 OFFCURVE",
"335 402 CURVE",
"319 338 LINE SMOOTH",
"293 234 OFFCURVE",
"200 73 OFFCURVE",
"140 73 CURVE SMOOTH"
);
}
);
};
layerId = "0B1DFD06-3317-40CA-B510-4969A0718C16";
paths = (
{
closed = 1;
nodes = (
"146 -10 OFFCURVE",
"226 66 OFFCURVE",
"291 180 CURVE",
"292 180 LINE",
"274 88 LINE SMOOTH",
"265 41 OFFCURVE",
"264 -10 OFFCURVE",
"297 -10 CURVE SMOOTH",
"344 -10 OFFCURVE",
"432 94 OFFCURVE",
"432 137 CURVE SMOOTH",
"432 145 OFFCURVE",
"425 151 OFFCURVE",
"415 160 CURVE",
"384 94 OFFCURVE",
"362 63 OFFCURVE",
"344 63 CURVE SMOOTH",
"338 63 OFFCURVE",
"336 69 OFFCURVE",
"340 93 CURVE SMOOTH",
"356 192 OFFCURVE",
"376 292 OFFCURVE",
"397 391 CURVE",
"408 447 OFFCURVE",
"415 467 OFFCURVE",
"415 466 CURVE",
"394 476 OFFCURVE",
"367 480 OFFCURVE",
"339 480 CURVE SMOOTH",
"175 480 OFFCURVE",
"42 268 OFFCURVE",
"42 95 CURVE SMOOTH",
"41 24 OFFCURVE",
"58 -10 OFFCURVE",
"93 -10 CURVE SMOOTH"
);
},
{
closed = 1;
nodes = (
"122 72 OFFCURVE",
"116 92 OFFCURVE",
"116 117 CURVE SMOOTH",
"116 233 OFFCURVE",
"180 422 OFFCURVE",
"267 422 CURVE SMOOTH",
"293 422 OFFCURVE",
"314 415 OFFCURVE",
"335 402 CURVE",
"319 338 LINE SMOOTH",
"293 234 OFFCURVE",
"200 72 OFFCURVE",
"140 72 CURVE SMOOTH"
);
}
);
width = 478;
}
);
note = a;
unicode = 0061;
},
{
glyphname = b;
lastChange = "2018-02-27 11:48:33 +0000";
layers = (
{
background = {
paths = (
{
closed = 1;
nodes = (
"296 -10 OFFCURVE",
"415 152 OFFCURVE",
"417 346 CURVE SMOOTH",
"418 438 OFFCURVE",
"393 480 OFFCURVE",
"343 480 CURVE SMOOTH",
"293 480 OFFCURVE",
"229 427 OFFCURVE",
"182 349 CURVE",
"181 349 LINE",
"192 430 LINE SMOOTH",
"218 621 OFFCURVE",
"239 704 OFFCURVE",
"273 753 CURVE SMOOTH",
"300 791 OFFCURVE",
"331 810 OFFCURVE",
"374 812 CURVE SMOOTH",
"395 813 OFFCURVE",
"412 814 OFFCURVE",
"427 828 CURVE SMOOTH",
"441 841 OFFCURVE",
"449 856 OFFCURVE",
"449 869 CURVE SMOOTH",
"449 877 OFFCURVE",
"446 884 OFFCURVE",
"437 884 CURVE SMOOTH",
"427 884 OFFCURVE",
"408 876 OFFCURVE",
"386 874 CURVE SMOOTH",
"323 868 OFFCURVE",
"264 841 OFFCURVE",
"228 802 CURVE SMOOTH",
"167 736 OFFCURVE",
"131 639 OFFCURVE",
"102 461 CURVE SMOOTH",
"39 82 LINE SMOOTH",
"34 52 OFFCURVE",
"30 28 OFFCURVE",
"18 -7 CURVE",
"20 -7 LINE",
"27 -4 OFFCURVE",
"43 0 OFFCURVE",
"59 0 CURVE SMOOTH",
"91 0 OFFCURVE",
"104 -10 OFFCURVE",
"141 -10 CURVE SMOOTH"
);
},
{
closed = 1;
nodes = (
"170 69 OFFCURVE",
"153 74 OFFCURVE",
"137 85 CURVE",
"143 128 LINE SMOOTH",
"161 256 OFFCURVE",
"243 376 OFFCURVE",
"286 376 CURVE SMOOTH",
"306 376 OFFCURVE",
"311 352 OFFCURVE",
"311 317 CURVE SMOOTH",
"311 183 OFFCURVE",
"261 69 OFFCURVE",
"193 69 CURVE SMOOTH"
);
}
);
};
layerId = "56450C88-1299-454A-B666-E6F9AF06B23F";
paths = (
{
closed = 1;
nodes = (
"296 -10 OFFCURVE",
"415 152 OFFCURVE",
"417 346 CURVE SMOOTH",
"418 438 OFFCURVE",
"393 480 OFFCURVE",
"343 480 CURVE SMOOTH",
"293 480 OFFCURVE",
"229 427 OFFCURVE",
"182 349 CURVE",
"181 349 LINE",
"192 430 LINE SMOOTH",
"218 621 OFFCURVE",
"239 704 OFFCURVE",
"273 753 CURVE SMOOTH",
"300 791 OFFCURVE",
"331 810 OFFCURVE",
"374 812 CURVE SMOOTH",
"395 813 OFFCURVE",
"412 814 OFFCURVE",
"427 828 CURVE SMOOTH",
"441 841 OFFCURVE",
"449 860 OFFCURVE",
"449 873 CURVE SMOOTH",
"449 880 OFFCURVE",
"445 884 OFFCURVE",
"439 884 CURVE SMOOTH",
"427 884 OFFCURVE",
"420 877 OFFCURVE",
"386 874 CURVE SMOOTH",
"323 868 OFFCURVE",
"264 841 OFFCURVE",
"228 802 CURVE SMOOTH",
"167 736 OFFCURVE",
"131 639 OFFCURVE",
"102 461 CURVE SMOOTH",
"39 82 LINE SMOOTH",
"34 52 OFFCURVE",
"30 28 OFFCURVE",
"18 -7 CURVE",
"20 -7 LINE",
"27 -4 OFFCURVE",
"43 0 OFFCURVE",
"59 0 CURVE SMOOTH",
"91 0 OFFCURVE",
"104 -10 OFFCURVE",
"141 -10 CURVE SMOOTH"
);
},
{
closed = 1;
nodes = (
"170 69 OFFCURVE",
"153 74 OFFCURVE",
"137 85 CURVE",
"143 128 LINE SMOOTH",
"161 256 OFFCURVE",
"243 376 OFFCURVE",
"286 376 CURVE SMOOTH",
"306 376 OFFCURVE",
"311 352 OFFCURVE",
"311 317 CURVE SMOOTH",
"311 183 OFFCURVE",
"261 69 OFFCURVE",
"193 69 CURVE SMOOTH"
);
}
);
width = 434;
},
{
background = {
paths = (
{
closed = 1;
nodes = (
"154 50 OFFCURVE",
"137 55 OFFCURVE",
"116 69 CURVE",
"125 131 LINE",
"148 255 OFFCURVE",
"240 397 OFFCURVE",
"295 397 CURVE SMOOTH",
"312 397 OFFCURVE",
"319 374 OFFCURVE",
"317 326 CURVE SMOOTH",
"312 216 OFFCURVE",
"262 50 OFFCURVE",
"180 50 CURVE SMOOTH"
);
},
{
closed = 1;
nodes = (
"323 860 OFFCURVE",
"287 844 OFFCURVE",
"253 812 CURVE SMOOTH",
"183 746 OFFCURVE",
"139 630 OFFCURVE",
"109 444 CURVE SMOOTH",
"50 82 LINE SMOOTH",
"46 55 OFFCURVE",
"41 29 OFFCURVE",
"29 -4 CURVE",
"33 -4 OFFCURVE",
"42 -2 OFFCURVE",
"51 -2 CURVE SMOOTH",
"76 -2 OFFCURVE",
"93 -10 OFFCURVE",
"121 -10 CURVE SMOOTH",
"256 -10 OFFCURVE",
"389 180 OFFCURVE",
"391 358 CURVE SMOOTH",
"392 443 OFFCURVE",
"380 480 OFFCURVE",
"339 480 CURVE SMOOTH",
"283 480 OFFCURVE",
"201 385 OFFCURVE",
"155 302 CURVE",
"154 302 LINE",
"178 451 LINE SMOOTH",
"205 625 OFFCURVE",
"229 707 OFFCURVE",
"271 769 CURVE SMOOTH",
"298 808 OFFCURVE",
"322 820 OFFCURVE",
"360 824 CURVE SMOOTH",
"376 826 OFFCURVE",
"389 826 OFFCURVE",
"407 841 CURVE SMOOTH",
"423 855 OFFCURVE",
"426 865 OFFCURVE",
"426 871 CURVE SMOOTH",
"426 876 OFFCURVE",
"424 879 OFFCURVE",
"420 879 CURVE SMOOTH",
"412 879 OFFCURVE",
"394 870 OFFCURVE",
"378 868 CURVE SMOOTH"
);
}
);
};
layerId = "0B1DFD06-3317-40CA-B510-4969A0718C16";
paths = (
{
closed = 1;
nodes = (
"256 -10 OFFCURVE",
"389 180 OFFCURVE",
"391 358 CURVE SMOOTH",
"392 443 OFFCURVE",
"380 480 OFFCURVE",
"339 480 CURVE SMOOTH",
"283 480 OFFCURVE",
"201 385 OFFCURVE",
"155 302 CURVE",
"154 302 LINE",
"178 451 LINE SMOOTH",
"206 625 OFFCURVE",
"228 707 OFFCURVE",
"271 769 CURVE SMOOTH",
"298 808 OFFCURVE",
"322 819 OFFCURVE",
"360 824 CURVE SMOOTH",
"376 826 OFFCURVE",
"389 826 OFFCURVE",
"407 841 CURVE SMOOTH",
"423 855 OFFCURVE",
"426 865 OFFCURVE",
"426 871 CURVE SMOOTH",
"426 876 OFFCURVE",
"424 879 OFFCURVE",
"420 879 CURVE SMOOTH",
"412 879 OFFCURVE",
"394 870 OFFCURVE",
"378 868 CURVE SMOOTH",
"323 861 OFFCURVE",
"287 844 OFFCURVE",
"253 812 CURVE SMOOTH",
"183 746 OFFCURVE",
"140 630 OFFCURVE",
"110 444 CURVE SMOOTH",
"51 82 LINE SMOOTH",
"47 55 OFFCURVE",
"42 29 OFFCURVE",
"30 -4 CURVE",
"31 -4 LINE SMOOTH",
"35 -4 OFFCURVE",
"44 -2 OFFCURVE",
"52 -2 CURVE SMOOTH",
"77 -2 OFFCURVE",
"93 -10 OFFCURVE",
"121 -10 CURVE SMOOTH"
);
},
{
closed = 1;
nodes = (
"154 50 OFFCURVE",
"137 55 OFFCURVE",
"116 69 CURVE",
"125 131 LINE SMOOTH",
"148 255 OFFCURVE",
"240 397 OFFCURVE",
"295 397 CURVE SMOOTH",
"311 397 OFFCURVE",
"317 379 OFFCURVE",
"317 335 CURVE SMOOTH",
"317 222 OFFCURVE",
"262 50 OFFCURVE",
"180 50 CURVE SMOOTH"
);
}
);
width = 413;
},
{
associatedMasterId = "0B1DFD06-3317-40CA-B510-4969A0718C16";
layerId = "33610075-13A3-43EA-B328-24050E2460C1";
width = 600;
}
);
note = b;
unicode = 0062;
},
{
glyphname = c;
lastChange = "2018-02-27 11:48:33 +0000";
layers = (
{
background = {
paths = (
{
closed = 1;
nodes = (
"381 456 LINE",
"361 471 OFFCURVE",
"332 480 OFFCURVE",
"305 480 CURVE SMOOTH",
"164 480 OFFCURVE",
"29 276 OFFCURVE",
"29 122 CURVE SMOOTH",
"29 39 OFFCURVE",
"68 -10 OFFCURVE",
"134 -10 CURVE SMOOTH",
"214 -10 OFFCURVE",
"280 48 OFFCURVE",
"306 95 CURVE SMOOTH",
"313 108 OFFCURVE",
"316 116 OFFCURVE",
"316 124 CURVE SMOOTH",
"316 140 OFFCURVE",
"304 158 OFFCURVE",
"280 180 CURVE",
"255 120 OFFCURVE",
"226 88 OFFCURVE",
"188 88 CURVE SMOOTH",
"153 88 OFFCURVE",
"137 122 OFFCURVE",
"137 194 CURVE SMOOTH",
"137 317 OFFCURVE",
"188 384 OFFCURVE",
"249 384 CURVE SMOOTH",
"275 384 OFFCURVE",
"292 378 OFFCURVE",
"316 362 CURVE"
);
}
);
};
layerId = "56450C88-1299-454A-B666-E6F9AF06B23F";
paths = (
{
closed = 1;
nodes = (
"381 456 LINE",
"361 471 OFFCURVE",
"332 480 OFFCURVE",
"305 480 CURVE SMOOTH",
"164 480 OFFCURVE",
"29 276 OFFCURVE",
"29 122 CURVE SMOOTH",
"29 39 OFFCURVE",
"68 -10 OFFCURVE",
"134 -10 CURVE SMOOTH",
"214 -10 OFFCURVE",
"280 48 OFFCURVE",
"306 95 CURVE SMOOTH",
"313 108 OFFCURVE",
"316 116 OFFCURVE",
"316 124 CURVE SMOOTH",
"316 140 OFFCURVE",
"304 158 OFFCURVE",
"280 180 CURVE",
"255 120 OFFCURVE",
"226 88 OFFCURVE",
"188 88 CURVE SMOOTH",
"152 88 OFFCURVE",
"137 118 OFFCURVE",
"137 194 CURVE SMOOTH",
"137 317 OFFCURVE",
"188 384 OFFCURVE",
"249 384 CURVE SMOOTH",
"275 384 OFFCURVE",
"292 378 OFFCURVE",
"316 362 CURVE"
);
}
);
width = 367;
},
{
background = {
paths = (
{
closed = 1;
nodes = (
"351 463 LINE",
"333 474 OFFCURVE",
"313 480 OFFCURVE",
"293 480 CURVE SMOOTH",
"165 480 OFFCURVE",
"40 275 OFFCURVE",
"40 123 CURVE SMOOTH",
"40 59 OFFCURVE",
"56 -10 OFFCURVE",
"128 -10 CURVE SMOOTH",
"187 -10 OFFCURVE",
"250 56 OFFCURVE",
"279 115 CURVE SMOOTH",
"284 125 OFFCURVE",
"288 134 OFFCURVE",
"288 139 CURVE SMOOTH",
"288 144 OFFCURVE",
"285 155 OFFCURVE",
"274 170 CURVE",
"246 102 OFFCURVE",
"212 68 OFFCURVE",
"174 68 CURVE SMOOTH",
"113 68 OFFCURVE",
"113 159 OFFCURVE",
"113 208 CURVE SMOOTH",
"113 297 OFFCURVE",
"151 406 OFFCURVE",
"234 406 CURVE SMOOTH",
"256 406 OFFCURVE",
"273 400 OFFCURVE",
"295 388 CURVE"
);
}
);
};
layerId = "0B1DFD06-3317-40CA-B510-4969A0718C16";
paths = (
{
closed = 1;
nodes = (
"351 463 LINE",
"334 474 OFFCURVE",
"313 480 OFFCURVE",
"294 480 CURVE SMOOTH",
"163 480 OFFCURVE",
"40 275 OFFCURVE",
"40 123 CURVE SMOOTH",
"40 59 OFFCURVE",
"57 -10 OFFCURVE",
"128 -10 CURVE SMOOTH",
"188 -10 OFFCURVE",
"250 55 OFFCURVE",
"279 115 CURVE SMOOTH",
"284 125 OFFCURVE",
"289 134 OFFCURVE",
"289 139 CURVE SMOOTH",
"289 144 OFFCURVE",
"285 155 OFFCURVE",
"274 170 CURVE",
"246 102 OFFCURVE",
"212 68 OFFCURVE",
"174 68 CURVE SMOOTH",
"113 68 OFFCURVE",
"113 159 OFFCURVE",
"113 208 CURVE SMOOTH",
"113 297 OFFCURVE",
"151 406 OFFCURVE",
"234 406 CURVE SMOOTH",
"256 406 OFFCURVE",
"273 400 OFFCURVE",
"295 388 CURVE"
);
}
);
width = 345;
},
{
associatedMasterId = "0B1DFD06-3317-40CA-B510-4969A0718C16";
layerId = "33610075-13A3-43EA-B328-24050E2460C1";
width = 600;
}
);
note = c;
unicode = 0063;
},
{
glyphname = d;
lastChange = "2018-02-27 11:48:33 +0000";
layers = (
{
background = {
paths = (
{
closed = 1;
nodes = (
"155 -10 OFFCURVE",
"203 26 OFFCURVE",
"268 107 CURVE",
"269 107 LINE",
"265 75 LINE SMOOTH",
"258 19 OFFCURVE",
"273 -10 OFFCURVE",
"315 -10 CURVE SMOOTH",
"393 -10 OFFCURVE",
"464 123 OFFCURVE",
"464 147 CURVE SMOOTH",
"464 159 OFFCURVE",
"455 168 OFFCURVE",
"426 193 CURVE",
"416 151 OFFCURVE",
"388 90 OFFCURVE",
"371 90 CURVE SMOOTH",
"360 90 OFFCURVE",
"364 115 OFFCURVE",
"372 158 CURVE SMOOTH",
"389 248 OFFCURVE",
"406 339 OFFCURVE",
"423 429 CURVE SMOOTH",
"461 627 OFFCURVE",
"475 701 OFFCURVE",
"507 750 CURVE SMOOTH",
"534 791 OFFCURVE",
"564 810 OFFCURVE",
"603 812 CURVE SMOOTH",
"624 813 OFFCURVE",
"641 814 OFFCURVE",
"656 828 CURVE SMOOTH",
"670 841 OFFCURVE",
"678 856 OFFCURVE",
"678 869 CURVE SMOOTH",
"678 877 OFFCURVE",
"675 884 OFFCURVE",
"666 884 CURVE SMOOTH",
"656 884 OFFCURVE",
"637 876 OFFCURVE",
"615 874 CURVE SMOOTH",
"557 869 OFFCURVE",
"501 842 OFFCURVE",
"462 800 CURVE SMOOTH",
"403 736 OFFCURVE",
"377 672 OFFCURVE",
"332 480 CURVE",
"329 480 LINE SMOOTH",
"166 480 OFFCURVE",
"36 269 OFFCURVE",
"36 102 CURVE SMOOTH",
"36 20 OFFCURVE",
"64 -10 OFFCURVE",
"110 -10 CURVE SMOOTH"
);
},
{
closed = 1;
nodes = (
"148 89 OFFCURVE",
"144 99 OFFCURVE",
"144 121 CURVE SMOOTH",
"144 268 OFFCURVE",
"218 400 OFFCURVE",
"280 400 CURVE SMOOTH",
"297 400 OFFCURVE",
"313 395 OFFCURVE",
"329 386 CURVE",
"322 347 LINE SMOOTH",
"300 224 OFFCURVE",
"203 89 OFFCURVE",
"157 89 CURVE SMOOTH"
);
}
);
};
layerId = "56450C88-1299-454A-B666-E6F9AF06B23F";
paths = (
{
closed = 1;
nodes = (
"155 -10 OFFCURVE",
"203 26 OFFCURVE",
"268 107 CURVE",
"269 107 LINE",
"265 75 LINE SMOOTH",
"258 19 OFFCURVE",
"273 -10 OFFCURVE",
"315 -10 CURVE SMOOTH",
"393 -10 OFFCURVE",
"464 123 OFFCURVE",
"464 147 CURVE SMOOTH",
"464 159 OFFCURVE",
"455 168 OFFCURVE",
"426 193 CURVE",
"416 151 OFFCURVE",
"388 90 OFFCURVE",
"371 90 CURVE SMOOTH",
"360 90 OFFCURVE",
"364 115 OFFCURVE",
"372 158 CURVE SMOOTH",
"389 248 OFFCURVE",
"406 339 OFFCURVE",
"423 429 CURVE SMOOTH",
"461 627 OFFCURVE",
"475 701 OFFCURVE",
"507 750 CURVE SMOOTH",
"534 791 OFFCURVE",
"564 810 OFFCURVE",
"603 812 CURVE SMOOTH",
"624 813 OFFCURVE",
"641 814 OFFCURVE",
"656 828 CURVE SMOOTH",
"670 841 OFFCURVE",
"678 861 OFFCURVE",
"678 874 CURVE SMOOTH",
"678 880 OFFCURVE",
"674 884 OFFCURVE",
"668 884 CURVE SMOOTH",
"655 884 OFFCURVE",
"651 877 OFFCURVE",
"615 874 CURVE SMOOTH",
"557 869 OFFCURVE",
"501 842 OFFCURVE",
"462 800 CURVE SMOOTH",
"403 736 OFFCURVE",
"377 672 OFFCURVE",
"332 480 CURVE",
"329 480 LINE SMOOTH",
"166 480 OFFCURVE",
"36 269 OFFCURVE",
"36 102 CURVE SMOOTH",
"36 20 OFFCURVE",
"64 -10 OFFCURVE",
"110 -10 CURVE SMOOTH"
);
},
{
closed = 1;
nodes = (
"148 89 OFFCURVE",
"144 99 OFFCURVE",
"144 121 CURVE SMOOTH",
"144 268 OFFCURVE",
"218 400 OFFCURVE",
"280 400 CURVE SMOOTH",
"297 400 OFFCURVE",
"313 395 OFFCURVE",
"329 386 CURVE",
"322 347 LINE SMOOTH",
"300 224 OFFCURVE",
"203 89 OFFCURVE",
"157 89 CURVE SMOOTH"
);
}
);
width = 489;
},
{
background = {
paths = (
{
closed = 1;
nodes = (
"163 -10 OFFCURVE",
"254 112 OFFCURVE",
"293 180 CURVE",
"294 180 LINE",
"276 88 LINE SMOOTH",
"267 41 OFFCURVE",
"266 -10 OFFCURVE",
"299 -10 CURVE SMOOTH",
"346 -10 OFFCURVE",
"434 94 OFFCURVE",
"434 137 CURVE SMOOTH",
"434 145 OFFCURVE",
"427 151 OFFCURVE",
"417 160 CURVE",
"386 94 OFFCURVE",
"364 63 OFFCURVE",
"346 63 CURVE SMOOTH",
"340 63 OFFCURVE",
"338 69 OFFCURVE",
"342 93 CURVE SMOOTH",
"358 192 OFFCURVE",
"388 341 OFFCURVE",
"409 441 CURVE SMOOTH",
"455 658 OFFCURVE",
"476 724 OFFCURVE",
"513 771 CURVE SMOOTH",
"540 805 OFFCURVE",
"568 820 OFFCURVE",
"602 824 CURVE SMOOTH",
"618 826 OFFCURVE",
"631 826 OFFCURVE",
"649 841 CURVE SMOOTH",
"665 855 OFFCURVE",
"668 865 OFFCURVE",
"668 871 CURVE SMOOTH",
"668 876 OFFCURVE",
"666 879 OFFCURVE",
"662 879 CURVE SMOOTH",
"654 879 OFFCURVE",
"636 870 OFFCURVE",
"620 868 CURVE SMOOTH",
"585 864 OFFCURVE",
"536 851 OFFCURVE",
"491 806 CURVE SMOOTH",
"407 723 OFFCURVE",
"381 608 OFFCURVE",
"350 480 CURVE",
"341 480 LINE",
"177 480 OFFCURVE",
"44 268 OFFCURVE",
"44 95 CURVE SMOOTH",
"44 24 OFFCURVE",
"60 -10 OFFCURVE",
"95 -10 CURVE SMOOTH"
);
},
{
closed = 1;
nodes = (
"124 72 OFFCURVE",
"118 92 OFFCURVE",
"118 117 CURVE SMOOTH",
"118 233 OFFCURVE",
"182 422 OFFCURVE",
"269 422 CURVE SMOOTH",
"295 422 OFFCURVE",
"316 415 OFFCURVE",
"337 402 CURVE",
"321 338 LINE SMOOTH",
"295 234 OFFCURVE",
"202 72 OFFCURVE",
"142 72 CURVE SMOOTH"
);
}
);
};
layerId = "0B1DFD06-3317-40CA-B510-4969A0718C16";
paths = (
{
closed = 1;
nodes = (
"163 -10 OFFCURVE",
"254 112 OFFCURVE",
"293 180 CURVE",
"294 180 LINE",
"276 88 LINE SMOOTH",
"267 41 OFFCURVE",
"266 -10 OFFCURVE",
"299 -10 CURVE SMOOTH",
"346 -10 OFFCURVE",
"434 94 OFFCURVE",
"434 137 CURVE SMOOTH",
"434 145 OFFCURVE",
"427 151 OFFCURVE",
"417 160 CURVE",
"386 94 OFFCURVE",
"364 63 OFFCURVE",
"346 63 CURVE SMOOTH",
"340 63 OFFCURVE",
"338 69 OFFCURVE",
"342 93 CURVE SMOOTH",
"358 192 OFFCURVE",
"388 341 OFFCURVE",
"409 441 CURVE SMOOTH",
"455 658 OFFCURVE",
"476 724 OFFCURVE",
"513 771 CURVE SMOOTH",
"540 805 OFFCURVE",
"568 820 OFFCURVE",
"602 824 CURVE SMOOTH",
"618 826 OFFCURVE",
"631 826 OFFCURVE",
"649 841 CURVE SMOOTH",
"665 855 OFFCURVE",
"668 865 OFFCURVE",
"668 871 CURVE SMOOTH",
"668 876 OFFCURVE",
"666 879 OFFCURVE",
"662 879 CURVE SMOOTH",
"654 879 OFFCURVE",
"636 870 OFFCURVE",
"620 868 CURVE SMOOTH",
"569 861 OFFCURVE",
"525 840 OFFCURVE",
"491 806 CURVE SMOOTH",
"427 742 OFFCURVE",
"398 677 OFFCURVE",
"350 480 CURVE",
"341 480 LINE SMOOTH",
"177 480 OFFCURVE",
"44 268 OFFCURVE",
"44 95 CURVE SMOOTH",
"44 24 OFFCURVE",
"60 -10 OFFCURVE",
"95 -10 CURVE SMOOTH"
);
},
{
closed = 1;
nodes = (
"124 72 OFFCURVE",
"118 92 OFFCURVE",
"118 117 CURVE SMOOTH",
"118 233 OFFCURVE",
"182 422 OFFCURVE",
"269 422 CURVE SMOOTH",
"295 422 OFFCURVE",
"316 415 OFFCURVE",
"337 402 CURVE",
"321 338 LINE SMOOTH",
"295 234 OFFCURVE",
"202 72 OFFCURVE",
"142 72 CURVE SMOOTH"
);
}
);
width = 473;
},
{
associatedMasterId = "0B1DFD06-3317-40CA-B510-4969A0718C16";
layerId = "33610075-13A3-43EA-B328-24050E2460C1";
width = 600;
},
{
associatedMasterId = "0B1DFD06-3317-40CA-B510-4969A0718C16";
background = {
paths = (
{
closed = 1;
nodes = (
"267 192 OFFCURVE",
"200 74 OFFCURVE",
"142 74 CURVE SMOOTH",
"126 74 OFFCURVE",
"119 94 OFFCURVE",
"122 134 CURVE SMOOTH",
"128 216 OFFCURVE",
"145 286 OFFCURVE",
"175 341 CURVE SMOOTH",
"204 394 OFFCURVE",
"233 420 OFFCURVE",
"271 420 CURVE SMOOTH",
"290 420 OFFCURVE",
"307 414 OFFCURVE",
"325 402 CURVE",
"315 350 LINE SMOOTH",
"304 291 OFFCURVE",
"295 255 OFFCURVE",
"274 215 CURVE"
);
},
{
closed = 1;
nodes = (
"642 882 OFFCURVE",
"640 880 OFFCURVE",
"636 879 CURVE",
"629 875 OFFCURVE",
"618 873 OFFCURVE",
"604 873 CURVE",
"569 869 OFFCURVE",
"515 857 OFFCURVE",
"469 811 CURVE",
"389 724 OFFCURVE",
"358 600 OFFCURVE",
"344 520 CURVE SMOOTH",
"337 480 LINE",
"327 480 LINE SMOOTH",
"261 480 OFFCURVE",
"199 443 OFFCURVE",
"141 365 CURVE SMOOTH",
"85 289 OFFCURVE",
"51 201 OFFCURVE",
"44 105 CURVE SMOOTH",
"39 33 OFFCURVE",
"58 -10 OFFCURVE",
"98 -10 CURVE SMOOTH",
"128 -10 OFFCURVE",
"162 15 OFFCURVE",
"206 59 CURVE",
"239 94 OFFCURVE",
"267 128 OFFCURVE",
"285 167 CURVE",
"274 74 OFFCURVE",
"271 61 OFFCURVE",
"271 49 CURVE",
"268 10 OFFCURVE",
"278 -10 OFFCURVE",
"302 -10 CURVE SMOOTH",
"331 -10 OFFCURVE",
"362 17 OFFCURVE",
"398 64 CURVE",
"419 97 OFFCURVE",
"433 121 OFFCURVE",
"435 137 CURVE",
"436 142 OFFCURVE",
"430 151 OFFCURVE",
"416 162 CURVE",
"391 98 OFFCURVE",
"368 66 OFFCURVE",
"348 66 CURVE SMOOTH",
"345 66 OFFCURVE",
"344 71 OFFCURVE",
"345 84 CURVE SMOOTH",
"346 97 OFFCURVE",
"348 125 OFFCURVE",
"352 144 CURVE",
"364 218 OFFCURVE",
"386 343 OFFCURVE",
"402 437 CURVE SMOOTH",
"417 528 OFFCURVE",
"428 671 OFFCURVE",
"491 774 CURVE SMOOTH",
"513 810 OFFCURVE",
"554 829 OFFCURVE",
"586 829 CURVE",
"602 830 OFFCURVE",
"616 830 OFFCURVE",
"633 846 CURVE SMOOTH",
"663 875 OFFCURVE",
"650 887 OFFCURVE",
"643 883 CURVE"
);
}
);
};
layerId = "8B28AEA0-2E57-4623-B215-78812329F3DA";
paths = (
{
closed = 1;
nodes = (
"295 248 OFFCURVE",
"224 74 OFFCURVE",
"144 74 CURVE SMOOTH",
"125 74 OFFCURVE",
"122 94 OFFCURVE",
"122 124 CURVE SMOOTH",
"122 206 OFFCURVE",
"164 420 OFFCURVE",
"271 420 CURVE SMOOTH",
"290 420 OFFCURVE",
"309 414 OFFCURVE",
"325 402 CURVE",
"309 320 LINE SMOOTH"
);
},
{
closed = 1;
nodes = (
"395 98 OFFCURVE",
"369 66 OFFCURVE",
"350 66 CURVE SMOOTH",
"344 66 OFFCURVE",
"343 72 OFFCURVE",
"344 84 CURVE SMOOTH",
"347 123 OFFCURVE",
"371 248 OFFCURVE",
"402 437 CURVE SMOOTH",
"417 528 OFFCURVE",
"428 671 OFFCURVE",
"491 774 CURVE SMOOTH",
"513 810 OFFCURVE",
"554 825 OFFCURVE",
"586 829 CURVE SMOOTH",
"602 831 OFFCURVE",
"615 831 OFFCURVE",
"633 846 CURVE SMOOTH",
"649 860 OFFCURVE",
"652 870 OFFCURVE",
"652 876 CURVE SMOOTH",
"652 881 OFFCURVE",
"650 884 OFFCURVE",
"646 884 CURVE SMOOTH",
"643 884 OFFCURVE",
"641 881 OFFCURVE",
"636 879 CURVE SMOOTH",
"629 876 OFFCURVE",
"619 875 OFFCURVE",
"604 873 CURVE SMOOTH",
"569 868 OFFCURVE",
"514 857 OFFCURVE",
"469 811 CURVE SMOOTH",
"386 726 OFFCURVE",
"358 600 OFFCURVE",
"344 520 CURVE SMOOTH",
"337 480 LINE",
"327 480 LINE SMOOTH",
"156 480 OFFCURVE",
"44 235 OFFCURVE",
"44 81 CURVE SMOOTH",
"44 39 OFFCURVE",
"58 -10 OFFCURVE",
"98 -10 CURVE SMOOTH",
"155 -10 OFFCURVE",
"247 90 OFFCURVE",
"285 167 CURVE",
"286 167 LINE",
"272 65 LINE SMOOTH",
"265 11 OFFCURVE",
"278 -10 OFFCURVE",
"302 -10 CURVE SMOOTH",
"329 -10 OFFCURVE",
"366 18 OFFCURVE",
"399 64 CURVE SMOOTH",
"415 86 OFFCURVE",
"427 108 OFFCURVE",
"434 124 CURVE SMOOTH",
"442 141 OFFCURVE",
"437 147 OFFCURVE",
"420 162 CURVE"
);
}
);
width = 473;
}
);
note = d;
unicode = 0064;
},
{
glyphname = e;
lastChange = "2018-02-27 11:48:33 +0000";
layers = (
{
background = {
paths = (
{
closed = 1;
nodes = (
"161 243 OFFCURVE",
"155 243 OFFCURVE",
"152 243 CURVE",
"162 339 OFFCURVE",
"202 388 OFFCURVE",
"235 388 CURVE SMOOTH",
"253 388 OFFCURVE",
"262 375 OFFCURVE",
"262 350 CURVE SMOOTH",
"262 291 OFFCURVE",
"205 243 OFFCURVE",
"166 243 CURVE SMOOTH"
);
},
{
closed = 1;
nodes = (
"214 -10 OFFCURVE",
"305 58 OFFCURVE",
"330 105 CURVE SMOOTH",
"337 118 OFFCURVE",
"340 126 OFFCURVE",
"340 134 CURVE SMOOTH",
"340 150 OFFCURVE",
"328 168 OFFCURVE",
"304 190 CURVE",
"279 130 OFFCURVE",
"226 89 OFFCURVE",
"190 89 CURVE SMOOTH",
"164 89 OFFCURVE",
"145 103 OFFCURVE",
"142 157 CURVE",
"268 207 OFFCURVE",
"362 310 OFFCURVE",
"362 408 CURVE SMOOTH",
"362 454 OFFCURVE",
"334 480 OFFCURVE",
"288 480 CURVE SMOOTH",
"166 480 OFFCURVE",
"32 280 OFFCURVE",
"32 125 CURVE SMOOTH",
"32 39 OFFCURVE",
"69 -10 OFFCURVE",
"134 -10 CURVE SMOOTH"
);
}
);
};
layerId = "56450C88-1299-454A-B666-E6F9AF06B23F";
paths = (
{
closed = 1;
nodes = (
"214 -10 OFFCURVE",
"305 58 OFFCURVE",
"330 105 CURVE SMOOTH",
"337 118 OFFCURVE",
"340 126 OFFCURVE",
"340 134 CURVE SMOOTH",
"340 150 OFFCURVE",
"328 168 OFFCURVE",
"304 190 CURVE",
"279 130 OFFCURVE",
"226 89 OFFCURVE",
"190 89 CURVE SMOOTH",
"164 89 OFFCURVE",
"143 103 OFFCURVE",
"140 157 CURVE",
"266 207 OFFCURVE",
"362 310 OFFCURVE",
"362 408 CURVE SMOOTH",
"362 454 OFFCURVE",
"334 480 OFFCURVE",
"288 480 CURVE SMOOTH",
"166 480 OFFCURVE",
"32 280 OFFCURVE",
"32 125 CURVE SMOOTH",
"32 39 OFFCURVE",
"69 -10 OFFCURVE",
"134 -10 CURVE SMOOTH"
);
},
{
closed = 1;
nodes = (
"161 243 OFFCURVE",
"155 243 OFFCURVE",
"150 244 CURVE",
"160 340 OFFCURVE",
"202 388 OFFCURVE",
"235 388 CURVE SMOOTH",
"253 388 OFFCURVE",
"262 375 OFFCURVE",
"262 350 CURVE SMOOTH",
"262 291 OFFCURVE",
"205 243 OFFCURVE",
"166 243 CURVE SMOOTH"
);
}
);
width = 388;
},
{
background = {
paths = (
{
closed = 1;
nodes = (
"137 308 OFFCURVE",
"182 415 OFFCURVE",
"239 413 CURVE SMOOTH",
"267 412 OFFCURVE",
"274 387 OFFCURVE",
"272 359 CURVE SMOOTH",
"268 290 OFFCURVE",
"206 222 OFFCURVE",
"139 225 CURVE SMOOTH",
"130 225 OFFCURVE",
"129 231 OFFCURVE",
"126 233 CURVE"
);
},
{
closed = 1;
nodes = (
"140 71 OFFCURVE",
"112 95 OFFCURVE",
"112 170 CURVE",
"228 209 OFFCURVE",
"336 305 OFFCURVE",
"336 418 CURVE SMOOTH",
"336 456 OFFCURVE",
"320 479 OFFCURVE",
"282 479 CURVE SMOOTH",
"175 480 OFFCURVE",
"39 273 OFFCURVE",
"42 115 CURVE SMOOTH",
"43 39 OFFCURVE",
"84 -9 OFFCURVE",
"139 -9 CURVE SMOOTH",
"201 -9 OFFCURVE",
"249 39 OFFCURVE",
"291 85 CURVE SMOOTH",
"299 93 OFFCURVE",
"314 106 OFFCURVE",
"319 121 CURVE SMOOTH",
"322 131 OFFCURVE",
"329 153 OFFCURVE",
"316 178 CURVE",
"282 113 OFFCURVE",
"239 71 OFFCURVE",
"188 71 CURVE SMOOTH"
);
}
);
};
layerId = "0B1DFD06-3317-40CA-B510-4969A0718C16";
paths = (
{
closed = 1;
nodes = (
"196 -10 OFFCURVE",
"275 42 OFFCURVE",
"314 121 CURVE SMOOTH",
"319 131 OFFCURVE",
"324 140 OFFCURVE",
"324 145 CURVE SMOOTH",
"324 150 OFFCURVE",
"320 161 OFFCURVE",
"309 176 CURVE",
"281 108 OFFCURVE",
"224 68 OFFCURVE",
"186 68 CURVE SMOOTH",
"138 68 OFFCURVE",
"114 95 OFFCURVE",
"114 170 CURVE",
"230 209 OFFCURVE",
"336 305 OFFCURVE",
"336 418 CURVE SMOOTH",
"336 456 OFFCURVE",
"320 479 OFFCURVE",
"282 479 CURVE SMOOTH",
"175 480 OFFCURVE",
"39 273 OFFCURVE",
"42 115 CURVE SMOOTH",
"42 40 OFFCURVE",
"81 -10 OFFCURVE",
"140 -10 CURVE SMOOTH"
);
},
{
closed = 1;
nodes = (
"138 224 OFFCURVE",
"133 224 OFFCURVE",
"126 227 CURVE",
"137 303 OFFCURVE",
"178 413 OFFCURVE",
"239 413 CURVE SMOOTH",
"262 413 OFFCURVE",
"272 397 OFFCURVE",
"272 363 CURVE SMOOTH",
"272 282 OFFCURVE",
"195 224 OFFCURVE",
"146 224 CURVE SMOOTH"
);
}
);
width = 372;
},
{
associatedMasterId = "0B1DFD06-3317-40CA-B510-4969A0718C16";
layerId = "33610075-13A3-43EA-B328-24050E2460C1";
width = 600;
}
);
note = e;
unicode = 0065;
},
{
glyphname = f;
lastChange = "2018-02-27 11:48:33 +0000";
layers = (
{
background = {
paths = (
{
closed = 1;
nodes = (
"65 -403 OFFCURVE",
"171 -255 OFFCURVE",
"214 30 CURVE SMOOTH",
"268 387 LINE",
"307 387 LINE SMOOTH",
"346 387 OFFCURVE",
"383 422 OFFCURVE",
"395 455 CURVE SMOOTH",
"398 462 OFFCURVE",
"399 470 OFFCURVE",
"399 474 CURVE SMOOTH",
"399 479 OFFCURVE",
"397 485 OFFCURVE",
"389 485 CURVE SMOOTH",
"381 485 OFFCURVE",
"369 480 OFFCURVE",
"363 478 CURVE SMOOTH",
"351 474 OFFCURVE",
"330 470 OFFCURVE",
"301 470 CURVE SMOOTH",
"280 470 LINE",
"283 488 LINE SMOOTH",
"323 729 OFFCURVE",
"364 812 OFFCURVE",
"443 812 CURVE SMOOTH",
"464 812 OFFCURVE",
"481 814 OFFCURVE",
"496 828 CURVE SMOOTH",
"510 841 OFFCURVE",
"518 856 OFFCURVE",
"518 869 CURVE SMOOTH",
"518 877 OFFCURVE",
"515 884 OFFCURVE",
"506 884 CURVE SMOOTH",
"496 884 OFFCURVE",
"477 876 OFFCURVE",
"455 874 CURVE SMOOTH",
"317 864 OFFCURVE",
"223 732 OFFCURVE",
"182 488 CURVE SMOOTH",
"179 470 LINE",
"145 470 LINE SMOOTH",
"106 470 OFFCURVE",
"69 436 OFFCURVE",
"56 403 CURVE SMOOTH",
"53 396 OFFCURVE",
"51 389 OFFCURVE",
"51 383 CURVE SMOOTH",
"51 377 OFFCURVE",
"52 370 OFFCURVE",
"62 370 CURVE SMOOTH",
"72 370 OFFCURVE",
"81 374 OFFCURVE",
"87 376 CURVE SMOOTH",
"98 380 OFFCURVE",
"124 387 OFFCURVE",
"150 387 CURVE SMOOTH",
"168 387 LINE",
"137 201 OFFCURVE",
"118 56 OFFCURVE",
"96 -103 CURVE SMOOTH",
"75 -258 OFFCURVE",
"41 -311 OFFCURVE",
"-37 -311 CURVE SMOOTH",
"-63 -311 OFFCURVE",
"-79 -306 OFFCURVE",
"-102 -292 CURVE",
"-179 -379 LINE",
"-163 -393 OFFCURVE",
"-129 -403 OFFCURVE",
"-96 -403 CURVE SMOOTH"
);
}
);
};
layerId = "56450C88-1299-454A-B666-E6F9AF06B23F";
paths = (
{
closed = 1;
nodes = (
"65 -403 OFFCURVE",
"171 -255 OFFCURVE",
"214 30 CURVE SMOOTH",
"268 387 LINE",
"307 387 LINE SMOOTH",
"346 387 OFFCURVE",
"383 422 OFFCURVE",
"395 455 CURVE SMOOTH",
"398 462 OFFCURVE",
"399 470 OFFCURVE",
"399 474 CURVE SMOOTH",
"399 479 OFFCURVE",
"397 485 OFFCURVE",
"389 485 CURVE SMOOTH",
"381 485 OFFCURVE",
"369 480 OFFCURVE",
"363 478 CURVE SMOOTH",
"351 474 OFFCURVE",
"330 470 OFFCURVE",
"301 470 CURVE SMOOTH",
"280 470 LINE",
"283 488 LINE SMOOTH",
"323 729 OFFCURVE",
"364 812 OFFCURVE",
"443 812 CURVE SMOOTH",
"464 812 OFFCURVE",
"481 814 OFFCURVE",
"496 828 CURVE SMOOTH",
"510 841 OFFCURVE",
"518 861 OFFCURVE",
"518 874 CURVE SMOOTH",
"518 880 OFFCURVE",
"514 884 OFFCURVE",
"508 884 CURVE SMOOTH",
"495 884 OFFCURVE",
"491 877 OFFCURVE",
"455 874 CURVE SMOOTH",
"317 864 OFFCURVE",
"223 732 OFFCURVE",
"182 488 CURVE SMOOTH",
"179 470 LINE",
"145 470 LINE SMOOTH",
"106 470 OFFCURVE",
"69 436 OFFCURVE",
"56 403 CURVE SMOOTH",
"53 396 OFFCURVE",
"51 389 OFFCURVE",
"51 383 CURVE SMOOTH",
"51 377 OFFCURVE",
"52 370 OFFCURVE",
"62 370 CURVE SMOOTH",
"72 370 OFFCURVE",
"81 374 OFFCURVE",
"87 376 CURVE SMOOTH",
"98 380 OFFCURVE",
"124 387 OFFCURVE",
"150 387 CURVE SMOOTH",
"167 387 LINE",
"149 277 OFFCURVE",
"119 81 OFFCURVE",
"94 -103 CURVE SMOOTH",
"72 -263 OFFCURVE",
"42 -311 OFFCURVE",
"-37 -311 CURVE SMOOTH",
"-59 -311 OFFCURVE",
"-83 -304 OFFCURVE",
"-102 -292 CURVE",
"-179 -379 LINE",
"-163 -393 OFFCURVE",
"-129 -403 OFFCURVE",
"-96 -403 CURVE SMOOTH"
);
}
);
width = 346;
},
{
background = {
paths = (
{
closed = 1;
nodes = (
"27 -403 OFFCURVE",
"112 -222 OFFCURVE",
"147 20 CURVE SMOOTH",
"204 410 LINE",
"245 410 LINE SMOOTH",
"284 410 OFFCURVE",
"311 430 OFFCURVE",
"327 456 CURVE SMOOTH",
"331 463 OFFCURVE",
"333 470 OFFCURVE",
"333 475 CURVE SMOOTH",
"333 482 OFFCURVE",
"331 486 OFFCURVE",
"325 486 CURVE SMOOTH",
"322 486 OFFCURVE",
"318 485 OFFCURVE",
"313 483 CURVE SMOOTH",
"300 478 OFFCURVE",
"280 470 OFFCURVE",
"248 470 CURVE SMOOTH",
"212 470 LINE",
"217 501 LINE SMOOTH",
"242 654 OFFCURVE",
"274 829 OFFCURVE",
"389 829 CURVE SMOOTH",
"405 829 OFFCURVE",
"416 830 OFFCURVE",
"432 846 CURVE SMOOTH",
"446 860 OFFCURVE",
"451 870 OFFCURVE",
"451 877 CURVE SMOOTH",
"451 881 OFFCURVE",
"449 883 OFFCURVE",
"446 883 CURVE SMOOTH",
"440 883 OFFCURVE",
"435 877 OFFCURVE",
"405 874 CURVE SMOOTH",
"229 856 OFFCURVE",
"175 633 OFFCURVE",
"147 481 CURVE SMOOTH",
"145 470 LINE",
"103 470 LINE SMOOTH",
"64 470 OFFCURVE",
"40 447 OFFCURVE",
"24 420 CURVE SMOOTH",
"20 413 OFFCURVE",
"18 407 OFFCURVE",
"18 402 CURVE SMOOTH",
"18 396 OFFCURVE",
"20 393 OFFCURVE",
"25 393 CURVE SMOOTH",
"30 393 OFFCURVE",
"34 395 OFFCURVE",
"39 397 CURVE SMOOTH",
"52 402 OFFCURVE",
"71 410 OFFCURVE",
"103 410 CURVE SMOOTH",
"136 410 LINE",
"100 219 OFFCURVE",
"82 50 OFFCURVE",
"57 -116 CURVE SMOOTH",
"35 -265 OFFCURVE",
"-10 -333 OFFCURVE",
"-88 -333 CURVE SMOOTH",
"-112 -333 OFFCURVE",
"-133 -328 OFFCURVE",
"-150 -319 CURVE",
"-213 -389 LINE",
"-197 -398 OFFCURVE",
"-177 -403 OFFCURVE",
"-147 -403 CURVE SMOOTH"
);
}
);
};
layerId = "0B1DFD06-3317-40CA-B510-4969A0718C16";
paths = (
{
closed = 1;
nodes = (
"27 -403 OFFCURVE",
"110 -222 OFFCURVE",
"146 20 CURVE SMOOTH",
"204 410 LINE",
"245 410 LINE SMOOTH",
"284 410 OFFCURVE",
"311 430 OFFCURVE",
"327 456 CURVE SMOOTH",
"331 463 OFFCURVE",
"333 470 OFFCURVE",
"333 475 CURVE SMOOTH",
"333 482 OFFCURVE",
"331 486 OFFCURVE",
"325 486 CURVE SMOOTH",
"322 486 OFFCURVE",
"318 485 OFFCURVE",
"313 483 CURVE SMOOTH",
"300 478 OFFCURVE",
"280 470 OFFCURVE",
"248 470 CURVE SMOOTH",
"212 470 LINE",
"217 501 LINE SMOOTH",
"242 654 OFFCURVE",
"274 829 OFFCURVE",
"389 829 CURVE SMOOTH",
"405 829 OFFCURVE",
"416 830 OFFCURVE",
"432 846 CURVE SMOOTH",
"446 860 OFFCURVE",
"451 870 OFFCURVE",
"451 877 CURVE SMOOTH",
"451 881 OFFCURVE",
"449 883 OFFCURVE",
"446 883 CURVE SMOOTH",
"440 883 OFFCURVE",
"435 877 OFFCURVE",
"405 874 CURVE SMOOTH",
"229 856 OFFCURVE",
"175 633 OFFCURVE",
"147 481 CURVE SMOOTH",
"145 470 LINE",
"103 470 LINE SMOOTH",
"64 470 OFFCURVE",
"40 447 OFFCURVE",
"24 420 CURVE SMOOTH",
"20 413 OFFCURVE",
"18 407 OFFCURVE",
"18 402 CURVE SMOOTH",
"18 396 OFFCURVE",
"20 393 OFFCURVE",
"25 393 CURVE SMOOTH",
"30 393 OFFCURVE",
"34 395 OFFCURVE",
"39 397 CURVE SMOOTH",
"52 402 OFFCURVE",
"71 410 OFFCURVE",
"103 410 CURVE SMOOTH",
"136 410 LINE",
"103 219 OFFCURVE",
"82 50 OFFCURVE",
"58 -116 CURVE SMOOTH",
"36 -265 OFFCURVE",
"-10 -333 OFFCURVE",
"-88 -333 CURVE SMOOTH",
"-112 -333 OFFCURVE",
"-133 -328 OFFCURVE",
"-150 -319 CURVE",
"-213 -389 LINE",
"-197 -398 OFFCURVE",
"-177 -403 OFFCURVE",
"-147 -403 CURVE SMOOTH"
);
}
);
width = 326;
},
{
associatedMasterId = "0B1DFD06-3317-40CA-B510-4969A0718C16";
layerId = "33610075-13A3-43EA-B328-24050E2460C1";
width = 600;
}
);
note = f;
unicode = 0066;
},
{
glyphname = g;
lastChange = "2018-02-27 11:48:33 +0000";
layers = (
{
background = {
paths = (
{
closed = 1;
nodes = (
"75 -402 OFFCURVE",
"152 -358 OFFCURVE",
"224 -272 CURVE SMOOTH",
"310 -169 OFFCURVE",
"309 -84 OFFCURVE",
"330 66 CURVE SMOOTH",
"336 107 OFFCURVE",
"341 199 OFFCURVE",
"400 404 CURVE SMOOTH",
"416 459 LINE",
"394 471 OFFCURVE",
"359 480 OFFCURVE",
"321 480 CURVE SMOOTH",
"150 480 OFFCURVE",
"8 269 OFFCURVE",
"8 102 CURVE SMOOTH",
"8 20 OFFCURVE",
"36 -10 OFFCURVE",
"82 -10 CURVE SMOOTH",
"126 -10 OFFCURVE",
"177 21 OFFCURVE",
"241 101 CURVE",
"242 101 LINE",
"234 78 OFFCURVE",
"231 60 OFFCURVE",
"224 13 CURVE SMOOTH",
"200 -149 OFFCURVE",
"188 -195 OFFCURVE",
"169 -235 CURVE SMOOTH",
"143 -291 OFFCURVE",
"101 -316 OFFCURVE",
"57 -316 CURVE SMOOTH",
"-10 -316 OFFCURVE",
"-49 -252 OFFCURVE",
"-30 -141 CURVE",
"-133 -227 LINE",
"-141 -329 OFFCURVE",
"-82 -402 OFFCURVE",
"-2 -402 CURVE SMOOTH"
);
},
{
closed = 1;
nodes = (
"121 89 OFFCURVE",
"116 101 OFFCURVE",
"116 121 CURVE SMOOTH",
"116 268 OFFCURVE",
"190 399 OFFCURVE",
"252 399 CURVE SMOOTH",
"269 399 OFFCURVE",
"285 394 OFFCURVE",
"301 385 CURVE",
"294 347 LINE SMOOTH",
"272 224 OFFCURVE",
"175 89 OFFCURVE",
"129 89 CURVE SMOOTH"
);
}
);
};
layerId = "56450C88-1299-454A-B666-E6F9AF06B23F";
paths = (
{
closed = 1;
nodes = (
"75 -402 OFFCURVE",
"153 -361 OFFCURVE",
"224 -272 CURVE SMOOTH",
"302 -175 OFFCURVE",
"309 -84 OFFCURVE",
"330 66 CURVE SMOOTH",
"336 107 OFFCURVE",
"341 199 OFFCURVE",
"400 404 CURVE SMOOTH",
"416 459 LINE",
"394 471 OFFCURVE",
"359 480 OFFCURVE",
"321 480 CURVE SMOOTH",
"150 480 OFFCURVE",
"8 269 OFFCURVE",
"8 102 CURVE SMOOTH",
"8 20 OFFCURVE",
"36 -10 OFFCURVE",
"82 -10 CURVE SMOOTH",
"127 -10 OFFCURVE",
"178 28 OFFCURVE",
"243 111 CURVE",
"245 111 LINE",
"237 88 OFFCURVE",
"232 70 OFFCURVE",
"224 13 CURVE SMOOTH",
"201 -150 OFFCURVE",
"188 -195 OFFCURVE",
"169 -235 CURVE SMOOTH",
"143 -291 OFFCURVE",
"101 -316 OFFCURVE",
"57 -316 CURVE SMOOTH",
"-10 -316 OFFCURVE",
"-49 -252 OFFCURVE",
"-30 -141 CURVE",
"-133 -227 LINE",
"-141 -329 OFFCURVE",
"-82 -402 OFFCURVE",
"-2 -402 CURVE SMOOTH"
);
},
{
closed = 1;
nodes = (
"120 89 OFFCURVE",
"116 99 OFFCURVE",
"116 121 CURVE SMOOTH",
"116 268 OFFCURVE",
"190 400 OFFCURVE",
"252 400 CURVE SMOOTH",
"269 400 OFFCURVE",
"285 395 OFFCURVE",
"301 386 CURVE",
"294 347 LINE SMOOTH",
"272 224 OFFCURVE",
"175 89 OFFCURVE",
"129 89 CURVE SMOOTH"
);
}
);
width = 410;
},
{
background = {
paths = (
{
closed = 1;
nodes = (
"62 -402 OFFCURVE",
"142 -355 OFFCURVE",
"205 -275 CURVE SMOOTH",
"283 -174 OFFCURVE",
"282 -96 OFFCURVE",
"307 56 CURVE SMOOTH",
"312 94 OFFCURVE",
"320 209 OFFCURVE",
"378 417 CURVE SMOOTH",
"391 464 LINE",
"371 474 OFFCURVE",
"348 480 OFFCURVE",
"317 480 CURVE SMOOTH",
"153 480 OFFCURVE",
"20 268 OFFCURVE",
"20 95 CURVE SMOOTH",
"20 24 OFFCURVE",
"36 -10 OFFCURVE",
"71 -10 CURVE SMOOTH",
"124 -10 OFFCURVE",
"191 50 OFFCURVE",
"267 170 CURVE",
"268 169 LINE",
"261 146 OFFCURVE",
"243 86 OFFCURVE",
"236 39 CURVE SMOOTH",
"211 -126 OFFCURVE",
"194 -208 OFFCURVE",
"172 -252 CURVE SMOOTH",
"142 -310 OFFCURVE",
"98 -338 OFFCURVE",
"47 -338 CURVE SMOOTH",
"-33 -338 OFFCURVE",
"-67 -269 OFFCURVE",
"-60 -188 CURVE",
"-126 -241 LINE",
"-131 -326 OFFCURVE",
"-88 -402 OFFCURVE",
"-12 -402 CURVE SMOOTH"
);
},
{
closed = 1;
nodes = (
"100 72 OFFCURVE",
"94 92 OFFCURVE",
"94 117 CURVE SMOOTH",
"94 233 OFFCURVE",
"158 422 OFFCURVE",
"245 422 CURVE SMOOTH",
"273 422 OFFCURVE",
"291 414 OFFCURVE",
"307 398 CURVE",
"300 357 LINE SMOOTH",
"282 254 OFFCURVE",
"188 72 OFFCURVE",
"118 72 CURVE SMOOTH"
);
}
);
};
layerId = "0B1DFD06-3317-40CA-B510-4969A0718C16";
paths = (
{
closed = 1;
nodes = (
"62 -402 OFFCURVE",
"142 -355 OFFCURVE",
"205 -275 CURVE SMOOTH",
"283 -174 OFFCURVE",
"282 -96 OFFCURVE",
"307 56 CURVE SMOOTH",
"312 94 OFFCURVE",
"330 245 OFFCURVE",
"378 417 CURVE SMOOTH",
"391 464 LINE",
"371 474 OFFCURVE",
"348 480 OFFCURVE",
"317 480 CURVE SMOOTH",
"153 480 OFFCURVE",
"20 268 OFFCURVE",
"20 95 CURVE SMOOTH",
"20 24 OFFCURVE",
"36 -10 OFFCURVE",
"71 -10 CURVE SMOOTH",
"125 -10 OFFCURVE",
"192 52 OFFCURVE",
"267 170 CURVE",
"268 169 LINE",
"261 146 OFFCURVE",
"242 86 OFFCURVE",
"235 39 CURVE SMOOTH",
"210 -126 OFFCURVE",
"194 -208 OFFCURVE",
"172 -252 CURVE SMOOTH",
"142 -310 OFFCURVE",
"98 -338 OFFCURVE",
"47 -338 CURVE SMOOTH",
"-33 -338 OFFCURVE",
"-67 -269 OFFCURVE",
"-60 -188 CURVE",
"-126 -241 LINE",
"-131 -326 OFFCURVE",
"-88 -402 OFFCURVE",
"-12 -402 CURVE SMOOTH"
);
},
{
closed = 1;
nodes = (
"100 72 OFFCURVE",
"94 92 OFFCURVE",
"94 117 CURVE SMOOTH",
"94 233 OFFCURVE",
"158 422 OFFCURVE",
"245 422 CURVE SMOOTH",
"273 422 OFFCURVE",
"291 414 OFFCURVE",
"307 398 CURVE",
"300 357 LINE SMOOTH",
"282 254 OFFCURVE",
"188 72 OFFCURVE",
"118 72 CURVE SMOOTH"
);
}
);
width = 391;
},
{
associatedMasterId = "0B1DFD06-3317-40CA-B510-4969A0718C16";
layerId = "33610075-13A3-43EA-B328-24050E2460C1";
width = 600;
}
);
note = g;
unicode = 0067;
},
